<svg width="1920" height="601" viewBox="0 0 1920 601" fill="none" xmlns="http://www.w3.org/2000/svg">
<g clip-path="url(#clip0_260_440)">
<path d="M1209 602C1191.98 602 1174.95 602 1157.66 601.689C1166.12 599.184 1174.88 597.114 1183.56 594.712C1185.8 594.09 1187.91 592.63 1189.82 591.203C1194.82 587.456 1199.65 583.462 1204.62 579.673C1207.16 577.741 1210.49 576.524 1212.37 574.128C1215.98 569.527 1219.04 564.448 1221.92 559.335C1236.55 533.333 1239.86 506.322 1227.95 478.427C1224.54 470.439 1220.99 461.886 1215.27 455.655C1207.2 446.872 1197.05 439.994 1187.74 432.355C1187.01 431.755 1185.98 431.419 1185.03 431.212C1182.02 430.554 1178.9 430.297 1175.97 429.382C1163.19 425.38 1150.41 423.049 1136.78 424.748C1110.7 428.001 1089.71 439.894 1074.65 461.093C1058.7 483.543 1053.98 508.557 1061.02 535.559C1065.03 550.944 1073.86 563.708 1082.83 576.34C1084.9 579.265 1089.17 580.641 1092.45 582.705C1099.05 586.86 1104.44 592.861 1112.66 594.529C1118.8 595.776 1124.74 598.079 1130.74 600.006C1132.22 600.482 1133.58 601.325 1135 602C1018.98 602 902.955 602 786.657 601.689C787.255 600.96 788.092 600.289 789.005 600.16C803.829 598.077 816.991 592.184 828.897 583.201C831.847 580.976 835.601 579.719 838.263 577.241C840.524 575.135 841.453 571.67 843.472 569.219C855.718 554.355 862.639 537.244 863.909 518.179C865.217 498.532 860.197 480.274 849.273 463.738C846.338 459.296 843.705 454.655 840.797 450.194C839.998 448.969 838.846 447.85 837.616 447.055C832.722 443.893 827.76 440.836 822.775 437.818C803.247 425.995 782.317 421.244 759.705 425.783C751.654 427.399 743.702 429.528 735.741 431.565C734.352 431.921 733.02 432.831 731.88 433.754C729.486 435.693 727.463 438.175 724.879 439.772C720.723 442.34 717.213 445.424 714.118 449.201C710.682 453.393 706.232 456.495 703.097 461.228C694.156 474.727 688.371 489.366 687.146 505.336C685.377 528.397 691.625 549.401 706.163 567.713C708.965 571.242 710.871 575.674 714.175 578.565C718.254 582.134 723.416 584.445 727.994 587.473C729.591 588.529 730.703 590.316 732.294 591.386C734.27 592.715 736.435 593.858 738.666 594.682C740.448 595.341 742.479 595.289 744.352 595.749C749.991 597.134 755.623 598.559 761.222 600.102C762.554 600.469 763.744 601.353 765 602C745.977 602 726.955 602 707.342 601.57C706.47 600.453 706.246 599.201 705.899 599.167C701.271 598.702 696.626 598.408 691.724 597.751C682.494 596.261 673.522 595.118 664.558 593.92C646.803 591.545 629.06 589.084 611.295 586.787C606.737 586.198 603.939 584.365 602.144 579.745C600.649 575.899 597.897 572.14 594.774 569.399C583.424 559.435 569.979 557.094 555.364 559.678C554.366 559.854 552.768 558.605 551.968 557.604C547.667 552.22 544.243 545.91 539.197 541.392C526.657 530.163 511.399 526.141 494.685 526.903C479.992 527.574 467.053 532.476 456.181 542.367C454.06 544.296 452.376 544.711 449.756 543.926C437.918 540.375 425.951 540.731 414.237 544.149C410.361 545.28 408.144 544.344 406.274 541.565C401.215 534.045 393.778 529.424 386.219 525.049C376.559 519.457 365.906 516.744 354.463 515.153C348.178 515.332 342.347 515.607 336.103 515.905C318.541 516.98 304.027 524.214 291.287 535.266C288.826 537.401 287.205 538.16 284.066 536.559C259.499 524.037 223.34 528.62 204.249 551.096C193.548 563.695 189.741 583.258 197.12 597.363C197.676 598.529 198.283 599.372 198.875 600.171C198.86 600.128 198.775 600.158 198.982 600.449C199.793 601.16 200.396 601.58 201 602C134.397 602 67.7943 602 1 602C1 518.311 1 434.621 1.3085 350.651C2.08167 351.57 2.71592 352.734 2.9846 353.976C5.46348 365.443 8.68094 376.674 15.9275 386.124C17.7174 388.458 20.9714 390.21 23.8881 391.018C28.8187 392.383 34.0206 392.759 39.102 393.591C58.2958 396.731 77.5198 399.706 96.6572 403.159C101.816 404.09 102.852 402.148 104.236 397.732C107.247 388.122 110.508 378.435 115.12 369.531C119.019 362.003 124.9 355.487 130.07 348.648C130.859 347.603 132.559 347.262 133.809 346.544C134.768 345.993 135.955 345.565 136.57 344.733C141.616 337.911 147.583 332.651 156.503 331.682C157.817 331.54 159.062 330.313 160.236 329.449C161.597 328.446 162.672 326.843 164.167 326.265C193.486 314.943 222.18 316.58 249.955 331.18C255.933 334.323 261.454 338.499 266.715 342.778C269.705 345.211 271.559 348.99 274.268 351.836C276.266 353.936 279.266 355.149 281.049 357.375C290.451 369.113 296.493 382.496 299.945 397.122C302.722 408.889 302.647 420.769 301.729 432.69C301.533 435.236 301.763 436.651 304.798 437.104C319.427 439.288 334.021 441.711 348.628 444.04C382.93 449.512 417.24 454.935 451.533 460.465C470.568 463.534 489.562 466.854 508.596 469.925C541.408 475.221 574.237 480.409 607.059 485.645C629.382 489.207 651.712 492.725 674.018 496.394C677.134 496.907 678.512 496.315 679.128 492.975C684.229 465.333 699.09 443.952 722.155 428.423C759.07 403.567 811.155 406.998 844.042 436.869C869.384 459.887 880.847 488.79 877.144 523.244C876.968 524.882 877.472 526.594 877.758 529.162C887.216 524.799 895.868 520.996 904.336 516.819C908.47 514.78 911.799 514.729 915.926 517.292C928.067 524.829 940.527 531.852 953.168 539.16C953.989 537.195 954.949 535.148 954.952 533.098C955.033 477.549 955.01 422 955.039 366.451C955.04 363.637 955.355 360.824 955.543 357.73C951.173 352.631 946.616 347.953 942.437 342.96C936.817 336.245 931.419 329.34 926.069 322.406C923.976 319.692 921.981 319.203 918.887 320.917C909.59 326.069 900.179 331.019 890.755 335.938C885.986 338.428 881.094 340.681 875.947 343.193C875.085 341.555 874.496 339.675 873.307 338.322C869.856 334.395 866.075 330.758 862.618 326.835C861.508 325.574 861.26 323.565 860.179 322.264C856.433 317.758 851.754 313.837 848.895 308.853C847.059 305.653 845.264 305.703 843.047 306.493C829.115 311.461 815.233 316.573 801.387 321.775C795.61 323.946 795.308 323.88 793.527 317.845C791.363 310.511 789.046 303.223 786.909 295.882C786.046 292.919 784.489 291.315 781.31 290.395C769.652 287.022 758.127 283.193 746.534 279.588C725.422 273.023 704.298 266.497 683.015 259.617C681.669 256.249 680.379 253.257 679.32 250.185C666.513 213.028 653.767 175.848 640.875 138.72C640.21 136.804 638.366 135.298 636.973 133.292C633.813 130.245 631.17 126.637 627.613 124.923C614.462 118.586 601.459 111.356 587.576 107.244C559.231 98.8497 530.559 91.2692 501.632 85.2128C474.352 79.5011 446.657 75.5072 418.986 72.0071C395.64 69.054 372.094 67.4069 348.585 66.1277C335.348 65.4074 322.007 66.6239 308.712 66.9275C293.962 67.2643 279.564 69.7553 265.795 74.9761C260.367 77.034 255.125 80.0722 250.488 83.5768C246.264 86.7699 243.004 91.229 239.242 95.0537C238.588 95.7186 237.503 95.937 236.697 96.4803C235.445 97.3242 234.152 98.1563 233.068 99.1934C229.329 102.772 226.138 107.235 221.806 109.766C219.257 111.255 217.352 112.456 216.014 115.02C215.471 116.061 214.002 116.605 212.985 117.414C211.58 118.533 210.14 119.622 208.837 120.853C207.886 121.75 207.282 123.051 206.262 123.832C202.073 127.04 197.545 129.847 193.599 133.32C189.712 136.741 186.485 140.899 182.753 144.512C181.102 146.11 178.727 146.947 177.019 148.501C172.938 152.214 169.078 156.17 165.067 159.962C164.656 160.35 163.737 160.149 163.208 160.473C162.149 161.121 161.096 161.841 160.219 162.712C156.44 166.461 152.729 170.28 148.973 174.053C148.762 174.264 148.308 174.217 148.059 174.409C146.638 175.508 145.336 176.788 143.825 177.737C139.883 180.215 136.115 183.649 131.795 184.679C125.922 186.078 119.603 185.668 113.471 185.91C95.5503 186.619 77.6256 187.227 59.7068 187.978C56.9088 188.096 53.8778 188.181 51.4018 189.284C46.5307 191.455 41.5684 193.82 37.4341 197.101C34.8342 199.164 33.7071 203.06 31.8531 206.093C29.4317 210.054 26.7399 213.863 24.5204 217.932C12.9591 239.126 7.47218 262.189 3.7607 285.807C3.26858 288.938 1.94078 291.939 1 295C1 197.017 1 99.0335 1 1.05469C641 1.059 1281 1.059 1921 1.059C1921 99.1014 1921 197.085 1920.72 295.403C1920.06 295.038 1919.49 294.378 1919.34 293.632C1916.12 278.026 1913.86 262.155 1909.54 246.861C1904.08 227.487 1895.53 209.355 1879.97 195.646C1876.84 192.881 1872.87 189.76 1869.01 189.345C1855.98 187.944 1842.82 187.662 1829.71 186.999C1815.61 186.285 1801.51 185.701 1787.42 184.844C1785.63 184.735 1783.61 183.672 1782.21 182.456C1775.49 176.602 1769.02 170.461 1762.32 164.582C1754.95 158.117 1747.35 151.921 1740 145.437C1728.56 135.347 1717.32 125.035 1705.86 114.963C1695.28 105.65 1684.5 96.5494 1673.84 87.3171C1666.4 80.8745 1658.89 75.0346 1648.78 72.7121C1624.92 67.2311 1600.85 65.6199 1576.51 67.0113C1554.64 68.262 1532.65 68.6743 1510.94 71.3592C1480.09 75.1754 1449.3 79.9 1418.79 85.8122C1394.52 90.515 1370.59 97.1699 1346.72 103.726C1328.25 108.8 1310.21 115.377 1293.9 125.742C1291.17 127.474 1289.28 130.508 1286.61 132.924C1285.09 134.029 1283.4 134.951 1282.92 136.302C1275.15 158.068 1267.55 179.892 1259.89 201.693C1252.94 221.468 1245.96 241.231 1238.6 261.036C1234.05 262.214 1229.85 263.241 1225.73 264.521C1212.86 268.518 1200.06 272.696 1187.18 276.644C1171.77 281.367 1156.29 285.851 1140.91 290.662C1139.31 291.161 1137.55 292.935 1136.96 294.524C1134.15 302.127 1131.51 309.81 1129.21 317.583C1127.33 323.921 1126.44 324.565 1119.8 322.026C1107.22 317.218 1094.62 312.458 1082.11 307.486C1078.6 306.092 1076.39 306.698 1074.01 309.723C1065.88 320.021 1057.39 330.031 1049.18 340.269C1046.66 343.419 1044.61 343.857 1040.86 341.686C1028.2 334.357 1015.27 327.477 1002.31 320.67C1001.12 320.044 998.358 320.566 997.44 321.572C993.421 325.977 989.716 330.684 986.076 335.418C980.63 342.502 975.335 349.7 969.687 357.122C968.933 359.942 968.065 362.489 968.062 365.038C967.984 420.946 968.003 476.855 968.003 532.763C968.003 533.761 968.038 534.76 968.013 535.758C967.929 539.052 969.306 539.611 972.235 537.732C984.635 530.259 996.666 522.818 1008.91 515.74C1010.53 514.804 1013.48 515.099 1015.37 515.891C1023.5 519.302 1031.45 523.165 1039.51 526.752C1043.6 528.573 1044.88 527.653 1044.68 523.591C1044.02 510.463 1044.6 497.492 1048.27 484.704C1052.14 471.208 1058.17 458.736 1067.12 448.138C1077.48 435.874 1089.99 425.963 1105.21 419.971C1119.13 414.493 1133.6 410.97 1148.48 411.307C1164.6 411.671 1179.87 416.828 1194.11 424.19C1205.52 430.095 1215.3 438.59 1223.31 448.606C1233.51 461.353 1240.2 475.997 1243.66 492.028C1244.36 495.303 1245.83 496.764 1249.6 496.125C1270.23 492.633 1290.91 489.414 1311.56 486.049C1333.19 482.524 1354.81 478.876 1376.45 475.397C1404.47 470.891 1432.52 466.544 1460.54 462.046C1486.62 457.859 1512.67 453.532 1538.75 449.324C1564.47 445.172 1590.19 440.978 1615.96 437.095C1620.23 436.451 1621.5 434.675 1620.57 430.92C1617.82 419.733 1619.61 408.746 1622.2 397.889C1628.31 372.201 1641.02 350.947 1663.65 336.184C1678.48 326.508 1694.6 320.922 1712.53 318.919C1718.64 318.927 1724.28 318.912 1730.28 318.949C1758.46 323.039 1782.35 334.22 1799.87 357.046C1809.43 369.509 1815.98 383.344 1818.82 398.818C1819.45 402.261 1820.52 403.789 1824.35 403.132C1849.21 398.869 1874.08 394.676 1898.98 390.705C1903.25 390.024 1906.23 387.958 1907.95 384.454C1911.09 378.068 1913.94 371.517 1916.49 364.874C1918.34 360.05 1919.52 354.967 1921 350C1921 433.92 1921 517.841 1921 602C1852.98 602 1784.95 602 1716.33 601.667C1716.54 600.914 1717.35 600.495 1718.11 600.029C1718.07 599.982 1717.97 600.072 1718.22 600C1718.6 599.638 1718.73 599.348 1718.95 598.684C1727.45 580.73 1723.14 561.863 1710.13 548.728C1691.78 530.198 1669.06 526.536 1644.44 532.07C1639.22 533.242 1634.01 537.95 1629.38 537.236C1624.5 536.483 1620.43 531.023 1615.81 527.914C1604.96 520.614 1592.73 517.091 1579.47 515.154C1573.18 515.332 1567.35 515.607 1561.1 515.905C1557.74 516.266 1554.75 516.367 1551.87 516.977C1535.29 520.482 1521.2 528.505 1510.26 541.415C1507.65 544.495 1505.9 545.162 1502.19 544.038C1491.09 540.671 1479.73 540.602 1468.52 543.32C1464.97 544.181 1462.57 544.066 1459.73 541.68C1447.36 531.287 1433.09 526.292 1416.83 526.921C1393.91 527.808 1375.71 536.438 1364.85 557.68C1364.34 558.696 1362.68 559.739 1361.56 559.731C1357.11 559.702 1352.67 559.091 1348.23 559.003C1333.07 558.707 1318.41 568.74 1312.77 582.8C1312.22 584.17 1310.2 585.57 1308.68 585.827C1300.89 587.134 1293.05 588.055 1285.23 589.14C1271.4 591.059 1257.56 592.946 1243.74 594.954C1237.48 595.864 1231.26 597.031 1224.58 598.073C1219.9 598.39 1215.65 598.552 1211.46 599.163C1210.52 599.3 1209.81 601.013 1209 602ZM747.455 89.1559C747.455 89.1559 747.938 89.0664 748.111 89.7522C752.73 97.8776 757.348 106.003 761.998 114.851C769.866 129.653 777.66 144.495 785.617 159.249C800.053 186.018 814.573 212.741 829.085 239.47C837.308 254.617 845.585 269.735 854.019 285.197C867.407 272.349 880.539 259.746 894.186 246.651C896.838 250.221 899.462 253.543 901.861 257.02C912.662 272.672 923.399 288.369 934.17 304.563C934.435 304.772 934.7 304.982 935.09 305.621C935.266 305.894 935.517 306.036 936.008 306.681C936.648 307.493 937.287 308.306 937.94 309.053C937.94 309.053 937.876 309.073 938.137 309.719C941.516 314.742 944.895 319.765 948.273 324.789C948.656 324.575 949.04 324.361 949.423 324.147C945.984 317.075 942.545 310.003 939.039 302.181C936.563 296.469 934.151 290.728 931.599 285.05C922.789 265.444 913.94 245.855 905.084 226.27C901.546 218.443 897.95 210.642 894.098 202.211C892.03 204.471 890.493 206.151 888.36 208.06C887.847 208.691 887.334 209.322 886.222 210.223C876.252 219.893 866.281 229.564 855.855 239.676C852.922 235.484 850.429 231.879 847.896 228.303C829.224 201.951 810.556 175.596 791.862 149.259C782.547 136.136 773.18 123.051 763.823 109.436C763.539 109.265 763.254 109.094 763.055 108.997C763.055 108.997 763.13 108.913 762.791 108.307C758.095 101.657 753.399 95.006 748.279 87.7961C747.81 87.1489 747.34 86.5018 746.87 85.8546C746.698 85.9522 746.525 86.0497 746.353 86.1473C746.7 87.2797 747.047 88.4121 747.172 89.5523C747.214 89.5755 747.257 89.5988 747.455 89.1559ZM1170.64 88.7559C1171.07 87.6581 1171.5 86.5604 1171.93 85.4627C1171.72 85.3648 1171.51 85.267 1171.29 85.1692C1170.64 86.2171 1169.99 87.2651 1168.8 88.8188C1168.58 89.6361 1168.35 90.4534 1168.13 91.2707C1168.43 91.3432 1168.73 91.4157 1169.02 91.4882C1169.37 90.6792 1169.71 89.8701 1170.64 88.7559ZM987.637 298.822C988.145 297.895 988.653 296.967 989.596 295.926C989.877 295.754 990.024 295.505 990.486 294.939C990.603 294.648 990.72 294.356 991.152 293.446C992.159 292.137 993.22 290.864 994.165 289.511C1004.23 275.115 1014.28 260.706 1024.38 246.229C1037.67 258.979 1050.81 271.588 1064.17 284.407C1065.17 282.989 1066.03 281.997 1066.65 280.867C1080.13 255.962 1093.59 231.043 1107.05 206.126C1119.09 183.835 1131.17 161.562 1143.16 139.241C1147.9 130.416 1152.43 121.483 1157.63 112.109C1161.25 105.447 1164.86 98.7848 1168.48 92.1228C1168.04 91.8681 1167.6 91.6133 1167.16 91.3586C1163.07 97.209 1158.97 103.059 1154.95 108.995C1154.95 108.995 1155.03 108.922 1154.54 109.07C1154.42 109.359 1154.29 109.647 1153.84 110.558C1151.78 113.299 1149.63 115.989 1147.65 118.789C1130.64 142.77 1113.65 166.764 1096.67 190.768C1085.38 206.725 1074.12 222.704 1062.58 239.058C1049.71 226.654 1037.06 214.465 1024.1 201.977C1014.66 222.842 1005.61 242.696 996.692 262.611C990.991 275.342 985.491 288.163 979.302 301.319C975.846 308.962 972.389 316.605 968.933 324.249C969.23 324.39 969.527 324.531 969.824 324.673C973.359 319.413 976.894 314.153 980.62 308.456C980.62 308.456 980.183 308.264 980.935 308.261C982.005 306.519 983.074 304.777 984.586 302.926C984.871 302.755 985.024 302.504 985.596 301.841C986.116 300.9 986.636 299.96 987.046 299.032C987.046 299.032 987.058 299.141 987.637 298.822ZM1029.92 23.5033C1029.92 23.5033 1029.89 23.044 1030.03 22.2824C1029.98 21.5124 1029.92 20.7424 1029.96 19.0517C1029.96 13.7489 1029.96 8.44606 1029.96 3.14324C1029.77 3.10111 1029.57 3.05898 1029.38 3.01685C1028.31 8.66603 1027.24 14.3152 1025.78 20.6563C1025.34 22.2113 1024.83 23.7499 1024.47 25.3235C1017.94 54.0616 1011.43 82.805 1004.91 111.545C1002.06 124.119 999.184 136.688 996.258 149.527C977.767 145.48 959.577 141.5 940.711 137.371C947.488 195.809 954.11 252.921 960.733 310.033C962.085 304.918 962.659 299.887 963.05 294.842C964.093 281.359 965.147 267.875 966.031 254.381C967.123 237.719 967.965 221.041 969.079 204.381C969.637 196.029 970.557 187.702 971.341 179.063C988.345 181.194 1004.99 183.28 1021.6 185.362C1022.8 163.932 1023.95 143.589 1025.06 123.243C1025.76 110.338 1026.49 97.4336 1027.04 84.522C1027.79 66.788 1028.37 49.0467 1029.07 31.3102C1029.16 28.8402 1029.49 26.3794 1029.92 23.5033ZM1807.65 403.105C1807.1 401.011 1806.43 398.942 1806.04 396.82C1803.55 383.403 1794.48 373.183 1788.85 361.297C1782.42 359.208 1779.63 352.797 1774.11 349.193C1756.69 337.817 1738.33 330.89 1717.4 331.982C1695.42 333.128 1676.17 340.658 1660.03 356.123C1654.8 361.135 1650.37 366.517 1646.58 372.57C1635.96 389.521 1630.76 407.676 1632.79 427.92C1634.9 449.049 1642.9 467.191 1657.69 482.406C1659.38 484.141 1660.22 486.827 1662.09 488.219C1665.45 490.717 1669.34 492.473 1672.91 494.704C1687.18 503.637 1702.75 508.882 1719.53 508.913C1738.55 508.948 1756.27 503.767 1771.93 492.47C1776.01 489.53 1780.8 487.389 1784.3 483.91C1787.88 480.353 1790.77 475.856 1793.09 471.325C1797.77 462.2 1802.58 453.03 1806 443.405C1810.55 430.624 1809.8 417.22 1807.65 403.105ZM243.957 340.507C240.391 339.523 236.721 338.814 233.277 337.509C217.115 331.386 200.453 329.945 183.721 333.61C166.948 337.284 151.57 344.363 139.953 357.623C134.288 364.09 128.332 370.598 124.161 378.017C114.715 394.818 111.425 413.045 113.919 432.377C116.203 450.08 124.932 464.892 134.401 479.259C137.31 483.673 142.775 486.451 147.198 489.81C166.413 504.401 187.855 511.074 212.069 508.079C225.506 506.417 238.169 502.481 249.287 494.736C258.928 488.02 268.709 481.098 274.359 470.351C279.054 461.422 284.359 452.467 286.983 442.864C294.275 416.183 289.524 391.191 273.265 368.583C271.634 366.315 270.326 363.782 268.497 361.697C265.946 358.789 263.22 355.979 260.255 353.502C255.11 349.202 249.725 345.19 243.957 340.507ZM966.998 486.5C966.998 444.261 966.998 402.022 966.998 359.783C966.754 359.784 966.51 359.784 966.266 359.785C966.266 418.928 966.266 478.071 966.266 537.214C966.51 537.215 966.754 537.217 966.998 537.219C966.998 520.646 966.998 504.073 966.998 486.5ZM956.998 483.5C956.998 442.593 956.998 401.687 956.998 360.78C956.754 360.78 956.509 360.781 956.265 360.782C956.265 419.593 956.265 478.405 956.265 537.217C956.509 537.219 956.754 537.22 956.998 537.222C956.998 519.648 956.998 502.074 956.998 483.5ZM348.412 64.0017C337.53 64.0017 326.648 64.0017 315.766 64.0017C315.768 64.2453 315.771 64.4889 315.774 64.7325C329.587 64.7325 343.4 64.7325 357.212 64.7325C357.215 64.4889 357.217 64.2453 357.219 64.0017C354.603 64.0017 351.987 64.0017 348.412 64.0017ZM1575.56 64.9978C1585.79 64.9978 1596.02 64.9978 1606.26 64.9978C1606.25 64.7507 1606.25 64.5037 1606.25 64.2567C1592.75 64.2567 1579.26 64.2567 1565.76 64.2567C1565.76 64.5037 1565.76 64.7507 1565.75 64.9978C1568.7 64.9978 1571.64 64.9978 1575.56 64.9978Z" fill="white"/>
<path d="M1 295.469C1.94078 291.939 3.26858 288.939 3.7607 285.807C7.47218 262.189 12.9591 239.126 24.5204 217.932C26.7399 213.863 29.4317 210.054 31.8531 206.093C33.7071 203.06 34.8342 199.165 37.4341 197.101C41.5684 193.821 46.5307 191.455 51.4018 189.284C53.8778 188.181 56.9088 188.096 59.7068 187.978C77.6256 187.227 95.5503 186.619 113.471 185.911C119.603 185.668 125.922 186.079 131.795 184.679C136.115 183.649 139.883 180.215 143.825 177.738C145.336 176.788 146.638 175.508 148.059 174.409C148.308 174.217 148.762 174.265 148.973 174.053C152.729 170.28 156.44 166.461 160.219 162.712C161.096 161.842 162.149 161.121 163.208 160.473C163.737 160.149 164.656 160.35 165.067 159.962C169.078 156.17 172.938 152.215 177.019 148.501C178.727 146.947 181.102 146.11 182.753 144.512C186.485 140.899 189.712 136.741 193.599 133.32C197.545 129.847 202.073 127.04 206.262 123.832C207.282 123.051 207.886 121.75 208.837 120.853C210.14 119.623 211.58 118.534 212.985 117.414C214.002 116.605 215.471 116.061 216.014 115.02C217.352 112.456 219.257 111.255 221.806 109.766C226.138 107.235 229.329 102.772 233.068 99.1936C234.152 98.1565 235.445 97.3244 236.697 96.4804C237.503 95.9371 238.588 95.7187 239.242 95.0538C243.004 91.2292 246.264 86.7701 250.488 83.577C255.125 80.0724 260.367 77.0342 265.795 74.9763C279.564 69.7554 293.962 67.2644 308.712 66.9277C322.007 66.6241 335.348 65.4076 348.585 66.1278C372.094 67.4071 395.64 69.0542 418.986 72.0073C446.657 75.5074 474.352 79.5013 501.632 85.213C530.559 91.2694 559.231 98.8499 587.576 107.245C601.459 111.356 614.462 118.586 627.613 124.923C631.17 126.637 633.813 130.245 636.542 133.413C629.881 134.645 623.554 135.447 616.775 136.307C622.18 154.055 627.361 171.048 632.529 188.045C639.733 211.737 646.896 235.443 654.192 259.107C654.707 260.777 656.317 263.54 657.179 263.452C665.874 262.567 674.519 261.192 683.178 259.954C704.298 266.497 725.422 273.024 746.534 279.588C758.127 283.193 769.652 287.022 781.31 290.395C784.489 291.315 786.046 292.919 786.909 295.882C789.046 303.223 791.363 310.512 793.527 317.845C795.308 323.88 795.61 323.946 801.387 321.776C815.233 316.573 829.115 311.461 843.047 306.493C845.264 305.703 847.059 305.653 848.895 308.853C851.754 313.837 856.433 317.758 860.179 322.264C861.26 323.565 861.508 325.574 862.618 326.835C866.075 330.758 869.856 334.395 873.307 338.322C874.496 339.675 875.085 341.555 875.947 343.193C881.094 340.682 885.986 338.428 890.755 335.938C900.179 331.019 909.59 326.07 918.887 320.917C921.981 319.203 923.976 319.693 926.069 322.406C931.419 329.34 936.817 336.245 942.437 342.96C946.616 347.953 951.173 352.631 955.273 358.063C954.654 361.278 954.037 363.879 954.035 366.48C953.979 421.247 954.008 476.014 953.944 530.78C953.94 533.546 953.239 536.311 952.862 539.077C940.527 531.852 928.067 524.829 915.926 517.292C911.799 514.73 908.47 514.781 904.336 516.82C895.868 520.996 887.216 524.799 877.758 529.163C877.472 526.594 876.968 524.883 877.144 523.244C880.847 488.79 869.384 459.888 844.042 436.869C811.155 406.998 759.07 403.567 722.155 428.423C699.09 443.953 684.229 465.333 679.128 492.975C678.512 496.315 677.134 496.907 674.018 496.395C651.712 492.725 629.382 489.207 607.059 485.646C574.237 480.409 541.408 475.221 508.596 469.926C489.562 466.854 470.568 463.534 451.533 460.465C417.24 454.935 382.93 449.512 348.628 444.041C334.021 441.711 319.427 439.289 304.798 437.104C301.763 436.651 301.533 435.236 301.729 432.69C302.647 420.769 302.722 408.889 299.945 397.122C296.493 382.497 290.451 369.113 281.049 357.375C279.266 355.15 276.266 353.936 274.268 351.836C271.559 348.99 269.705 345.211 266.715 342.779C261.454 338.5 255.933 334.323 249.955 331.18C222.18 316.58 193.486 314.943 164.167 326.265C162.672 326.843 161.597 328.446 160.236 329.449C159.062 330.314 157.817 331.54 156.503 331.683C147.583 332.651 141.616 337.911 136.57 344.734C135.955 345.565 134.768 345.994 133.809 346.545C132.559 347.262 130.859 347.603 130.07 348.648C124.9 355.487 119.019 362.003 115.12 369.531C110.508 378.435 107.247 388.123 104.236 397.732C102.852 402.148 101.816 404.09 96.6572 403.159C77.5198 399.706 58.2958 396.732 39.102 393.591C34.0206 392.759 28.8187 392.383 23.8881 391.018C20.9714 390.211 17.7174 388.458 15.9275 386.124C8.68094 376.674 5.46348 365.443 2.9846 353.977C2.71592 352.734 2.08167 351.57 1.3085 350.185C1 331.979 1 313.958 1 295.469ZM452.723 234.775C514.634 244.788 576.544 254.8 639.293 264.948C638.698 262.456 638.377 260.731 637.873 259.061C626.003 219.688 614.046 180.342 602.334 140.923C601.186 137.06 599.271 135.706 595.548 135.113C552.634 128.276 509.744 121.292 466.844 114.37C458.22 112.978 449.581 111.678 440.571 110.276C434.248 150.417 428.044 189.803 421.769 229.644C432.228 231.37 442.05 232.99 452.723 234.775ZM400.33 226.42C401.14 224.407 402.355 222.46 402.701 220.37C407.427 191.787 412.045 163.186 416.662 134.584C418.141 125.426 419.541 116.255 420.978 107.083C419.881 106.684 419.282 106.352 418.646 106.25C382.808 100.499 346.961 94.8019 311.135 88.9733C307.716 88.417 306.087 89.6211 304.512 92.5208C286.79 125.155 268.936 157.717 251.129 190.305C249.239 193.764 247.425 197.265 245.187 201.477C297.124 209.847 348.339 218.101 400.33 226.42Z" fill="#000000"/>
<path d="M1712.07 318.896C1694.6 320.922 1678.48 326.508 1663.65 336.184C1641.02 350.947 1628.31 372.201 1622.2 397.889C1619.61 408.746 1617.82 419.734 1620.57 430.921C1621.5 434.675 1620.23 436.451 1615.96 437.095C1590.19 440.978 1564.47 445.172 1538.75 449.324C1512.67 453.532 1486.62 457.859 1460.54 462.046C1432.52 466.545 1404.47 470.891 1376.45 475.397C1354.81 478.876 1333.19 482.524 1311.56 486.049C1290.91 489.415 1270.23 492.634 1249.6 496.125C1245.83 496.764 1244.36 495.303 1243.66 492.028C1240.2 475.997 1233.51 461.353 1223.31 448.606C1215.3 438.59 1205.52 430.095 1194.11 424.19C1179.87 416.828 1164.6 411.671 1148.48 411.307C1133.6 410.971 1119.13 414.494 1105.21 419.971C1089.99 425.963 1077.48 435.874 1067.12 448.138C1058.17 458.736 1052.14 471.208 1048.27 484.704C1044.6 497.492 1044.02 510.463 1044.68 523.591C1044.88 527.653 1043.6 528.573 1039.51 526.753C1031.44 523.165 1023.5 519.302 1015.37 515.891C1013.48 515.099 1010.53 514.804 1008.91 515.74C996.666 522.818 984.635 530.259 972.117 537.487C971.13 534.868 970.076 532.349 970.072 529.829C969.971 472.17 969.984 414.51 969.976 356.85C975.335 349.701 980.63 342.502 986.076 335.418C989.716 330.684 993.421 325.978 997.44 321.572C998.358 320.567 1001.12 320.044 1002.31 320.67C1015.27 327.477 1028.2 334.357 1040.86 341.687C1044.61 343.857 1046.66 343.419 1049.18 340.269C1057.39 330.031 1065.88 320.021 1074.01 309.724C1076.39 306.699 1078.6 306.092 1082.11 307.487C1094.62 312.458 1107.22 317.218 1119.8 322.026C1126.44 324.565 1127.33 323.922 1129.21 317.583C1131.51 309.81 1134.15 302.127 1136.96 294.524C1137.55 292.935 1139.31 291.161 1140.91 290.663C1156.29 285.852 1171.77 281.367 1187.18 276.644C1200.06 272.696 1212.86 268.518 1225.73 264.521C1229.85 263.241 1234.05 262.214 1239.02 261.074C1249.07 262.03 1258.31 262.983 1267.22 263.903C1268.03 261.071 1268.62 259.026 1269.47 256.794C1270.43 254.04 1271.12 251.471 1271.84 248.573C1271.99 247.822 1272.12 247.4 1272.51 246.781C1273.81 243.855 1274.84 241.127 1275.6 238.104C1275.62 236.533 1275.91 235.256 1276.47 233.794C1277.42 231.031 1278.1 228.455 1278.81 225.552C1278.98 224.81 1279.11 224.394 1279.5 223.79C1280.45 221.035 1281.13 218.469 1281.84 215.536C1282.32 213.773 1282.76 212.377 1283.47 210.794C1284.42 208.031 1285.1 205.455 1285.81 202.552C1285.98 201.81 1286.11 201.394 1286.5 200.789C1287.45 198.035 1288.13 195.469 1288.84 192.536C1289.32 190.773 1289.76 189.377 1290.47 187.794C1291.42 185.031 1292.1 182.455 1292.81 179.552C1292.98 178.81 1293.11 178.394 1293.5 177.789C1294.45 175.035 1295.13 172.469 1295.84 169.536C1296.32 167.773 1296.76 166.377 1297.47 164.794C1298.42 162.031 1299.1 159.455 1299.81 156.552C1299.98 155.81 1300.11 155.394 1300.5 154.789C1301.45 152.035 1302.13 149.469 1302.84 146.536C1303.31 144.774 1303.75 143.377 1304.45 141.817C1305.1 140.085 1305.5 138.518 1305.64 136.676C1303.16 135.973 1300.94 135.539 1298.72 135.122C1294.81 134.389 1290.91 133.667 1287 132.941C1289.28 130.508 1291.17 127.474 1293.9 125.743C1310.21 115.377 1328.25 108.8 1346.72 103.726C1370.59 97.17 1394.52 90.5151 1418.79 85.8123C1449.3 79.9001 1480.09 75.1755 1510.94 71.3593C1532.65 68.6744 1554.64 68.2621 1576.51 67.0114C1600.85 65.62 1624.92 67.2312 1648.78 72.7122C1658.89 75.0347 1666.4 80.8746 1673.84 87.3172C1684.5 96.5495 1695.28 105.65 1705.86 114.963C1717.32 125.035 1728.56 135.347 1740 145.437C1747.35 151.921 1754.95 158.117 1762.32 164.582C1769.02 170.461 1775.49 176.602 1782.21 182.456C1783.61 183.672 1785.63 184.735 1787.42 184.844C1801.51 185.701 1815.61 186.285 1829.71 186.999C1842.82 187.662 1855.98 187.944 1869.01 189.345C1872.87 189.76 1876.84 192.881 1879.97 195.646C1895.53 209.355 1904.08 227.487 1909.54 246.861C1913.86 262.155 1916.12 278.026 1919.34 293.632C1919.49 294.378 1920.06 295.038 1920.72 295.869C1921 313.687 1921 331.375 1921 349.531C1919.52 354.967 1918.34 360.05 1916.49 364.874C1913.94 371.517 1911.09 378.069 1907.95 384.454C1906.23 387.958 1903.25 390.025 1898.98 390.705C1874.08 394.676 1849.21 398.869 1824.35 403.132C1820.52 403.789 1819.45 402.262 1818.82 398.818C1815.98 383.345 1809.43 369.509 1799.87 357.046C1782.35 334.22 1758.46 323.039 1730.05 318.661C1723.61 316.473 1717.77 315.596 1712.07 318.896ZM1550.64 222.279C1552.77 221.89 1554.91 221.501 1557.67 221.399C1559.44 220.982 1561.21 220.564 1563.63 219.971C1564.07 219.953 1564.51 219.936 1565.48 220.217C1566.65 219.869 1567.82 219.52 1569.64 219.011C1570.09 218.997 1570.54 218.983 1571.51 219.256C1572.67 218.901 1573.83 218.546 1575.64 218.017C1576.09 218.001 1576.54 217.984 1577.51 218.256C1578.66 217.917 1579.82 217.577 1581.63 217.253C1586.41 216.475 1591.18 215.696 1596.48 215.217C1597.65 214.866 1598.82 214.515 1600.7 213.987C1601.43 213.933 1602.17 213.878 1603.36 214.099C1604.24 213.792 1605.11 213.486 1606.7 212.992C1607.43 212.936 1608.17 212.88 1609.36 213.099C1610.24 212.797 1611.11 212.494 1612.74 211.991C1613.78 211.913 1614.82 211.835 1616.24 211.963C1616.82 211.721 1617.4 211.48 1618.66 211.287C1621.42 210.83 1624.19 210.374 1627.49 210.218C1628.65 209.867 1629.82 209.515 1631.64 209.001C1632.08 208.983 1632.53 208.965 1633.5 209.239C1634.66 208.884 1635.82 208.528 1637.64 208.011C1638.09 207.997 1638.54 207.983 1639.51 208.256C1640.67 207.902 1641.83 207.547 1643.64 207.018C1644.09 207.001 1644.54 206.985 1645.51 207.256C1646.66 206.917 1647.82 206.577 1649.63 206.273C1651.77 205.886 1653.9 205.499 1656.67 205.399C1658.44 204.981 1660.21 204.564 1662.63 203.971C1663.07 203.953 1663.51 203.936 1664.48 204.217C1665.65 203.866 1666.82 203.515 1668.64 203.008C1669.09 202.995 1669.54 202.982 1670.51 203.256C1671.67 202.899 1672.83 202.541 1674.67 201.971C1678.81 200.924 1676.04 198.452 1675.34 197.087C1671.15 188.984 1666.71 181.017 1662.33 173.013C1647.46 145.813 1632.55 118.636 1617.76 91.396C1615.95 88.0627 1613.27 87.7651 1610.2 88.3321C1601.99 89.8427 1593.84 91.612 1585.62 93.0269C1576.07 94.6714 1566.48 96.0976 1556.89 97.5168C1553.15 98.0705 1549.33 98.1707 1545.61 98.7892C1539.12 99.8658 1532.68 101.258 1526.2 102.383C1517.87 103.829 1509.51 105.141 1501.1 106.52C1501.85 111.216 1502.47 115.086 1502.78 119.485C1503.13 120.651 1503.48 121.818 1504 123.635C1504.02 124.081 1504.03 124.527 1503.76 125.5C1504.12 126.661 1504.47 127.822 1504.99 129.639C1505 130.087 1505.02 130.536 1504.74 131.511C1505.1 132.668 1505.45 133.825 1506.01 135.811C1506.64 139.888 1507.26 143.964 1507.6 148.666C1508.02 150.439 1508.44 152.212 1509.03 154.628C1509.05 155.071 1509.06 155.514 1508.78 156.485C1509.13 157.651 1509.48 158.817 1509.99 160.64C1510 161.088 1510.02 161.536 1509.74 162.512C1510.1 163.669 1510.46 164.826 1510.99 166.638C1511 167.087 1511.02 167.535 1510.74 168.511C1511.1 169.668 1511.45 170.825 1512.01 172.819C1512.7 177.531 1513.39 182.244 1513.78 187.485C1514.13 188.651 1514.48 189.817 1515 191.635C1515.02 192.081 1515.03 192.527 1514.76 193.5C1515.12 194.661 1515.47 195.822 1515.99 197.639C1516 198.087 1516.02 198.536 1515.74 199.511C1516.1 200.668 1516.45 201.825 1517.02 203.817C1518.25 211.615 1519.48 219.414 1520.71 227.193C1523.82 226.646 1525.89 226.282 1528.49 226.218C1529.65 225.867 1530.82 225.515 1532.64 225.001C1533.08 224.983 1533.53 224.965 1534.5 225.239C1535.66 224.884 1536.82 224.528 1538.64 224.011C1539.09 223.997 1539.54 223.983 1540.51 224.256C1541.67 223.901 1542.83 223.547 1544.74 222.992C1545.78 222.913 1546.82 222.835 1548.24 222.963C1548.82 222.721 1549.4 222.48 1550.64 222.279ZM1352.3 131.022C1351.57 131.073 1350.83 131.124 1349.64 130.901C1348.76 131.207 1347.89 131.514 1346.3 132.008C1345.57 132.064 1344.83 132.12 1343.64 131.901C1342.76 132.203 1341.89 132.505 1340.26 133.008C1339.22 133.087 1338.18 133.165 1336.76 133.036C1336.18 133.278 1335.6 133.52 1334.18 133.952C1329.78 135.379 1324.33 133.378 1320.35 138.407C1318.29 145.636 1316.24 152.866 1314.13 160.755C1314 161.177 1313.88 161.6 1313.23 162.4C1312.55 164.965 1311.86 167.53 1311.13 170.755C1311 171.177 1310.88 171.599 1310.23 172.4C1309.55 174.965 1308.86 177.53 1308.13 180.755C1308 181.177 1307.88 181.599 1307.22 182.418C1306.18 185.143 1305.15 187.869 1304.6 191.245C1303.55 194.849 1302.5 198.454 1300.98 202.484C1297.89 212.052 1294.78 221.616 1291.74 231.203C1291.57 231.734 1292.02 232.46 1292.13 233.755C1292 234.177 1291.88 234.599 1291.23 235.4C1290.55 237.965 1289.86 240.53 1289.13 243.755C1289 244.177 1288.88 244.599 1288.23 245.4C1287.55 247.965 1286.86 250.53 1286.13 253.755C1286 254.177 1285.88 254.599 1285.23 255.4C1284.54 257.959 1283.85 260.518 1283.2 263.744C1283.85 264.327 1284.6 265.49 1285.14 265.4C1288.8 264.788 1292.41 263.912 1296.67 263.405C1298.44 262.986 1300.21 262.567 1302.63 261.971C1303.07 261.953 1303.51 261.936 1304.48 262.217C1305.65 261.869 1306.82 261.52 1308.64 261.011C1309.09 260.997 1309.54 260.983 1310.51 261.256C1311.67 260.901 1312.83 260.546 1314.64 260.017C1315.09 260.001 1315.54 259.984 1316.51 260.256C1317.67 259.902 1318.83 259.547 1320.74 258.993C1321.78 258.914 1322.82 258.835 1324.24 258.963C1324.82 258.721 1325.4 258.48 1326.63 258.273C1328.77 257.886 1330.9 257.499 1333.67 257.399C1335.44 256.981 1337.21 256.564 1339.63 255.971C1340.07 255.953 1340.51 255.936 1341.48 256.217C1342.65 255.869 1343.82 255.52 1345.64 255.011C1346.09 254.997 1346.54 254.983 1347.51 255.256C1348.67 254.897 1349.83 254.538 1351.7 253.994C1352.44 253.948 1353.18 253.902 1354.38 254.124C1355.25 253.814 1356.12 253.503 1357.74 252.993C1358.78 252.914 1359.82 252.835 1361.24 252.963C1361.82 252.721 1362.4 252.48 1363.64 252.278C1365.77 251.89 1367.91 251.501 1370.73 251.412C1374.48 250.662 1378.23 249.913 1382.64 249.008C1383.09 248.995 1383.54 248.982 1384.51 249.256C1385.67 248.897 1386.83 248.538 1388.64 248.013C1389.09 247.998 1389.54 247.983 1390.51 248.256C1391.67 247.902 1392.83 247.547 1394.74 246.991C1395.78 246.913 1396.82 246.835 1398.24 246.963C1398.82 246.721 1399.4 246.48 1400.66 246.287C1403.42 245.83 1406.19 245.374 1409.49 245.217C1410.65 244.861 1411.82 244.505 1413.63 243.972C1414.07 243.954 1414.51 243.936 1415.48 244.217C1416.65 243.866 1417.82 243.515 1419.64 243.008C1420.09 242.995 1420.54 242.982 1421.51 243.256C1422.67 242.897 1423.83 242.538 1425.64 242.013C1426.09 241.998 1426.54 241.983 1427.51 242.256C1428.67 241.902 1429.83 241.547 1431.74 240.991C1432.78 240.913 1433.82 240.835 1435.24 240.963C1435.82 240.721 1436.4 240.479 1437.81 240.079C1440.53 239.692 1443.24 239.305 1446.49 239.217C1447.65 238.861 1448.82 238.505 1450.63 237.972C1451.07 237.954 1451.51 237.936 1452.48 238.218C1453.65 237.866 1454.82 237.515 1456.64 237.008C1457.09 236.995 1457.54 236.982 1458.51 237.256C1459.67 236.897 1460.83 236.538 1462.64 236.013C1463.09 235.998 1463.54 235.983 1464.51 236.256C1465.67 235.902 1466.83 235.547 1468.74 234.993C1469.78 234.914 1470.82 234.835 1472.24 234.963C1472.82 234.721 1473.4 234.479 1474.8 234.078C1483.33 232.886 1491.86 231.693 1501.08 230.405C1494.63 189.611 1488.39 150.038 1482.02 109.747C1475.46 110.884 1469.71 111.882 1463.33 112.594C1461.56 113.013 1459.79 113.432 1457.37 114.028C1456.93 114.046 1456.49 114.064 1455.52 113.782C1454.35 114.131 1453.18 114.479 1451.36 114.989C1450.91 115.003 1450.46 115.017 1449.49 114.743C1448.33 115.098 1447.17 115.453 1445.36 115.983C1444.91 115.999 1444.46 116.015 1443.49 115.743C1442.33 116.092 1441.18 116.441 1439.26 116.991C1438.22 117.075 1437.18 117.159 1435.76 117.036C1435.18 117.278 1434.6 117.52 1433.2 117.951C1430.48 118.328 1427.76 118.705 1424.51 118.782C1423.35 119.133 1422.18 119.484 1420.3 120.022C1419.57 120.073 1418.83 120.124 1417.64 119.901C1416.76 120.21 1415.89 120.519 1414.3 121.01C1413.57 121.065 1412.83 121.12 1411.64 120.901C1410.76 121.203 1409.89 121.505 1408.26 122.007C1407.22 122.086 1406.18 122.164 1404.76 122.036C1404.18 122.278 1403.6 122.52 1402.23 122.949C1400.14 123.262 1398.05 123.574 1395.33 123.601C1393.56 124.018 1391.79 124.436 1389.37 125.029C1388.93 125.046 1388.49 125.064 1387.52 124.782C1386.35 125.131 1385.18 125.479 1383.36 125.989C1382.91 126.003 1382.46 126.017 1381.49 125.743C1380.33 126.102 1379.17 126.461 1377.36 126.987C1376.91 127.001 1376.46 127.016 1375.49 126.743C1374.33 127.083 1373.18 127.422 1371.2 127.959C1366.48 128.666 1361.76 129.374 1356.51 129.782C1355.35 130.133 1354.18 130.484 1352.3 131.022Z" fill="#000000"/>
<path d="M197.171 597.038C189.741 583.258 193.547 563.695 204.249 551.096C223.34 528.62 259.499 524.037 284.066 536.559C287.205 538.159 288.826 537.4 291.287 535.266C304.027 524.214 318.541 516.98 336.532 516.032C343.222 515.84 349.069 515.544 354.916 515.249C365.906 516.743 376.559 519.457 386.219 525.049C393.778 529.424 401.214 534.044 406.274 541.565C408.144 544.344 410.361 545.28 414.237 544.149C425.951 540.731 437.918 540.375 449.756 543.925C452.376 544.711 454.06 544.296 456.181 542.367C467.053 532.476 479.992 527.574 494.685 526.903C511.399 526.141 526.657 530.163 539.197 541.392C544.243 545.91 547.667 552.22 551.968 557.603C552.768 558.605 554.366 559.854 555.364 559.678C569.979 557.094 583.424 559.435 594.774 569.399C597.897 572.14 600.648 575.899 602.143 579.745C603.939 584.365 606.737 586.198 611.295 586.787C629.059 589.084 646.803 591.545 664.558 593.919C673.522 595.118 682.494 596.261 691.749 598.147C692.023 599.909 692.012 600.955 692 602C691.555 602 691.111 602 689.999 601.87C687.092 598.678 685.046 600.346 683 602C680.629 602 678.259 602 675.085 601.849C671.813 601.128 669.344 600.061 666.875 600.06C513.172 599.981 359.468 599.989 205.765 599.997C203.435 599.997 201.105 600.102 198.775 600.158C198.775 600.158 198.86 600.128 198.835 599.854C198.264 598.732 197.717 597.885 197.171 597.038Z" fill="#000000"/>
<path d="M1225.02 598.081C1231.26 597.031 1237.48 595.865 1243.74 594.955C1257.56 592.947 1271.4 591.059 1285.23 589.14C1293.05 588.055 1300.89 587.135 1308.68 585.827C1310.2 585.57 1312.22 584.17 1312.77 582.8C1318.41 568.741 1333.07 558.707 1348.23 559.004C1352.67 559.091 1357.11 559.703 1361.56 559.732C1362.68 559.739 1364.34 558.696 1364.85 557.681C1375.71 536.438 1393.91 527.809 1416.83 526.921C1433.09 526.292 1447.36 531.287 1459.73 541.68C1462.57 544.066 1464.97 544.182 1468.52 543.321C1479.73 540.602 1491.09 540.671 1502.19 544.038C1505.9 545.162 1507.65 544.496 1510.26 541.416C1521.2 528.505 1535.29 520.482 1551.87 516.978C1554.75 516.368 1557.74 516.266 1561.53 516.033C1568.22 515.841 1574.07 515.546 1579.92 515.251C1592.73 517.091 1604.96 520.614 1615.81 527.915C1620.43 531.023 1624.5 536.483 1629.38 537.236C1634.01 537.95 1639.22 533.242 1644.44 532.07C1669.06 526.536 1691.78 530.199 1710.13 548.729C1723.14 561.863 1727.45 580.73 1718.8 598.854C1718.39 599.646 1718.2 599.871 1717.97 600.073C1717.97 600.073 1718.07 599.983 1717.63 600.005C1576.91 600.015 1436.62 600.002 1296.34 599.99C1281.17 599.989 1266.01 599.907 1250.85 600.08C1248.56 600.107 1246.28 601.33 1244 602C1241.3 602 1238.6 602 1235.1 601.858C1232.74 601.141 1231.17 600.592 1229.63 599.987C1228.08 599.381 1226.55 598.719 1225.02 598.081Z" fill="#000000"/>
<path d="M765.468 602C763.744 601.353 762.554 600.469 761.222 600.102C755.623 598.559 749.991 597.134 744.351 595.748C742.479 595.288 740.448 595.341 738.666 594.682C736.435 593.858 734.27 592.715 732.294 591.386C730.703 590.316 729.591 588.529 727.994 587.473C723.416 584.444 718.254 582.134 714.175 578.565C710.871 575.674 708.965 571.242 706.163 567.713C691.624 549.401 685.377 528.397 687.146 505.336C688.371 489.366 694.156 474.727 703.097 461.228C706.232 456.495 710.682 453.393 714.118 449.201C717.213 445.424 720.723 442.34 724.879 439.772C727.463 438.175 729.486 435.693 731.88 433.754C733.02 432.831 734.352 431.921 735.741 431.565C743.702 429.528 751.654 427.399 759.705 425.783C782.317 421.244 803.247 425.995 822.775 437.818C827.759 440.836 832.722 443.893 837.615 447.054C838.846 447.85 839.998 448.969 840.796 450.194C843.705 454.655 846.338 459.296 849.273 463.738C860.197 480.274 865.217 498.532 863.909 518.179C862.639 537.244 855.718 554.355 843.472 569.219C841.453 571.67 840.524 575.135 838.263 577.241C835.601 579.719 831.847 580.976 828.897 583.201C816.99 592.184 803.829 598.077 789.005 600.16C788.092 600.289 787.255 600.96 786.191 601.689C779.312 602 772.625 602 765.468 602ZM808.187 467.264C806.94 466.435 805.722 465.558 804.441 464.785C782.489 451.536 754.666 454.407 736.554 471.777C718.085 489.49 713.767 516.796 725.897 539.18C738.039 561.586 763.361 573.108 788.226 566.804C810.101 561.258 824.497 547.26 829.588 525.21C834.964 501.92 827.546 482.582 808.187 467.264Z" fill="#000000"/>
<path d="M1135.47 602C1133.58 601.325 1132.22 600.482 1130.74 600.006C1124.74 598.079 1118.8 595.776 1112.66 594.529C1104.44 592.861 1099.05 586.86 1092.45 582.705C1089.17 580.641 1084.9 579.265 1082.83 576.34C1073.86 563.708 1065.03 550.944 1061.02 535.559C1053.98 508.558 1058.7 483.543 1074.65 461.094C1089.71 439.894 1110.7 428.001 1136.78 424.749C1150.41 423.049 1163.19 425.38 1175.97 429.382C1178.9 430.297 1182.02 430.555 1185.03 431.212C1185.98 431.42 1187.01 431.755 1187.74 432.355C1197.05 439.995 1207.2 446.872 1215.27 455.655C1220.99 461.886 1224.54 470.439 1227.95 478.427C1239.86 506.322 1236.55 533.333 1221.92 559.335C1219.04 564.448 1215.98 569.527 1212.37 574.128C1210.49 576.524 1207.16 577.741 1204.62 579.673C1199.64 583.462 1194.82 587.456 1189.82 591.203C1187.91 592.63 1185.8 594.091 1183.56 594.712C1174.88 597.115 1166.12 599.184 1157.19 601.689C1149.98 602 1142.96 602 1135.47 602ZM1188.86 474.655C1170.19 455.339 1143.41 450.942 1120.24 463.389C1098.3 475.176 1087.18 499.703 1092.6 524.345C1097.61 547.112 1116.03 564.455 1138.79 567.83C1162.26 571.31 1184.91 560.3 1196.19 539.927C1207.89 518.793 1205.25 493.939 1188.86 474.655Z" fill="#000000"/>
<path d="M198.982 600.449C201.105 600.102 203.435 599.997 205.765 599.997C359.468 599.989 513.172 599.981 666.875 600.06C669.344 600.062 671.813 601.129 674.641 601.849C517.313 602 359.625 602 201.469 602C200.396 601.58 199.793 601.16 198.982 600.449Z" fill="#000000"/>
<path d="M1244.47 601.999C1246.28 601.33 1248.56 600.106 1250.85 600.08C1266.01 599.906 1281.17 599.988 1296.34 599.989C1436.62 600.001 1576.91 600.014 1717.68 600.051C1717.35 600.495 1716.54 600.914 1715.86 601.666C1558.98 601.999 1401.96 601.999 1244.47 601.999Z" fill="#000000"/>
<path d="M1224.58 598.073C1226.55 598.719 1228.08 599.381 1229.63 599.987C1231.17 600.592 1232.74 601.141 1234.65 601.857C1228.65 602 1222.29 602 1215.6 601.712C1214.85 601.616 1214.42 601.808 1214 602C1214 602 1213.5 602 1213.19 601.689C1212.59 601.585 1212.3 601.793 1212 602C1211.25 602 1210.5 602 1209.38 602C1209.81 601.013 1210.52 599.3 1211.46 599.163C1215.65 598.552 1219.9 598.39 1224.58 598.073Z" fill="#000000"/>
<path d="M692.454 602C692.012 600.955 692.023 599.91 692.01 598.469C696.626 598.409 701.271 598.703 705.899 599.167C706.246 599.202 706.47 600.454 706.876 601.57C706.555 602 706.111 602 705.469 601.713C704.847 601.617 704.424 601.809 704 602C704 602 703.5 602 703.194 601.689C702.592 601.586 702.296 601.793 702 602C698.969 602 695.939 602 692.454 602Z" fill="#000000"/>
<path d="M683.438 602C685.046 600.346 687.092 598.678 689.666 601.87C687.958 602 685.917 602 683.438 602Z" fill="#000000"/>
<path d="M1807.75 403.522C1809.8 417.221 1810.55 430.624 1806 443.406C1802.58 453.03 1797.77 462.2 1793.09 471.326C1790.77 475.856 1787.88 480.354 1784.3 483.911C1780.8 487.389 1776.01 489.53 1771.93 492.471C1756.27 503.767 1738.55 508.949 1719.53 508.913C1702.75 508.882 1687.18 503.637 1672.91 494.705C1669.34 492.473 1665.45 490.717 1662.1 488.22C1660.23 486.827 1659.38 484.142 1657.69 482.407C1642.9 467.191 1634.9 449.049 1632.79 427.92C1630.76 407.676 1635.96 389.522 1646.58 372.57C1650.37 366.518 1654.8 361.136 1660.03 356.123C1676.17 340.659 1695.42 333.129 1717.4 331.983C1738.33 330.891 1756.69 337.817 1774.11 349.193C1779.63 352.798 1782.42 359.208 1788.85 361.297C1794.48 373.183 1803.55 383.403 1806.04 396.821C1806.43 398.942 1807.1 401.012 1807.75 403.522ZM1671.64 394.26C1665.69 405.724 1663.83 417.784 1665.93 430.561C1670.41 457.781 1696.11 478.19 1723.95 476.471C1753.1 474.672 1776.07 451.663 1776.99 423.351C1777.86 396.422 1761.71 373.906 1736.34 366.673C1711.12 359.48 1685.52 370.191 1671.64 394.26Z" fill="#000000"/>
<path d="M244.198 340.782C249.725 345.19 255.11 349.202 260.255 353.502C263.22 355.979 265.946 358.789 268.497 361.697C270.326 363.782 271.634 366.315 273.265 368.583C289.524 391.191 294.275 416.183 286.983 442.865C284.359 452.467 279.054 461.423 274.359 470.351C268.709 481.098 258.928 488.021 249.287 494.736C238.169 502.481 225.506 506.417 212.068 508.079C187.855 511.074 166.413 504.401 147.198 489.81C142.775 486.451 137.31 483.673 134.401 479.259C124.932 464.892 116.203 450.08 113.919 432.377C111.425 413.045 114.715 394.818 124.161 378.017C128.332 370.599 134.288 364.09 139.953 357.623C151.57 344.363 166.948 337.284 183.721 333.61C200.453 329.945 217.115 331.386 233.277 337.51C236.721 338.815 240.391 339.523 244.198 340.782ZM148.015 437.295C148.705 439.169 149.311 441.08 150.1 442.911C161.431 469.204 190.501 482.491 218.115 474.024C245.104 465.748 261.732 438.383 256.56 410.753C250.564 378.72 220.226 358.693 188.786 366.014C157.112 373.389 138.986 404.572 148.015 437.295Z" fill="#000000"/>
<path d="M1029.87 19.9723C1029.92 20.7423 1029.98 21.5123 1029.94 22.7738C1029.8 23.4789 1029.75 23.6953 1029.71 23.9144C1029.49 26.3794 1029.16 28.8402 1029.07 31.3101C1028.37 49.0467 1027.79 66.7879 1027.04 84.5219C1026.49 97.4336 1025.76 110.338 1025.06 123.243C1023.95 143.589 1022.8 163.932 1021.6 185.362C1004.99 183.28 988.345 181.194 971.341 179.063C970.557 187.702 969.637 196.029 969.079 204.38C967.965 221.041 967.123 237.719 966.031 254.381C965.147 267.875 964.093 281.358 963.05 294.842C962.659 299.887 962.085 304.918 960.733 310.033C954.11 252.921 947.488 195.808 940.711 137.371C959.577 141.5 977.767 145.48 996.258 149.527C999.184 136.688 1002.06 124.119 1004.91 111.545C1011.43 82.8049 1017.94 54.0616 1024.47 25.3234C1024.83 23.7499 1025.34 22.2112 1026.34 20.3096C1027.9 19.9661 1028.88 19.9692 1029.87 19.9723Z" fill="#000000"/>
<path d="M888.956 207.83C890.493 206.151 892.03 204.471 894.098 202.211C897.95 210.642 901.546 218.443 905.084 226.27C913.94 245.855 922.789 265.444 931.599 285.05C934.151 290.728 936.563 296.469 938.851 302.793C937.723 304.286 936.782 305.167 935.842 306.048C935.517 306.036 935.266 305.894 934.874 305.23C934.503 304.569 934.337 304.306 934.159 304.05C923.399 288.369 912.662 272.672 901.861 257.02C899.462 253.543 896.838 250.221 894.186 246.651C880.539 259.746 867.407 272.349 854.019 285.198C845.585 269.735 837.308 254.617 829.085 239.47C814.573 212.742 800.053 186.018 785.617 159.249C777.66 144.495 769.866 129.654 761.957 114.148C762.321 111.935 762.725 110.424 763.13 108.913C763.13 108.913 763.055 108.998 763.169 109.12C763.456 109.487 763.64 109.722 763.836 109.949C773.18 123.051 782.547 136.136 791.862 149.259C810.556 175.596 829.224 201.951 847.896 228.303C850.429 231.879 852.922 235.484 855.855 239.676C866.281 229.564 876.251 219.894 886.804 209.955C887.909 209.068 888.433 208.449 888.956 207.83Z" fill="#000000"/>
<path d="M990.038 295.176C990.024 295.505 989.876 295.754 989.099 296.153C988.088 297.301 987.573 298.221 987.058 299.141C987.058 299.141 987.046 299.032 986.815 299.196C986.07 300.298 985.557 301.235 985.045 302.173C985.023 302.504 984.871 302.755 984.06 303.13C982.417 304.977 981.3 306.62 980.183 308.264C980.183 308.264 980.619 308.455 980.302 308.432C979.957 305.92 979.929 303.431 979.9 300.943C985.491 288.163 990.991 275.342 996.692 262.611C1005.61 242.696 1014.66 222.842 1024.1 201.977C1037.06 214.465 1049.71 226.654 1062.58 239.058C1074.12 222.704 1085.38 206.725 1096.67 190.767C1113.65 166.764 1130.64 142.77 1147.65 118.789C1149.63 115.989 1151.77 113.299 1154.15 110.075C1154.61 109.341 1154.8 109.117 1155.03 108.922C1155.03 108.922 1154.95 108.995 1155.21 109.169C1156.01 110.429 1156.53 111.514 1157.06 112.6C1152.43 121.483 1147.9 130.416 1143.16 139.241C1131.17 161.562 1119.09 183.834 1107.05 206.126C1093.59 231.043 1080.13 255.962 1066.65 280.867C1066.03 281.997 1065.17 282.989 1064.17 284.407C1050.81 271.588 1037.67 258.979 1024.38 246.229C1014.28 260.706 1004.23 275.115 994.165 289.511C993.219 290.864 992.159 292.136 990.867 293.945C990.444 294.721 990.263 294.965 990.038 295.176Z" fill="#000000"/>
<path d="M683.015 259.617C674.519 261.192 665.874 262.567 657.179 263.452C656.317 263.54 654.707 260.777 654.192 259.107C646.895 235.443 639.733 211.737 632.529 188.045C627.361 171.048 622.18 154.055 616.775 136.307C623.554 135.447 629.881 134.645 636.64 133.722C638.366 135.298 640.21 136.805 640.875 138.72C653.767 175.849 666.513 213.028 679.32 250.185C680.379 253.257 681.669 256.25 683.015 259.617Z" fill="white"/>
<path d="M1269.21 256.98C1268.62 259.026 1268.03 261.071 1267.22 263.903C1258.31 262.983 1249.07 262.03 1239.41 261.038C1245.96 241.232 1252.94 221.468 1259.89 201.694C1267.55 179.892 1275.15 158.068 1282.92 136.302C1283.4 134.951 1285.09 134.029 1286.61 132.924C1290.91 133.667 1294.81 134.39 1298.72 135.122C1300.94 135.539 1303.16 135.973 1305.45 136.951C1305.08 138.994 1304.64 140.488 1304.2 141.981C1303.75 143.378 1303.31 144.774 1302.65 146.829C1301.7 149.985 1300.97 152.482 1300.24 154.979C1300.11 155.394 1299.98 155.81 1299.63 156.851C1298.68 159.978 1297.94 162.479 1297.21 164.98C1296.76 166.377 1296.32 167.773 1295.65 169.829C1294.7 172.985 1293.97 175.482 1293.24 177.978C1293.11 178.394 1292.98 178.81 1292.63 179.851C1291.68 182.978 1290.94 185.479 1290.21 187.98C1289.76 189.377 1289.32 190.773 1288.65 192.829C1287.7 195.985 1286.97 198.482 1286.24 200.978C1286.11 201.394 1285.98 201.81 1285.63 202.851C1284.68 205.978 1283.94 208.479 1283.21 210.98C1282.76 212.377 1282.32 213.773 1281.65 215.828C1280.7 218.985 1279.97 221.482 1279.24 223.979C1279.11 224.394 1278.98 224.81 1278.63 225.851C1277.68 228.978 1276.94 231.479 1276.21 233.98C1275.91 235.257 1275.62 236.533 1275.23 238.205C1274.17 241.394 1273.21 244.186 1272.24 246.979C1272.12 247.4 1271.99 247.822 1271.65 248.865C1270.69 251.985 1269.95 254.482 1269.21 256.98Z" fill="white"/>
<path d="M969.687 357.122C969.984 414.51 969.971 472.169 970.072 529.829C970.076 532.349 971.13 534.868 971.813 537.632C969.306 539.611 967.929 539.051 968.013 535.758C968.038 534.76 968.003 533.761 968.003 532.763C968.003 476.854 967.985 420.946 968.062 365.038C968.066 362.489 968.933 359.942 969.687 357.122Z" fill="#000000"/>
<path d="M953.168 539.16C953.239 536.311 953.94 533.546 953.944 530.78C954.008 476.014 953.979 421.247 954.035 366.48C954.037 363.879 954.654 361.278 955.254 358.344C955.355 360.824 955.04 363.638 955.039 366.451C955.009 422 955.033 477.549 954.951 533.098C954.948 535.148 953.988 537.196 953.168 539.16Z" fill="#000000"/>
<path d="M762.96 108.61C762.725 110.424 762.321 111.935 761.942 113.787C757.348 106.003 752.73 97.8779 748.216 89.2319C748.448 88.5928 748.576 88.4741 748.703 88.3555C753.399 95.0062 758.095 101.657 762.96 108.61Z" fill="#000000"/>
<path d="M935.925 306.364C936.783 305.167 937.723 304.286 938.885 303.168C942.545 310.003 945.984 317.075 949.423 324.147C949.04 324.361 948.657 324.575 948.273 324.789C944.895 319.765 941.516 314.742 938.18 309.329C938.434 308.756 938.651 308.578 938.847 308.379C938.862 308.364 938.735 308.208 938.673 308.117C938.425 308.451 938.176 308.785 937.927 309.119C937.288 308.306 936.648 307.493 935.925 306.364Z" fill="#000000"/>
<path d="M979.601 301.132C979.929 303.432 979.957 305.92 980.207 308.651C976.894 314.153 973.359 319.413 969.824 324.673C969.527 324.532 969.23 324.391 968.933 324.249C972.389 316.606 975.846 308.963 979.601 301.132Z" fill="#000000"/>
<path d="M1157.35 112.354C1156.54 111.514 1156.01 110.429 1155.18 109.127C1158.97 103.059 1163.07 97.2088 1167.16 91.3584C1167.6 91.6132 1168.04 91.8679 1168.48 92.1227C1164.86 98.7847 1161.25 105.447 1157.35 112.354Z" fill="#000000"/>
<path d="M1029.92 19.5127C1028.88 19.97 1027.9 19.9669 1026.54 19.9644C1027.24 14.3159 1028.31 8.66675 1029.38 3.01758C1029.57 3.05971 1029.77 3.10184 1029.96 3.14397C1029.96 8.44678 1029.96 13.7496 1029.92 19.5127Z" fill="#000000"/>
<path d="M348.891 64.002C351.987 64.002 354.603 64.002 357.219 64.002C357.217 64.2456 357.215 64.4892 357.213 64.7327C343.4 64.7327 329.587 64.7327 315.774 64.7327C315.771 64.4891 315.769 64.2456 315.766 64.002C326.648 64.002 337.53 64.002 348.891 64.002Z" fill="#000000"/>
<path d="M1575.07 64.9979C1571.64 64.9979 1568.7 64.9979 1565.75 64.9979C1565.76 64.7509 1565.76 64.5039 1565.76 64.2568C1579.26 64.2568 1592.75 64.2568 1606.25 64.2568C1606.25 64.5039 1606.25 64.7509 1606.26 64.9979C1596.02 64.9979 1585.79 64.9979 1575.07 64.9979Z" fill="#000000"/>
<path d="M1712.53 318.919C1717.77 315.597 1723.61 316.474 1729.7 318.609C1724.28 318.912 1718.64 318.927 1712.53 318.919Z" fill="#000000"/>
<path d="M1579.47 515.154C1574.07 515.545 1568.22 515.84 1561.94 516.008C1567.35 515.607 1573.18 515.332 1579.47 515.154Z" fill="#000000"/>
<path d="M354.462 515.153C349.069 515.544 343.222 515.84 336.945 516.008C342.347 515.607 348.178 515.332 354.462 515.153Z" fill="#000000"/>
<path d="M980.559 308.263C981.3 306.621 982.417 304.977 983.838 303.185C983.074 304.777 982.005 306.52 980.559 308.263Z" fill="#000000"/>
<path d="M985.321 302.007C985.558 301.236 986.071 300.298 986.87 299.19C986.636 299.96 986.116 300.9 985.321 302.007Z" fill="#000000"/>
<path d="M987.348 298.982C987.573 298.222 988.088 297.301 988.882 296.211C988.653 296.968 988.145 297.896 987.348 298.982Z" fill="#000000"/>
<path d="M1169.34 88.3139C1169.99 87.2659 1170.64 86.2179 1171.29 85.1699C1171.51 85.2678 1171.72 85.3656 1171.93 85.4634C1171.5 86.5612 1171.07 87.6589 1170.17 88.7221C1169.58 88.563 1169.46 88.4384 1169.34 88.3139Z" fill="#000000"/>
<path d="M197.12 597.363C197.717 597.886 198.264 598.732 198.85 599.897C198.283 599.372 197.676 598.53 197.12 597.363Z" fill="#000000"/>
<path d="M747.394 89.5444C747.047 88.412 746.7 87.2795 746.353 86.1471C746.525 86.0496 746.698 85.952 746.87 85.8545C747.34 86.5016 747.81 87.1488 748.491 88.0755C748.576 88.4737 748.448 88.5924 748.129 88.8886C747.937 89.0663 747.454 89.1558 747.39 89.3568C747.326 89.5579 747.394 89.5444 747.394 89.5444Z" fill="#000000"/>
<path d="M1169.88 88.8745C1169.71 89.8707 1169.37 90.6798 1169.02 91.4888C1168.73 91.4163 1168.43 91.3438 1168.13 91.2713C1168.35 90.454 1168.58 89.6367 1169.07 88.5666C1169.46 88.4383 1169.58 88.5628 1169.88 88.8745Z" fill="#000000"/>
<path d="M888.658 207.945C888.433 208.449 887.909 209.068 887.103 209.82C887.334 209.323 887.847 208.691 888.658 207.945Z" fill="#000000"/>
<path d="M1154.79 108.996C1154.8 109.117 1154.61 109.341 1154.31 109.764C1154.29 109.647 1154.42 109.359 1154.79 108.996Z" fill="#000000"/>
<path d="M763.829 109.693C763.64 109.723 763.456 109.488 763.127 109.083C763.254 109.094 763.539 109.266 763.829 109.693Z" fill="#000000"/>
<path d="M990.262 295.058C990.263 294.966 990.445 294.722 990.709 294.255C990.72 294.357 990.603 294.648 990.262 295.058Z" fill="#000000"/>
<path d="M747.313 89.5901C747.257 89.5989 747.214 89.5756 747.283 89.5485C747.395 89.5446 747.327 89.5581 747.313 89.5901Z" fill="#000000"/>
<path d="M1718.22 600.001C1718.2 599.871 1718.39 599.646 1718.71 599.228C1718.73 599.348 1718.6 599.638 1718.22 600.001Z" fill="#000000"/>
<path d="M934.165 304.307C934.337 304.306 934.503 304.569 934.812 305.016C934.7 304.982 934.435 304.773 934.165 304.307Z" fill="#000000"/>
<path d="M1029.82 23.7089C1029.75 23.6954 1029.8 23.479 1029.87 23.1546C1029.89 23.044 1029.92 23.5033 1029.82 23.7089Z" fill="#000000"/>
<path d="M452.297 234.692C442.05 232.99 432.228 231.37 421.769 229.644C428.044 189.803 434.248 150.417 440.571 110.276C449.581 111.678 458.22 112.978 466.844 114.37C509.744 121.292 552.634 128.276 595.548 135.113C599.271 135.706 601.186 137.06 602.334 140.923C614.046 180.342 626.003 219.688 637.873 259.061C638.377 260.731 638.698 262.456 639.293 264.949C576.544 254.8 514.634 244.788 452.297 234.692Z" fill="white"/>
<path d="M399.942 226.387C348.339 218.1 297.124 209.847 245.187 201.477C247.425 197.265 249.239 193.764 251.129 190.304C268.936 157.717 286.79 125.154 304.512 92.5204C306.087 89.6207 307.716 88.4167 311.135 88.9729C346.961 94.8015 382.808 100.498 418.646 106.25C419.282 106.352 419.881 106.683 420.978 107.083C419.541 116.255 418.141 125.426 416.662 134.584C412.045 163.185 407.427 191.786 402.701 220.369C402.355 222.46 401.14 224.407 399.942 226.387Z" fill="white"/>
<path d="M1296.04 263.121C1292.41 263.912 1288.8 264.788 1285.14 265.401C1284.6 265.49 1283.85 264.328 1283.38 263.125C1284.29 260.01 1285.02 257.516 1285.75 255.022C1285.88 254.6 1286 254.178 1286.35 253.133C1287.3 250.014 1288.02 247.518 1288.75 245.022C1288.88 244.6 1289 244.178 1289.35 243.133C1290.3 240.014 1291.03 237.518 1291.75 235.022C1291.88 234.6 1292 234.178 1292.35 233.125C1295.53 222.35 1298.49 212.204 1301.45 202.059C1302.5 198.454 1303.55 194.85 1304.73 190.82C1305.82 187.604 1306.79 184.813 1307.75 182.022C1307.88 181.6 1308 181.178 1308.35 180.133C1309.3 177.014 1310.02 174.518 1310.75 172.022C1310.88 171.6 1311 171.178 1311.35 170.133C1312.3 167.015 1313.03 164.518 1313.75 162.022C1313.88 161.6 1314 161.178 1314.35 160.126C1316.69 152.334 1318.8 145.173 1320.91 138.012C1324.33 133.379 1329.78 135.379 1334.89 133.879C1336.1 133.619 1336.62 133.431 1337.14 133.244C1338.18 133.165 1339.22 133.087 1340.96 132.92C1342.47 132.613 1343.29 132.394 1344.1 132.176C1344.83 132.12 1345.57 132.064 1346.98 131.926C1348.47 131.621 1349.29 131.399 1350.1 131.176C1350.83 131.125 1351.57 131.074 1353 130.94C1354.82 130.599 1355.93 130.341 1357.04 130.082C1361.76 129.375 1366.48 128.667 1371.95 127.883C1373.81 127.548 1374.91 127.29 1376.02 127.031C1376.46 127.017 1376.91 127.002 1378.03 126.914C1379.81 126.571 1380.91 126.301 1382.02 126.031C1382.46 126.017 1382.91 126.003 1384.03 125.919C1385.82 125.593 1386.93 125.338 1388.04 125.082C1388.49 125.065 1388.93 125.047 1390.07 124.944C1392.5 124.535 1394.23 124.212 1395.96 123.888C1398.05 123.575 1400.14 123.262 1402.91 122.878C1404.1 122.619 1404.62 122.431 1405.14 122.244C1406.18 122.165 1407.22 122.086 1408.96 121.919C1410.47 121.613 1411.29 121.394 1412.1 121.176C1412.83 121.121 1413.57 121.066 1414.98 120.932C1416.47 120.628 1417.29 120.402 1418.1 120.176C1418.83 120.125 1419.57 120.074 1421 119.94C1422.82 119.599 1423.93 119.341 1425.04 119.082C1427.76 118.706 1430.48 118.329 1433.89 117.879C1435.1 117.619 1435.62 117.431 1436.14 117.244C1437.18 117.16 1438.22 117.076 1439.98 116.89C1441.81 116.536 1442.91 116.284 1444.02 116.032C1444.46 116.016 1444.91 116 1446.03 115.906C1447.81 115.562 1448.91 115.297 1450.02 115.031C1450.46 115.017 1450.91 115.003 1452.03 114.92C1453.82 114.594 1454.93 114.338 1456.04 114.082C1456.49 114.065 1456.93 114.047 1458.07 113.943C1460.5 113.531 1462.23 113.205 1463.96 112.879C1469.71 111.882 1475.46 110.885 1482.02 109.748C1488.39 150.039 1494.63 189.611 1501.08 230.405C1491.86 231.693 1483.33 232.886 1474.11 234.137C1472.9 234.382 1472.38 234.569 1471.86 234.757C1470.82 234.836 1469.78 234.915 1468.02 235.083C1466.19 235.439 1465.09 235.704 1463.99 235.969C1463.54 235.984 1463.09 235.999 1461.97 236.087C1460.19 236.43 1459.09 236.7 1457.99 236.969C1457.54 236.983 1457.09 236.996 1455.97 237.076C1454.18 237.402 1453.07 237.66 1451.96 237.918C1451.51 237.936 1451.07 237.954 1449.96 238.05C1448.18 238.392 1447.07 238.655 1445.96 238.919C1443.24 239.306 1440.53 239.693 1437.11 240.137C1435.9 240.382 1435.38 240.569 1434.86 240.757C1433.82 240.835 1432.78 240.914 1431.02 241.093C1429.19 241.452 1428.09 241.711 1426.99 241.969C1426.54 241.984 1426.09 241.999 1424.97 242.087C1423.19 242.43 1422.09 242.7 1420.99 242.969C1420.54 242.983 1420.09 242.996 1418.97 243.076C1417.18 243.402 1416.07 243.66 1414.96 243.918C1414.51 243.936 1414.07 243.954 1412.96 244.05C1411.18 244.392 1410.07 244.655 1408.96 244.918C1406.19 245.375 1403.42 245.831 1400.04 246.241C1398.9 246.382 1398.38 246.57 1397.86 246.757C1396.82 246.835 1395.78 246.914 1394.02 247.093C1392.19 247.452 1391.09 247.711 1389.99 247.969C1389.54 247.984 1389.09 247.999 1387.97 248.087C1386.19 248.43 1385.09 248.7 1383.99 248.969C1383.54 248.983 1383.09 248.996 1381.9 249.088C1377.46 249.815 1373.75 250.464 1370.04 251.113C1367.91 251.501 1365.77 251.89 1363.03 252.237C1361.9 252.382 1361.38 252.57 1360.86 252.757C1359.82 252.836 1358.78 252.914 1357.04 253.09C1355.54 253.411 1354.73 253.634 1353.92 253.857C1353.18 253.903 1352.44 253.949 1351 254.077C1349.19 254.43 1348.09 254.7 1346.99 254.969C1346.54 254.983 1346.09 254.997 1344.97 255.082C1343.18 255.407 1342.07 255.663 1340.96 255.918C1340.51 255.936 1340.07 255.954 1338.93 256.051C1336.5 256.458 1334.77 256.785 1333.04 257.113C1330.91 257.5 1328.77 257.887 1326.02 258.234C1324.9 258.382 1324.38 258.57 1323.86 258.757C1322.82 258.836 1321.78 258.914 1320.02 259.093C1318.19 259.452 1317.09 259.71 1315.98 259.969C1315.54 259.985 1315.09 260.001 1313.97 260.095C1312.19 260.438 1311.09 260.704 1309.99 260.969C1309.54 260.983 1309.09 260.997 1307.97 261.081C1306.18 261.407 1305.07 261.662 1303.96 261.918C1303.51 261.936 1303.07 261.954 1301.93 262.058C1299.5 262.469 1297.77 262.795 1296.04 263.121Z" fill="white"/>
<path d="M1608.9 212.825C1608.17 212.881 1607.43 212.936 1606.02 213.075C1604.53 213.38 1603.71 213.602 1602.9 213.825C1602.17 213.879 1601.43 213.933 1600 214.066C1598.18 214.402 1597.07 214.66 1595.96 214.918C1591.18 215.697 1586.41 216.475 1580.96 217.224C1579.19 217.453 1578.09 217.711 1576.98 217.969C1576.54 217.985 1576.09 218.001 1574.97 218.095C1573.19 218.439 1572.09 218.704 1570.98 218.969C1570.54 218.983 1570.09 218.997 1568.97 219.082C1567.18 219.407 1566.07 219.663 1564.96 219.918C1564.51 219.936 1564.07 219.954 1562.93 220.057C1560.5 220.466 1558.77 220.789 1557.04 221.113C1554.91 221.502 1552.77 221.891 1550.03 222.237C1548.9 222.382 1548.38 222.57 1547.86 222.757C1546.82 222.836 1545.78 222.914 1544.02 223.083C1542.19 223.439 1541.09 223.704 1539.98 223.969C1539.54 223.983 1539.09 223.998 1537.97 224.082C1536.19 224.418 1535.08 224.683 1533.97 224.948C1533.53 224.966 1533.08 224.983 1531.96 225.07C1530.18 225.399 1529.07 225.659 1527.96 225.919C1525.89 226.283 1523.82 226.647 1520.71 227.194C1519.48 219.415 1518.25 211.616 1516.92 203.057C1516.56 201.193 1516.3 200.089 1516.03 198.985C1516.02 198.536 1516 198.088 1515.92 196.968C1515.58 195.189 1515.32 194.081 1515.05 192.973C1515.03 192.527 1515.02 192.082 1514.93 190.965C1514.6 189.181 1514.34 188.069 1514.08 186.957C1513.39 182.245 1512.7 177.532 1511.91 172.059C1511.55 170.193 1511.29 169.089 1511.03 167.985C1511.02 167.536 1511 167.087 1510.91 165.968C1510.57 164.193 1510.3 163.089 1510.03 161.985C1510.02 161.537 1510 161.089 1509.92 159.968C1509.6 158.182 1509.34 157.07 1509.08 155.957C1509.06 155.514 1509.05 155.071 1508.95 153.928C1508.54 151.499 1508.22 149.77 1507.89 148.042C1507.26 143.965 1506.64 139.888 1505.92 135.054C1505.56 133.193 1505.3 132.089 1505.03 130.985C1505.02 130.536 1505 130.088 1504.92 128.968C1504.58 127.189 1504.32 126.081 1504.05 124.973C1504.03 124.527 1504.02 124.082 1503.93 122.965C1503.6 121.181 1503.34 120.069 1503.08 118.957C1502.47 115.087 1501.85 111.216 1501.1 106.52C1509.51 105.142 1517.87 103.829 1526.2 102.383C1532.68 101.259 1539.12 99.8664 1545.61 98.7898C1549.33 98.1714 1553.15 98.0711 1556.89 97.5175C1566.48 96.0983 1576.07 94.672 1585.62 93.0275C1593.84 91.6126 1601.99 89.8433 1610.2 88.3327C1613.27 87.7658 1615.95 88.0633 1617.76 91.3967C1632.55 118.637 1647.46 145.814 1662.33 173.014C1666.71 181.017 1671.15 188.984 1675.34 197.087C1676.04 198.453 1678.81 200.925 1673.98 202.068C1672.19 202.433 1671.09 202.701 1669.98 202.969C1669.54 202.983 1669.09 202.996 1667.97 203.076C1666.18 203.402 1665.07 203.66 1663.96 203.918C1663.51 203.936 1663.07 203.954 1661.93 204.051C1659.5 204.457 1657.77 204.785 1656.04 205.113C1653.9 205.5 1651.77 205.886 1648.96 206.234C1647.19 206.453 1646.09 206.711 1644.98 206.969C1644.54 206.985 1644.09 207.002 1642.97 207.096C1641.19 207.439 1640.09 207.704 1638.98 207.969C1638.54 207.983 1638.09 207.998 1636.97 208.082C1635.19 208.418 1634.08 208.683 1632.97 208.948C1632.53 208.966 1632.08 208.983 1630.96 209.07C1629.18 209.399 1628.07 209.659 1626.96 209.919C1624.19 210.375 1621.42 210.831 1618.04 211.241C1616.9 211.382 1616.38 211.57 1615.86 211.757C1614.82 211.835 1613.78 211.914 1612.04 212.081C1610.53 212.388 1609.71 212.606 1608.9 212.825Z" fill="white"/>
<path d="M1301.21 202.271C1298.49 212.204 1295.53 222.35 1292.38 232.795C1292.02 232.461 1291.57 231.734 1291.74 231.203C1294.78 221.616 1297.89 212.053 1301.21 202.271Z" fill="#000000"/>
<path d="M1320.63 138.209C1318.8 145.173 1316.69 152.334 1314.38 159.795C1316.24 152.866 1318.29 145.636 1320.63 138.209Z" fill="#000000"/>
<path d="M1370.39 251.262C1373.75 250.463 1377.46 249.815 1381.58 249.165C1378.23 249.913 1374.48 250.662 1370.39 251.262Z" fill="#000000"/>
<path d="M1288.49 245.211C1288.02 247.518 1287.3 250.014 1286.37 252.803C1286.86 250.53 1287.55 247.965 1288.49 245.211Z" fill="#000000"/>
<path d="M1269.47 256.795C1269.95 254.483 1270.69 251.985 1271.62 249.195C1271.12 251.472 1270.43 254.04 1269.47 256.795Z" fill="#000000"/>
<path d="M1285.49 255.211C1285.02 257.516 1284.29 260.01 1283.35 262.791C1283.85 260.519 1284.54 257.959 1285.49 255.211Z" fill="#000000"/>
<path d="M1283.47 210.794C1283.94 208.479 1284.68 205.978 1285.6 203.178C1285.1 205.455 1284.42 208.031 1283.47 210.794Z" fill="#000000"/>
<path d="M1272.51 246.78C1273.21 244.186 1274.17 241.394 1275.51 238.5C1274.84 241.127 1273.81 243.855 1272.51 246.78Z" fill="#000000"/>
<path d="M1279.5 223.79C1279.97 221.482 1280.7 218.985 1281.62 216.195C1281.13 218.469 1280.45 221.035 1279.5 223.79Z" fill="#000000"/>
<path d="M1276.47 233.794C1276.94 231.479 1277.68 228.978 1278.6 226.178C1278.1 228.455 1277.42 231.031 1276.47 233.794Z" fill="#000000"/>
<path d="M1286.5 200.79C1286.97 198.482 1287.7 195.985 1288.62 193.195C1288.13 195.469 1287.45 198.035 1286.5 200.79Z" fill="#000000"/>
<path d="M1291.49 235.211C1291.03 237.518 1290.3 240.014 1289.37 242.803C1289.86 240.531 1290.55 237.965 1291.49 235.211Z" fill="#000000"/>
<path d="M1290.47 187.794C1290.94 185.479 1291.68 182.978 1292.6 180.178C1292.1 182.455 1291.42 185.032 1290.47 187.794Z" fill="#000000"/>
<path d="M1307.49 182.22C1306.79 184.812 1305.82 187.603 1304.49 190.494C1305.15 187.869 1306.18 185.143 1307.49 182.22Z" fill="#000000"/>
<path d="M1310.49 172.211C1310.02 174.518 1309.3 177.014 1308.37 179.803C1308.86 177.531 1309.55 174.965 1310.49 172.211Z" fill="#000000"/>
<path d="M1293.5 177.79C1293.97 175.482 1294.7 172.985 1295.62 170.195C1295.13 172.469 1294.45 175.035 1293.5 177.79Z" fill="#000000"/>
<path d="M1313.49 162.211C1313.03 164.518 1312.3 167.014 1311.37 169.803C1311.86 167.53 1312.55 164.965 1313.49 162.211Z" fill="#000000"/>
<path d="M1300.5 154.79C1300.97 152.482 1301.7 149.985 1302.62 147.195C1302.13 149.469 1301.45 152.035 1300.5 154.79Z" fill="#000000"/>
<path d="M1297.47 164.794C1297.94 162.479 1298.68 159.978 1299.6 157.178C1299.1 159.455 1298.42 162.031 1297.47 164.794Z" fill="#000000"/>
<path d="M1395.65 123.744C1394.23 124.211 1392.5 124.535 1390.39 124.856C1391.79 124.436 1393.56 124.018 1395.65 123.744Z" fill="#000000"/>
<path d="M1557.35 221.256C1558.77 220.789 1560.5 220.466 1562.61 220.145C1561.21 220.565 1559.44 220.982 1557.35 221.256Z" fill="#000000"/>
<path d="M1463.64 112.736C1462.23 113.204 1460.5 113.53 1458.39 113.854C1459.79 113.432 1461.56 113.013 1463.64 112.736Z" fill="#000000"/>
<path d="M1507.74 148.354C1508.22 149.769 1508.54 151.498 1508.86 153.605C1508.44 152.212 1508.02 150.439 1507.74 148.354Z" fill="#000000"/>
<path d="M1656.35 205.256C1657.77 204.785 1659.5 204.457 1661.61 204.139C1660.21 204.565 1658.44 204.982 1656.35 205.256Z" fill="#000000"/>
<path d="M1296.36 263.263C1297.77 262.795 1299.5 262.469 1301.61 262.146C1300.21 262.567 1298.44 262.986 1296.36 263.263Z" fill="#000000"/>
<path d="M1333.35 257.256C1334.77 256.785 1336.5 256.458 1338.61 256.139C1337.21 256.565 1335.44 256.982 1333.35 257.256Z" fill="#000000"/>
<path d="M1304.45 141.817C1304.64 140.488 1305.08 138.995 1305.71 137.227C1305.5 138.519 1305.1 140.086 1304.45 141.817Z" fill="#000000"/>
<path d="M1452.22 238.068C1453.07 237.66 1454.18 237.402 1455.64 237.154C1454.82 237.516 1453.65 237.867 1452.22 238.068Z" fill="#000000"/>
<path d="M1458.25 237.113C1459.09 236.699 1460.19 236.43 1461.64 236.17C1460.83 236.539 1459.67 236.898 1458.25 237.113Z" fill="#000000"/>
<path d="M1446.22 239.068C1447.07 238.655 1448.18 238.392 1449.64 238.139C1448.82 238.505 1447.65 238.862 1446.22 239.068Z" fill="#000000"/>
<path d="M1427.25 242.113C1428.09 241.71 1429.19 241.451 1430.64 241.192C1429.83 241.547 1428.67 241.902 1427.25 242.113Z" fill="#000000"/>
<path d="M1464.25 236.112C1465.09 235.703 1466.19 235.438 1467.64 235.183C1466.83 235.547 1465.67 235.902 1464.25 236.112Z" fill="#000000"/>
<path d="M1577.25 218.112C1578.09 217.71 1579.19 217.452 1580.64 217.216C1579.82 217.577 1578.66 217.917 1577.25 218.112Z" fill="#000000"/>
<path d="M1421.25 243.113C1422.09 242.699 1423.19 242.43 1424.64 242.17C1423.83 242.539 1422.67 242.898 1421.25 243.113Z" fill="#000000"/>
<path d="M1415.22 244.068C1416.07 243.66 1417.18 243.402 1418.64 243.154C1417.82 243.516 1416.65 243.867 1415.22 244.068Z" fill="#000000"/>
<path d="M1409.22 245.068C1410.07 244.655 1411.18 244.392 1412.64 244.139C1411.82 244.505 1410.65 244.862 1409.22 245.068Z" fill="#000000"/>
<path d="M1390.25 248.113C1391.09 247.71 1392.19 247.451 1393.64 247.192C1392.83 247.547 1391.67 247.902 1390.25 248.113Z" fill="#000000"/>
<path d="M1384.25 249.113C1385.09 248.699 1386.19 248.43 1387.64 248.17C1386.83 248.539 1385.67 248.898 1384.25 249.113Z" fill="#000000"/>
<path d="M1347.25 255.113C1348.09 254.699 1349.19 254.43 1350.64 254.17C1349.83 254.539 1348.67 254.898 1347.25 255.113Z" fill="#000000"/>
<path d="M1341.22 256.068C1342.07 255.663 1343.18 255.407 1344.64 255.162C1343.82 255.521 1342.65 255.87 1341.22 256.068Z" fill="#000000"/>
<path d="M1316.25 260.112C1317.09 259.709 1318.19 259.451 1319.64 259.192C1318.83 259.547 1317.67 259.902 1316.25 260.112Z" fill="#000000"/>
<path d="M1310.25 261.112C1311.09 260.703 1312.19 260.438 1313.64 260.182C1312.83 260.546 1311.67 260.901 1310.25 261.112Z" fill="#000000"/>
<path d="M1304.22 262.068C1305.07 261.662 1306.18 261.406 1307.64 261.161C1306.82 261.521 1305.65 261.869 1304.22 262.068Z" fill="#000000"/>
<path d="M1508.93 156.221C1509.34 157.069 1509.6 158.182 1509.85 159.639C1509.48 158.818 1509.13 157.651 1508.93 156.221Z" fill="#000000"/>
<path d="M1645.25 207.112C1646.09 206.71 1647.19 206.452 1648.64 206.216C1647.82 206.577 1646.66 206.917 1645.25 207.112Z" fill="#000000"/>
<path d="M1664.22 204.068C1665.07 203.66 1666.18 203.402 1667.64 203.154C1666.82 203.516 1665.65 203.867 1664.22 204.068Z" fill="#000000"/>
<path d="M1670.25 203.112C1671.09 202.701 1672.19 202.432 1673.64 202.174C1672.83 202.541 1671.67 202.899 1670.25 203.112Z" fill="#000000"/>
<path d="M1443.75 115.888C1442.91 116.284 1441.81 116.535 1440.36 116.788C1441.18 116.441 1442.33 116.092 1443.75 115.888Z" fill="#000000"/>
<path d="M1515.89 199.248C1516.3 200.089 1516.56 201.193 1516.82 202.64C1516.45 201.826 1516.1 200.668 1515.89 199.248Z" fill="#000000"/>
<path d="M1514.91 193.236C1515.32 194.08 1515.58 195.188 1515.84 196.64C1515.47 195.822 1515.12 194.661 1514.91 193.236Z" fill="#000000"/>
<path d="M1513.93 187.221C1514.34 188.069 1514.6 189.181 1514.85 190.638C1514.48 189.818 1514.13 188.651 1513.93 187.221Z" fill="#000000"/>
<path d="M1510.89 168.247C1511.29 169.088 1511.55 170.193 1511.81 171.639C1511.45 170.825 1511.1 169.667 1510.89 168.247Z" fill="#000000"/>
<path d="M1509.89 162.248C1510.3 163.089 1510.57 164.193 1510.83 165.64C1510.46 164.826 1510.1 163.669 1509.89 162.248Z" fill="#000000"/>
<path d="M1528.22 226.068C1529.07 225.658 1530.18 225.398 1531.64 225.151C1530.82 225.515 1529.65 225.866 1528.22 226.068Z" fill="#000000"/>
<path d="M1424.78 118.933C1423.93 119.341 1422.82 119.599 1421.36 119.847C1422.18 119.485 1423.35 119.134 1424.78 118.933Z" fill="#000000"/>
<path d="M1502.93 119.221C1503.34 120.069 1503.6 121.181 1503.85 122.638C1503.48 121.818 1503.13 120.651 1502.93 119.221Z" fill="#000000"/>
<path d="M1504.89 131.247C1505.3 132.088 1505.56 133.192 1505.82 134.639C1505.45 133.825 1505.1 132.667 1504.89 131.247Z" fill="#000000"/>
<path d="M1356.78 129.933C1355.93 130.341 1354.82 130.599 1353.36 130.846C1354.18 130.485 1355.35 130.134 1356.78 129.933Z" fill="#000000"/>
<path d="M1375.75 126.888C1374.91 127.29 1373.81 127.548 1372.36 127.784C1373.18 127.423 1374.33 127.083 1375.75 126.888Z" fill="#000000"/>
<path d="M1503.91 125.236C1504.32 126.08 1504.58 127.188 1504.84 128.64C1504.47 127.822 1504.12 126.661 1503.91 125.236Z" fill="#000000"/>
<path d="M1381.75 125.888C1380.91 126.301 1379.81 126.571 1378.36 126.831C1379.17 126.462 1380.33 126.103 1381.75 125.888Z" fill="#000000"/>
<path d="M1387.78 124.933C1386.93 125.338 1385.82 125.594 1384.36 125.839C1385.18 125.48 1386.35 125.131 1387.78 124.933Z" fill="#000000"/>
<path d="M1449.75 114.888C1448.91 115.297 1447.81 115.562 1446.36 115.818C1447.17 115.454 1448.33 115.099 1449.75 114.888Z" fill="#000000"/>
<path d="M1455.78 113.933C1454.93 114.338 1453.82 114.594 1452.36 114.839C1453.18 114.48 1454.35 114.131 1455.78 113.933Z" fill="#000000"/>
<path d="M1633.24 209.094C1634.08 208.682 1635.19 208.417 1636.64 208.162C1635.82 208.528 1634.66 208.884 1633.24 209.094Z" fill="#000000"/>
<path d="M1627.22 210.068C1628.07 209.658 1629.18 209.398 1630.64 209.151C1629.82 209.515 1628.65 209.867 1627.22 210.068Z" fill="#000000"/>
<path d="M1534.24 225.094C1535.08 224.682 1536.19 224.417 1537.64 224.162C1536.82 224.528 1535.66 224.884 1534.24 225.094Z" fill="#000000"/>
<path d="M1540.25 224.113C1541.09 223.704 1542.19 223.438 1543.64 223.183C1542.83 223.547 1541.67 223.902 1540.25 224.113Z" fill="#000000"/>
<path d="M1565.22 220.068C1566.07 219.663 1567.18 219.407 1568.64 219.162C1567.82 219.521 1566.65 219.869 1565.22 220.068Z" fill="#000000"/>
<path d="M1571.25 219.113C1572.09 218.704 1573.19 218.439 1574.64 218.183C1573.83 218.547 1572.67 218.902 1571.25 219.113Z" fill="#000000"/>
<path d="M1639.25 208.113C1640.09 207.704 1641.19 207.438 1642.64 207.183C1641.83 207.547 1640.67 207.902 1639.25 208.113Z" fill="#000000"/>
<path d="M1596.22 215.068C1597.07 214.66 1598.18 214.402 1599.64 214.154C1598.82 214.516 1597.65 214.867 1596.22 215.068Z" fill="#000000"/>
<path d="M1603.13 213.961C1603.71 213.602 1604.53 213.379 1605.66 213.168C1605.11 213.486 1604.24 213.792 1603.13 213.961Z" fill="#000000"/>
<path d="M1411.87 121.038C1411.29 121.394 1410.47 121.612 1409.34 121.819C1409.89 121.505 1410.76 121.203 1411.87 121.038Z" fill="#000000"/>
<path d="M1349.87 131.038C1349.29 131.398 1348.47 131.62 1347.34 131.831C1347.89 131.514 1348.76 131.207 1349.87 131.038Z" fill="#000000"/>
<path d="M1343.87 132.038C1343.29 132.394 1342.47 132.612 1341.34 132.819C1341.89 132.505 1342.76 132.203 1343.87 132.038Z" fill="#000000"/>
<path d="M1417.87 120.038C1417.29 120.401 1416.47 120.627 1415.34 120.84C1415.89 120.519 1416.76 120.21 1417.87 120.038Z" fill="#000000"/>
<path d="M1609.13 212.962C1609.71 212.606 1610.53 212.388 1611.66 212.181C1611.11 212.494 1610.24 212.797 1609.13 212.962Z" fill="#000000"/>
<path d="M1354.15 253.991C1354.73 253.634 1355.54 253.411 1356.67 253.19C1356.12 253.504 1355.25 253.814 1354.15 253.991Z" fill="#000000"/>
<path d="M1435.95 117.14C1435.62 117.431 1435.1 117.618 1434.3 117.784C1434.6 117.52 1435.18 117.278 1435.95 117.14Z" fill="#000000"/>
<path d="M1336.95 133.14C1336.62 133.431 1336.1 133.618 1335.3 133.784C1335.6 133.52 1336.18 133.278 1336.95 133.14Z" fill="#000000"/>
<path d="M1548.05 222.86C1548.38 222.569 1548.9 222.382 1549.7 222.216C1549.4 222.479 1548.82 222.721 1548.05 222.86Z" fill="#000000"/>
<path d="M1435.05 240.86C1435.38 240.569 1435.9 240.382 1436.7 240.216C1436.4 240.48 1435.82 240.722 1435.05 240.86Z" fill="#000000"/>
<path d="M1398.05 246.86C1398.38 246.569 1398.9 246.382 1399.7 246.216C1399.4 246.48 1398.82 246.721 1398.05 246.86Z" fill="#000000"/>
<path d="M1616.05 211.86C1616.38 211.569 1616.9 211.381 1617.7 211.216C1617.4 211.48 1616.82 211.721 1616.05 211.86Z" fill="#000000"/>
<path d="M1361.05 252.86C1361.38 252.569 1361.9 252.381 1362.7 252.216C1362.4 252.48 1361.82 252.721 1361.05 252.86Z" fill="#000000"/>
<path d="M1324.05 258.86C1324.38 258.569 1324.9 258.381 1325.7 258.216C1325.4 258.48 1324.82 258.721 1324.05 258.86Z" fill="#000000"/>
<path d="M1472.05 234.86C1472.38 234.569 1472.9 234.381 1473.7 234.215C1473.4 234.479 1472.82 234.721 1472.05 234.86Z" fill="#000000"/>
<path d="M1404.95 122.14C1404.62 122.431 1404.1 122.618 1403.3 122.784C1403.6 122.52 1404.18 122.278 1404.95 122.14Z" fill="#000000"/>
<path d="M808.473 467.482C827.546 482.582 834.964 501.921 829.588 525.21C824.497 547.261 810.101 561.258 788.225 566.804C763.361 573.108 738.039 561.586 725.897 539.18C713.767 516.796 718.085 489.49 736.554 471.777C754.666 454.407 782.489 451.536 804.441 464.785C805.722 465.558 806.94 466.436 808.473 467.482Z" fill="white"/>
<path d="M1189.1 474.925C1205.25 493.94 1207.89 518.793 1196.19 539.927C1184.91 560.3 1162.26 571.311 1138.79 567.83C1116.03 564.456 1097.61 547.113 1092.6 524.346C1087.18 499.703 1098.3 475.176 1120.24 463.389C1143.41 450.943 1170.19 455.34 1189.1 474.925Z" fill="white"/>
<path d="M1671.81 393.931C1685.52 370.19 1711.12 359.48 1736.34 366.672C1761.71 373.906 1777.86 396.421 1776.99 423.351C1776.07 451.663 1753.1 474.672 1723.95 476.471C1696.11 478.189 1670.41 457.781 1665.93 430.56C1663.83 417.784 1665.69 405.724 1671.81 393.931Z" fill="white"/>
<path d="M147.912 436.902C138.986 404.571 157.112 373.389 188.786 366.014C220.226 358.693 250.564 378.72 256.56 410.752C261.732 438.383 245.104 465.748 218.115 474.024C190.501 482.491 161.431 469.203 150.1 442.911C149.311 441.079 148.705 439.169 147.912 436.902Z" fill="white"/>
<path d="M937.934 309.086C938.176 308.785 938.425 308.451 938.673 308.117C938.735 308.208 938.862 308.365 938.847 308.38C938.651 308.578 938.434 308.756 938.049 309.007C937.876 309.074 937.94 309.053 937.934 309.086Z" fill="#000000"/>
</g>
<defs>
<clipPath id="clip0_260_440">
<rect width="1920" height="601" fill="white"/>
</clipPath>
</defs>
</svg>
