<svg width="625" height="514" viewBox="0 0 625 514" fill="none" xmlns="http://www.w3.org/2000/svg">
<g clip-path="url(#clip0_284_2051)">
<path d="M124.527 514C193.302 514 249.054 508.995 249.054 502.821C249.054 496.647 193.302 491.641 124.527 491.641C55.7527 491.641 0 496.647 0 502.821C0 508.995 55.7527 514 124.527 514Z" fill="#E6E6E6"/>
<path d="M95.186 114.048C116.858 103.152 143.85 110.055 170.21 114.847C170.456 109.044 173.429 101.983 170.314 97.9351C166.53 93.0173 166.879 87.8501 169.156 82.6532C174.979 69.3637 166.636 55.223 158.213 43.4652C156.314 40.821 153.915 38.7434 151.21 37.4012C148.504 36.059 145.569 35.49 142.643 35.7404L127.04 37.0578C123.243 37.3784 119.619 39.062 116.654 41.8833C113.688 44.7046 111.523 48.5291 110.447 52.8451C106.721 58.8346 104.727 64.8075 105.982 70.7493C100.402 75.2572 99.4641 80.6987 101.972 86.833C104.098 90.6954 104.076 94.4551 101.875 98.1108C98.9852 102.771 96.7717 107.968 95.3255 113.488L95.186 114.048Z" fill="#2F2E41"/>
<path d="M610.19 444.345H168.499C164.571 444.345 160.804 442.5 158.026 439.217C155.249 435.934 153.688 431.482 153.688 426.839C313.801 404.843 470.905 404.843 625 426.839C625 431.482 623.44 435.934 620.662 439.217C617.885 442.5 614.118 444.345 610.19 444.345Z" fill="#2F2E41"/>
<path d="M625 427.868L153.688 426.839L208.312 318.198L208.573 317.683V78.252C208.573 75.3458 209.057 72.4681 209.998 69.7831C210.939 67.098 212.318 64.6584 214.056 62.6034C215.795 60.5484 217.859 58.9184 220.13 57.8063C222.402 56.6943 224.836 56.1221 227.295 56.1223H548.78C551.239 56.1221 553.673 56.6943 555.945 57.8063C558.216 58.9184 560.28 60.5484 562.019 62.6034C563.757 64.6584 565.136 67.098 566.077 69.7831C567.018 72.4681 567.502 75.3458 567.502 78.252V319.331L625 427.868Z" fill="#3F3D56"/>
<path d="M226.868 71.5688C225.252 71.571 223.701 72.3311 222.558 73.6825C221.415 75.0339 220.772 76.8661 220.77 78.7772V297.088C220.772 298.999 221.415 300.831 222.558 302.183C223.701 303.534 225.252 304.294 226.868 304.296H551.821C553.437 304.294 554.987 303.534 556.131 302.182C557.274 300.831 557.917 298.999 557.919 297.088V78.7772C557.917 76.8661 557.274 75.034 556.131 73.6826C554.987 72.3313 553.437 71.5711 551.821 71.5688H226.868Z" fill="white"/>
<path d="M228.23 333.13C227.73 333.131 227.241 333.301 226.82 333.619C226.4 333.938 226.065 334.392 225.855 334.928L209.024 378.178C208.841 378.649 208.761 379.166 208.791 379.683C208.821 380.2 208.961 380.7 209.198 381.136C209.434 381.572 209.759 381.931 210.144 382.18C210.528 382.428 210.96 382.559 211.398 382.559H565.348C565.794 382.559 566.232 382.424 566.621 382.168C567.01 381.911 567.337 381.541 567.571 381.093C567.806 380.645 567.939 380.134 567.959 379.608C567.979 379.082 567.885 378.559 567.685 378.088L549.39 334.837C549.175 334.323 548.841 333.891 548.428 333.589C548.015 333.287 547.539 333.128 547.053 333.13H228.23Z" fill="#2F2E41"/>
<path d="M388.038 67.9647C390.203 67.9647 391.958 65.89 391.958 63.3307C391.958 60.7715 390.203 58.6968 388.038 58.6968C385.872 58.6968 384.117 60.7715 384.117 63.3307C384.117 65.89 385.872 67.9647 388.038 67.9647Z" fill="white"/>
<path d="M353.247 390.797C352.672 390.798 352.114 391.022 351.658 391.435C351.202 391.848 350.874 392.427 350.724 393.083L346.502 411.619C346.397 412.076 346.383 412.556 346.461 413.022C346.539 413.487 346.707 413.925 346.951 414.301C347.195 414.677 347.509 414.982 347.868 415.192C348.228 415.402 348.624 415.511 349.025 415.511H429.317C429.733 415.511 430.144 415.394 430.514 415.168C430.885 414.942 431.204 414.615 431.445 414.214C431.687 413.813 431.844 413.349 431.903 412.861C431.962 412.374 431.922 411.877 431.786 411.411L426.358 392.875C426.18 392.269 425.846 391.742 425.404 391.37C424.961 390.997 424.431 390.797 423.888 390.797H353.247Z" fill="#2F2E41"/>
<path d="M567.502 314.079V318.198H208.312L208.582 317.683V314.079H567.502Z" fill="#2F2E41"/>
<path d="M557.483 144.167C591.163 144.167 618.466 111.894 618.466 72.0837C618.466 32.273 591.163 0 557.483 0C523.803 0 496.5 32.273 496.5 72.0837C496.5 111.894 523.803 144.167 557.483 144.167Z" fill="#4B9BEB"/>
<path d="M582.747 103.492H532.219C531.295 103.491 530.409 103.056 529.756 102.284C529.102 101.512 528.735 100.465 528.734 99.3726V63.3307C528.735 62.2386 529.102 61.1916 529.756 60.4194C530.409 59.6472 531.295 59.2128 532.219 59.2117H582.747C583.671 59.2128 584.557 59.6472 585.21 60.4194C585.864 61.1916 586.231 62.2386 586.232 63.3307V99.3726C586.231 100.465 585.864 101.512 585.21 102.284C584.557 103.056 583.671 103.491 582.747 103.492ZM532.219 63.3308V99.3726H582.75L582.747 63.3307L532.219 63.3308Z" fill="white"/>
<path d="M573.164 63.3307H541.802V46.8544C541.802 34.9206 548.397 26.259 557.483 26.259C566.569 26.259 573.164 34.9206 573.164 46.8544L573.164 63.3307ZM545.287 59.2116H569.68V46.8544C569.68 37.1535 564.664 30.3781 557.483 30.3781C550.302 30.3781 545.287 37.1536 545.287 46.8544L545.287 59.2116Z" fill="white"/>
<path d="M557.483 84.441C559.408 84.441 560.968 82.5968 560.968 80.3219C560.968 78.0471 559.408 76.2029 557.483 76.2029C555.559 76.2029 553.999 78.0471 553.999 80.3219C553.999 82.5968 555.559 84.441 557.483 84.441Z" fill="white"/>
<path d="M514.911 230.248H263.777C262.544 230.246 261.362 229.666 260.49 228.636C259.618 227.605 259.127 226.208 259.126 224.75V151.115C259.127 149.657 259.618 148.26 260.49 147.23C261.362 146.199 262.544 145.619 263.777 145.618H514.911C516.144 145.619 517.326 146.199 518.198 147.23C519.07 148.26 519.561 149.657 519.562 151.115V224.75C519.561 226.208 519.07 227.605 518.198 228.636C517.326 229.666 516.144 230.246 514.911 230.248ZM263.777 147.817C263.037 147.818 262.328 148.165 261.804 148.784C261.281 149.402 260.987 150.24 260.986 151.115V224.75C260.987 225.625 261.281 226.463 261.804 227.082C262.328 227.7 263.037 228.048 263.777 228.049H514.911C515.651 228.048 516.361 227.7 516.884 227.082C517.407 226.463 517.701 225.625 517.702 224.75V151.115C517.701 150.24 517.407 149.402 516.884 148.784C516.361 148.165 515.651 147.818 514.911 147.817L263.777 147.817Z" fill="#E6E6E6"/>
<path d="M302.798 207.5C313.261 207.5 321.742 197.474 321.742 185.107C321.742 172.74 313.261 162.715 302.798 162.715C292.336 162.715 283.854 172.74 283.854 185.107C283.854 197.474 292.336 207.5 302.798 207.5Z" fill="#E6E6E6"/>
<path d="M346.55 170.179C346.135 170.178 345.724 170.274 345.34 170.461C344.957 170.648 344.608 170.923 344.314 171.27C344.021 171.616 343.787 172.028 343.629 172.481C343.47 172.934 343.388 173.42 343.388 173.911C343.388 174.401 343.47 174.887 343.629 175.34C343.787 175.794 344.021 176.205 344.314 176.552C344.608 176.899 344.957 177.173 345.34 177.361C345.724 177.548 346.135 177.644 346.55 177.643H495.398C496.235 177.643 497.038 177.25 497.63 176.55C498.222 175.85 498.555 174.901 498.555 173.911C498.555 172.921 498.222 171.972 497.63 171.272C497.038 170.572 496.235 170.179 495.398 170.179H346.55Z" fill="#E6E6E6"/>
<path d="M346.55 192.571C345.713 192.571 344.91 192.964 344.318 193.664C343.726 194.364 343.393 195.314 343.393 196.303C343.393 197.293 343.726 198.243 344.318 198.942C344.91 199.642 345.713 200.036 346.55 200.036H410.6C411.437 200.036 412.24 199.642 412.832 198.942C413.425 198.243 413.757 197.293 413.757 196.303C413.757 195.314 413.425 194.364 412.832 193.664C412.24 192.964 411.437 192.571 410.6 192.571H346.55Z" fill="#E6E6E6"/>
<path d="M207.694 194.081L161.27 223.255L160.682 198.944C175.835 195.954 190.251 190.748 203.58 182.273L208.436 168.093C208.965 166.548 209.825 165.193 210.931 164.159C212.037 163.125 213.352 162.45 214.746 162.198C216.14 161.946 217.565 162.128 218.882 162.724C220.199 163.32 221.362 164.311 222.257 165.599C223.567 167.483 224.221 169.886 224.088 172.319C223.955 174.753 223.045 177.036 221.541 178.705L207.694 194.081Z" fill="#FFB8B8"/>
<path d="M94.2607 362.521C93.922 361.053 93.8501 359.517 94.0497 358.013C94.2493 356.51 94.7159 355.073 95.4187 353.798L105.617 335.299C108.029 330.923 111.73 327.762 116.002 326.43C120.274 325.098 124.813 325.689 128.737 328.089C124.451 336.712 125.049 344.277 130.217 350.851C122.194 355.481 114.778 361.457 108.2 368.594C106.999 369.561 105.62 370.176 104.177 370.386C102.735 370.596 101.27 370.396 99.9067 369.802C98.543 369.208 97.3191 368.237 96.337 366.97C95.3549 365.704 94.6431 364.179 94.2607 362.521Z" fill="#2F2E41"/>
<path d="M209.809 338.332C208.265 341.373 206.087 343.893 203.482 345.651C200.878 347.41 197.935 348.348 194.936 348.374L127.186 348.981L124.248 328.837L154.218 318.418L128.949 295.495L156.569 257.292L206.734 312.559C209.666 315.789 211.571 320.111 212.131 324.802C212.69 329.494 211.871 334.27 209.809 338.332Z" fill="#2F2E41"/>
<path d="M116.608 476.096H100.742C86.496 360.671 71.9951 244.924 114.845 201.722L165.383 211.447L158.919 262.154L130.712 300.358L116.608 476.096Z" fill="#2F2E41"/>
<path d="M130.556 502.243C129.314 502.644 128.014 502.729 126.742 502.493C125.47 502.257 124.255 501.706 123.176 500.875L105.949 498.138C102.247 495.287 99.5727 490.912 98.4454 485.862C97.318 480.813 97.8178 475.448 99.8477 470.809C107.143 475.875 113.543 475.168 119.105 469.058C123.034 478.437 129.509 477.865 135.693 485.767C136.511 487.186 137.031 488.816 137.209 490.521C137.387 492.226 137.218 493.957 136.715 495.569C136.213 497.181 135.391 498.628 134.32 499.789C133.249 500.95 131.958 501.791 130.556 502.243Z" fill="#2F2E41"/>
<path d="M154.218 124.619L124.835 116.284C129.715 104.477 130.117 91.3389 127.774 77.3853L147.754 76.6907C148.38 94.0423 150.274 110.253 154.218 124.619Z" fill="#FFB8B8"/>
<path d="M162.293 232.361C140.904 249.59 125.791 232.951 114.258 207.279C115.86 191.57 113.266 172.771 108.46 152.345C106.322 143.336 107.12 133.706 110.696 125.358C114.272 117.011 120.365 110.551 127.774 107.254L153.043 119.757C174.499 140.43 178.722 162.823 170.672 186.44L162.293 232.361Z" fill="#884BEB"/>
<path d="M100.742 141.985L77.2361 156.572L118.959 185.746L124.765 202.673C125.152 203.802 125.341 205.014 125.319 206.232C125.298 207.451 125.067 208.652 124.64 209.762C124.213 210.872 123.599 211.867 122.836 212.687C122.073 213.507 121.177 214.135 120.202 214.533C119.093 214.985 117.912 215.127 116.749 214.949C115.586 214.77 114.474 214.277 113.5 213.506C112.526 212.735 111.716 211.707 111.134 210.505C110.552 209.302 110.213 207.956 110.144 206.573L109.557 194.776L56.5273 174.09C54.7406 173.394 53.1115 172.225 51.7634 170.674C50.4153 169.122 49.3835 167.229 48.7462 165.136C47.8172 162.086 47.77 158.758 48.6117 155.673C49.4535 152.588 51.1368 149.919 53.3983 148.085L96.0409 113.505L100.742 141.985Z" fill="#FFB8B8"/>
<path d="M124.248 144.763C114.444 139.685 105.53 145.201 94.2776 149.626L92.5146 112.811C103.688 105.772 114.34 103.874 124.248 109.338L124.248 144.763Z" fill="#884BEB"/>
<path d="M135.975 94.9263C146.335 94.9263 154.734 84.9985 154.734 72.752C154.734 60.5054 146.335 50.5776 135.975 50.5776C125.614 50.5776 117.215 60.5054 117.215 72.752C117.215 84.9985 125.614 94.9263 135.975 94.9263Z" fill="#FFB8B8"/>
<path d="M158.417 69.9541C139.844 72.1043 125.691 68.5137 116.646 58.2902V50.0569H156.841L158.417 69.9541Z" fill="#2F2E41"/>
</g>
<defs>
<clipPath id="clip0_284_2051">
<rect width="625" height="514" fill="white"/>
</clipPath>
</defs>
</svg>
