<svg width="643" height="386" viewBox="0 0 643 386" fill="none" xmlns="http://www.w3.org/2000/svg">
<path d="M389.38 256.273C389.38 256.273 310.515 247.599 282.912 233.865C255.309 220.132 50.2608 213.627 50.2608 256.273C50.2608 298.919 286.067 317.712 286.067 317.712L409.885 311.207L389.38 256.273Z" fill="#FBBEBE"/>
<path opacity="0.1" d="M389.38 256.273C389.38 256.273 310.515 247.599 282.912 233.865C255.309 220.132 50.2608 213.627 50.2608 256.273C50.2608 298.919 286.067 317.712 286.067 317.712L409.885 311.207L389.38 256.273Z" fill="black"/>
<path d="M366.556 248.211L383.09 292.63L642.124 295.542V230.007C642.124 230.007 542.919 208.89 464.186 254.037C464.186 254.037 371.28 243.842 366.556 248.211Z" fill="#4B9BEB"/>
<path opacity="0.1" d="M366.556 248.211L383.09 292.63L642.124 295.542V230.007C642.124 230.007 542.919 208.89 464.186 254.037C464.186 254.037 371.28 243.842 366.556 248.211Z" fill="black"/>
<path d="M69.3252 229.865C69.3252 232.325 75.3621 234.151 75.9557 236.524C76.5444 238.878 72.9577 242.457 74.0926 244.705C75.2658 247.003 76.6518 249.206 78.2355 251.288C79.7224 253.234 84.3154 252.95 86.1985 254.774C88.0424 256.431 89.9956 257.983 92.0471 259.422C94.0454 260.94 96.7527 261.259 99.0251 262.657C101.186 263.986 100.924 268.862 103.314 270.072C105.598 271.229 109.094 270.299 111.571 271.338C113.949 272.336 115.203 275.946 117.745 276.828C120.197 277.679 123.232 277.313 125.824 278.05C128.332 278.764 131.139 278.648 133.768 279.249C136.32 279.832 138.27 283.329 140.925 283.8C143.512 284.259 146.544 283.034 149.219 283.382C151.832 283.722 154.87 280.701 157.558 280.929C160.188 281.153 162.667 282.552 165.36 282.665C168.002 282.776 170.613 283.839 173.308 283.839C176.002 283.839 178.782 286.148 181.423 286.037C184.117 285.924 186.556 282.424 189.186 282.2C191.874 281.971 195.08 285.628 197.692 285.288C200.367 284.94 202.486 281.361 205.073 280.902C207.729 280.43 211.16 282.988 213.713 282.405C216.342 281.804 217.902 277.64 220.411 276.926C223.003 276.189 226.216 277.188 228.667 276.336C231.21 275.454 234.307 275.595 236.686 274.597C239.163 273.558 240.941 271.097 243.225 269.941C245.615 268.73 246.717 265.728 248.878 264.399C251.15 263 254.613 263.179 256.611 261.66C258.721 260.057 262.674 259.973 264.454 258.248C266.338 256.423 267.1 253.36 268.586 251.414C270.152 249.365 267.079 245.033 268.172 242.867C269.307 240.62 274.05 239.707 274.638 237.353C275.245 234.896 275.557 232.385 275.567 229.865C275.567 227.405 271.511 225.525 270.917 223.152C270.329 220.799 273.314 217.418 272.179 215.171C271.086 213.005 271.226 209.675 269.659 207.626C268.172 205.68 264.462 204.918 262.579 203.093C260.798 201.368 257.611 200.887 255.501 199.284C253.503 197.765 253.758 193.186 251.485 191.788C249.325 190.458 246.308 189.852 243.918 188.642C241.634 187.485 238.402 187.68 235.925 186.64C233.547 185.642 229.823 187.608 227.28 186.726C224.829 185.875 222.84 184.014 220.248 183.277C217.74 182.563 216.561 177.121 213.932 176.521C211.38 175.937 208.239 176.906 205.584 176.434C202.996 175.975 199.515 180.268 196.84 179.921C194.228 179.581 192.274 173.849 189.586 173.62C186.956 173.397 183.99 176.365 181.296 176.252C178.655 176.141 176.002 177.881 173.308 177.881C170.614 177.881 167.929 175.494 165.289 175.604C162.595 175.717 160.22 178.872 157.589 179.096C154.902 179.325 151.602 174.526 148.99 174.866C146.314 175.214 144.247 178.923 141.66 179.382C139.004 179.854 135.678 177.551 133.124 178.134C130.495 178.735 128.914 182.678 126.405 183.391C123.813 184.129 122.216 186.91 119.764 187.761C117.222 188.644 112.499 184.514 110.121 185.512C107.643 186.552 105.503 188.351 103.22 189.508C100.83 190.718 97.0301 190.11 94.8695 191.439C92.597 192.837 92.0382 196.59 90.0398 198.109C87.9299 199.712 84.4498 200.195 82.6692 201.92C80.7861 203.745 80.5245 207.014 79.0377 208.96C77.4719 211.009 77.5208 213.848 76.4276 216.014C75.2932 218.261 72.2645 219.961 71.676 222.314C71.0828 224.686 69.3252 227.406 69.3252 229.865Z" fill="#3F3D56"/>
<path d="M353.405 275.132C353.405 275.132 264.447 233.123 206.978 249.057C149.509 264.992 69.2107 237.468 59.7638 246.884C50.3168 256.3 36.9337 357.703 150.297 363.498C263.66 369.292 360.491 346.114 360.491 346.114L353.405 275.132Z" fill="#FBBEBE"/>
<path d="M374.244 270.682C374.244 270.682 339.032 268.641 340.611 280.212C342.19 291.784 343.768 381.466 353.24 383.636C362.711 385.806 437.695 385.806 468.478 385.806H642.124V247.151C642.124 247.151 518.993 240.434 457.427 268.641C457.427 268.641 383.409 267.661 374.244 270.682Z" fill="#4B9BEB"/>
<path d="M210.009 54.0493C213.381 54.2228 216.633 55.2483 219.401 57.0108C222.168 58.7733 224.342 61.2032 225.679 64.028C229.597 72.6543 224.552 82.7872 216.978 89.0776C209.405 95.3681 199.677 98.9636 190.837 103.69C178.965 110.038 168.296 118.85 162.356 130.161C156.416 141.473 155.784 155.484 162.767 166.291C169.248 176.321 181.033 182.324 192.272 187.86" stroke="#3F3D56" stroke-miterlimit="10"/>
<path d="M178.159 1C181.489 1.17449 184.7 2.20605 187.433 3.97901C190.166 5.75196 192.313 8.19622 193.633 11.0377C197.502 19.7151 192.52 29.908 185.041 36.2356C177.563 42.5632 167.956 46.18 159.227 50.9341C147.503 57.3196 136.968 66.1837 131.102 77.5622C125.236 88.9407 124.612 103.035 131.507 113.906C137.907 123.995 149.545 130.034 160.644 135.603" stroke="#3F3D56" stroke-miterlimit="10"/>
<path d="M74.5245 13.4274C77.288 11.6776 80.5263 10.6712 83.8762 10.5211C87.2261 10.371 90.5551 11.0831 93.4901 12.5776C102.325 17.2326 105.127 28.1012 103.379 37.3348C101.63 46.5683 96.391 54.8688 92.6046 63.5691C87.5188 75.2549 85.0232 88.2229 87.9088 100.529C90.7944 112.834 99.6511 124.312 112.348 128.982C124.132 133.317 137.394 131.485 149.916 129.588" stroke="#3F3D56" stroke-miterlimit="10"/>
<path d="M165.947 122.143C155.657 122.143 147.316 118.42 147.316 113.829C147.316 109.237 155.657 105.515 165.947 105.515C176.237 105.515 184.578 109.237 184.578 113.829C184.578 118.42 176.237 122.143 165.947 122.143Z" fill="#57B894"/>
<path d="M168.113 120.559C157.584 120.559 149.049 116.837 149.049 112.245C149.049 107.654 157.584 103.932 168.113 103.932C178.642 103.932 187.178 107.654 187.178 112.245C187.178 116.837 178.642 120.559 168.113 120.559Z" stroke="#3F3D56" stroke-miterlimit="10"/>
<path d="M124.785 115.016C114.256 115.016 105.721 111.294 105.721 106.702C105.721 102.111 114.256 98.3887 124.785 98.3887C135.314 98.3887 143.85 102.111 143.85 106.702C143.85 111.294 135.314 115.016 124.785 115.016Z" fill="#57B894"/>
<path d="M127.385 113.433C116.856 113.433 108.32 109.711 108.32 105.119C108.32 100.528 116.856 96.8057 127.385 96.8057C137.914 96.8057 146.449 100.528 146.449 105.119C146.449 109.711 137.914 113.433 127.385 113.433Z" stroke="#3F3D56" stroke-miterlimit="10"/>
<path d="M118.719 146.687C108.19 146.687 99.6548 142.965 99.6548 138.374C99.6548 133.782 108.19 130.06 118.719 130.06C129.248 130.06 137.784 133.782 137.784 138.374C137.784 142.965 129.248 146.687 118.719 146.687Z" fill="#57B894"/>
<path d="M121.319 145.104C110.79 145.104 102.255 141.382 102.255 136.79C102.255 132.199 110.79 128.477 121.319 128.477C131.848 128.477 140.383 132.199 140.383 136.79C140.383 141.382 131.848 145.104 121.319 145.104Z" stroke="#3F3D56" stroke-miterlimit="10"/>
<path d="M74.0913 61.1755C63.8016 61.1755 55.4602 57.2761 55.4602 52.4659C55.4602 47.6558 63.8016 43.7563 74.0913 43.7563C84.381 43.7563 92.7224 47.6558 92.7224 52.4659C92.7224 57.2761 84.381 61.1755 74.0913 61.1755Z" fill="#57B894"/>
<path d="M19.0644 65.1342C8.53539 65.1342 -7.62939e-06 61.4121 -7.62939e-06 56.8205C-7.62939e-06 52.229 8.53539 48.5068 19.0644 48.5068C29.5933 48.5068 38.1288 52.229 38.1288 56.8205C38.1288 61.4121 29.5933 65.1342 19.0644 65.1342Z" fill="#57B894"/>
<path d="M21.2309 63.5507C10.9413 63.5507 2.59983 59.8286 2.59983 55.237C2.59983 50.6455 10.9413 46.9233 21.2309 46.9233C31.5206 46.9233 39.8621 50.6455 39.8621 55.237C39.8621 59.8286 31.5206 63.5507 21.2309 63.5507Z" stroke="#3F3D56" stroke-miterlimit="10"/>
<path d="M194.11 82.5537C183.581 82.5537 175.046 78.8315 175.046 74.24C175.046 69.6484 183.581 65.9263 194.11 65.9263C204.639 65.9263 213.175 69.6484 213.175 74.24C213.175 78.8315 204.639 82.5537 194.11 82.5537Z" fill="#57B894"/>
<path d="M196.277 80.9697C185.987 80.9697 177.646 77.2475 177.646 72.656C177.646 68.0645 185.987 64.3423 196.277 64.3423C206.567 64.3423 214.908 68.0645 214.908 72.656C214.908 77.2475 206.567 80.9697 196.277 80.9697Z" stroke="#3F3D56" stroke-miterlimit="10"/>
<path d="M128.251 78.5945C117.722 78.5945 109.187 74.6951 109.187 69.8849C109.187 65.0747 117.722 61.1753 128.251 61.1753C138.78 61.1753 147.316 65.0747 147.316 69.8849C147.316 74.6951 138.78 78.5945 128.251 78.5945Z" fill="#57B894"/>
<path d="M130.851 77.0107C120.322 77.0107 111.787 73.2885 111.787 68.697C111.787 64.1055 120.322 60.3833 130.851 60.3833C141.38 60.3833 149.916 64.1055 149.916 68.697C149.916 73.2885 141.38 77.0107 130.851 77.0107Z" stroke="#3F3D56" stroke-miterlimit="10"/>
<path d="M42.4618 84.9287C31.9329 84.9287 23.3975 81.2065 23.3975 76.615C23.3975 72.0234 31.9329 68.3013 42.4618 68.3013C52.9908 68.3013 61.5262 72.0234 61.5262 76.615C61.5262 81.2065 52.9908 84.9287 42.4618 84.9287Z" fill="#57B894"/>
<path d="M45.0614 83.3452C34.5324 83.3452 25.9969 79.623 25.9969 75.0315C25.9969 70.4399 34.5324 66.7178 45.0614 66.7178C55.5903 66.7178 64.1257 70.4399 64.1257 75.0315C64.1257 79.623 55.5903 83.3452 45.0614 83.3452Z" stroke="#3F3D56" stroke-miterlimit="10"/>
<path d="M88.3896 88.0959C77.8606 88.0959 69.3252 84.1965 69.3252 79.3863C69.3252 74.5762 77.8606 70.6768 88.3896 70.6768C98.9186 70.6768 107.454 74.5762 107.454 79.3863C107.454 84.1965 98.9186 88.0959 88.3896 88.0959Z" fill="#57B894"/>
<path d="M90.556 86.5124C80.2663 86.5124 71.9249 82.613 71.9249 77.8029C71.9249 72.9927 80.2663 69.0933 90.556 69.0933C100.846 69.0933 109.187 72.9927 109.187 77.8029C109.187 82.613 100.846 86.5124 90.556 86.5124Z" stroke="#3F3D56" stroke-miterlimit="10"/>
<path d="M155.115 92.8466C144.586 92.8466 136.051 89.1245 136.051 84.5329C136.051 79.9414 144.586 76.2192 155.115 76.2192C165.644 76.2192 174.179 79.9414 174.179 84.5329C174.179 89.1245 165.644 92.8466 155.115 92.8466Z" fill="#57B894"/>
<path d="M157.715 91.2631C147.186 91.2631 138.65 87.541 138.65 82.9494C138.65 78.3579 147.186 74.6357 157.715 74.6357C168.244 74.6357 176.779 78.3579 176.779 82.9494C176.779 87.541 168.244 91.2631 157.715 91.2631Z" stroke="#3F3D56" stroke-miterlimit="10"/>
<g opacity="0.3">
<path d="M203.384 148.288C200.713 143.904 200.226 139.489 202.295 138.428C204.365 137.367 208.207 140.061 210.878 144.445C213.549 148.83 214.036 153.244 211.967 154.305C209.897 155.366 206.055 152.672 203.384 148.288Z" fill="#57B894"/>
<path d="M204.632 148.951C201.961 144.566 201.474 140.152 203.543 139.091C205.612 138.03 209.455 140.724 212.125 145.108C214.796 149.492 215.283 153.907 213.214 154.968C211.145 156.029 207.302 153.335 204.632 148.951Z" stroke="#3F3D56" stroke-miterlimit="10"/>
</g>
<g opacity="0.3">
<path d="M104.768 169.306C103.187 167.686 105.212 163.656 109.291 160.307C113.37 156.957 117.958 155.556 119.539 157.177C121.12 158.797 119.095 162.827 115.016 166.176C110.937 169.526 106.349 170.927 104.768 169.306Z" fill="#57B894"/>
<path d="M105.2 168.045C103.619 166.424 105.644 162.395 109.723 159.045C113.802 155.696 118.39 154.294 119.971 155.915C121.552 157.536 119.527 161.565 115.448 164.914C111.369 168.264 106.781 169.665 105.2 168.045Z" stroke="#3F3D56" stroke-miterlimit="10"/>
</g>
<g opacity="0.3">
<path d="M193.059 123.739C191.478 122.119 193.503 118.089 197.582 114.74C201.661 111.39 206.249 109.989 207.83 111.61C209.411 113.231 207.386 117.26 203.307 120.609C199.228 123.959 194.64 125.36 193.059 123.739Z" fill="#57B894"/>
<path d="M193.491 122.478C191.91 120.857 193.935 116.828 198.014 113.478C202.093 110.129 206.681 108.727 208.262 110.348C209.843 111.969 207.818 115.998 203.739 119.348C199.66 122.697 195.072 124.098 193.491 122.478Z" stroke="#3F3D56" stroke-miterlimit="10"/>
</g>
</svg>
