<svg width="509" height="376" viewBox="0 0 509 376" fill="none" xmlns="http://www.w3.org/2000/svg">
<g clip-path="url(#clip0_401_1429)">
<path d="M289.738 332.115C286.222 327.607 281.461 324.308 275.476 323.073C270.257 321.997 264.89 322.18 259.585 322.218L192.503 322.691C186.758 322.732 181.249 327.288 181.516 332.749C181.781 338.164 186.344 342.851 192.503 342.808C212.153 342.669 231.804 342.53 251.454 342.391C256.086 342.359 260.722 342.282 265.355 342.296C266.395 342.299 267.431 342.349 268.471 342.36C268.722 342.363 268.904 342.361 269.033 342.356C269.065 342.365 269.092 342.373 269.134 342.384C269.676 342.52 270.232 342.614 270.778 342.743C270.587 342.748 271.131 343.06 271.405 343.165C271.442 343.233 271.523 343.353 271.656 343.539C271.843 343.86 272.396 344.833 272.419 344.803C273.25 346.726 273.935 348.699 274.47 350.707C275.747 355.138 276.027 356.064 276.211 360.22C276.443 365.47 281.098 370.528 287.198 370.278C292.951 370.042 298.433 365.851 298.184 360.22C297.765 350.731 295.945 340.072 289.738 332.115Z" fill="#E6E6E6"/>
<path d="M196.446 354.813C195.186 347.822 193.95 340.828 192.666 333.841C191.362 326.754 188.701 320.264 182.676 315.612C181.066 314.37 179.397 313.209 177.721 312.053C177.132 311.646 176.543 311.239 175.961 310.823C175.926 310.798 175.904 310.783 175.874 310.761C175.81 310.711 175.733 310.651 175.63 310.571C173.119 308.625 170.693 306.593 168.382 304.433C166.329 302.515 164.367 300.515 162.494 298.433C162.025 297.913 161.563 297.388 161.107 296.859C161.029 296.768 160.607 296.268 160.328 295.942C160.069 295.616 159.596 295.026 159.517 294.923C158.984 294.233 158.461 293.537 157.947 292.835C154.448 288.035 151.418 282.962 148.892 277.675C148.642 277.151 148.397 276.623 148.158 276.093C148.094 275.931 148.012 275.723 147.902 275.446C147.393 274.164 146.885 272.885 146.419 271.588C145.431 268.834 144.58 266.04 143.869 263.204C143.517 261.804 143.201 260.397 142.919 258.983C142.774 258.256 142.638 257.527 142.512 256.797C142.491 256.676 142.368 255.888 142.295 255.443C142.241 254.995 142.141 254.203 142.128 254.081C142.047 253.345 141.976 252.608 141.914 251.87C141.773 250.211 141.678 248.548 141.629 246.883C141.544 243.924 141.602 240.964 141.802 238.006C141.916 236.343 142.079 234.685 142.279 233.03C142.291 232.928 142.3 232.847 142.309 232.774C142.321 232.7 142.335 232.616 142.352 232.512C142.499 231.597 142.655 230.684 142.829 229.773C143.488 226.316 144.345 222.893 145.397 219.518C145.895 217.922 146.435 216.339 147.019 214.768C147.279 214.071 147.548 213.377 147.824 212.685C147.806 212.73 148.636 210.789 148.647 210.724C151.94 203.602 157.325 197.11 157.333 189.019C157.338 183.542 152.276 178.295 146.346 178.548C143.389 178.65 140.592 179.798 138.542 181.752C136.493 183.705 135.351 186.311 135.359 189.019C135.359 189.142 135.359 189.247 135.358 189.349C135.303 189.52 135.257 189.662 135.215 189.788C134.573 191.065 133.786 192.279 133.082 193.525C131.152 196.934 129.504 200.455 127.94 204.028C125.378 209.847 123.417 215.872 122.083 222.025C119.183 235.507 118.958 249.357 121.418 262.912C125.678 286.683 139.726 309.437 159.256 324.732C160.951 326.059 162.687 327.342 164.439 328.599C165.164 329.119 165.896 329.629 166.631 330.136C166.978 330.376 168.417 331.415 167.784 330.912C169.145 331.975 169.718 332.51 170.068 333.294C170.119 333.475 170.188 333.72 170.281 334.055C170.528 334.938 170.762 335.82 170.956 336.716C172.656 344.543 173.838 352.502 175.258 360.38C176.234 365.793 183.513 369.316 188.773 367.694C194.895 365.805 197.492 360.613 196.446 354.813Z" fill="#E6E6E6"/>
<path d="M290.85 375.115C286.236 375.126 281.805 373.461 278.53 370.485C275.255 367.509 273.404 363.466 273.381 359.241V347.768C260.259 349.113 215.328 348.801 202.448 346.907V358.783C202.414 363.003 200.558 367.04 197.286 370.014C194.014 372.987 189.59 374.656 184.979 374.656C180.369 374.656 175.945 372.987 172.673 370.014C169.401 367.04 167.545 363.003 167.511 358.783V335.465C150.066 326.593 135.524 313.62 125.385 297.885C115.245 282.15 109.876 264.223 109.831 245.954C109.831 214.629 125.338 185.407 152.376 165.781C169.955 152.978 191.315 145.278 213.71 143.67C216.75 143.452 219.809 143.341 222.801 143.341C233.343 143.341 280.906 144.832 292.839 147.975L320.051 123.256C320.451 122.888 320.961 122.637 321.518 122.535C322.074 122.434 322.651 122.486 323.175 122.686C323.703 122.878 324.155 123.212 324.471 123.644C324.788 124.075 324.955 124.584 324.95 125.104V129.034L330.248 124.23C330.647 123.862 331.158 123.61 331.714 123.509C332.27 123.407 332.847 123.459 333.37 123.659C333.898 123.852 334.35 124.185 334.668 124.617C334.985 125.049 335.152 125.558 335.147 126.079V169.998C348.801 181.268 359.208 195.446 365.445 211.278C371.682 227.11 373.557 244.106 370.904 260.76C368.251 277.414 361.151 293.212 350.234 306.753C339.317 320.294 324.92 331.161 308.318 338.39V359.242C308.296 363.466 306.444 367.509 303.169 370.485C299.894 373.461 295.464 375.126 290.85 375.115ZM274.754 346.342V359.241C274.789 363.129 276.5 366.846 279.515 369.583C282.529 372.321 286.603 373.857 290.85 373.857C295.096 373.857 299.17 372.321 302.185 369.583C305.199 366.846 306.91 363.129 306.945 359.241V337.596L307.337 337.425C325.965 329.333 341.778 316.673 353.022 300.85C367.349 280.659 373.307 256.44 369.818 232.575C366.33 208.71 353.624 186.778 334.001 170.747L333.773 170.559V126.078C333.778 125.808 333.693 125.543 333.528 125.319C333.363 125.094 333.127 124.922 332.852 124.824C332.578 124.717 332.276 124.688 331.984 124.741C331.692 124.794 331.425 124.927 331.217 125.121L323.576 132.049V125.104C323.581 124.834 323.495 124.569 323.331 124.345C323.166 124.12 322.93 123.948 322.655 123.85C322.381 123.743 322.078 123.714 321.785 123.768C321.493 123.821 321.225 123.954 321.017 124.149L293.223 149.398L292.828 149.284C281.734 146.106 233.423 144.599 222.801 144.599C219.844 144.599 216.822 144.708 213.818 144.924C191.695 146.511 170.595 154.118 153.229 166.766C126.521 186.152 111.204 215.015 111.204 245.954C111.249 264.062 116.59 281.827 126.671 297.406C136.752 312.985 151.205 325.809 168.53 334.545L168.884 334.725V358.783C168.919 362.669 170.631 366.386 173.645 369.123C176.66 371.86 180.734 373.396 184.979 373.396C189.225 373.396 193.299 371.86 196.314 369.123C199.328 366.386 201.04 362.669 201.075 358.783V345.402L201.889 345.542C213.463 347.535 262.2 347.85 273.978 346.435L274.754 346.342Z" fill="#3F3D56"/>
<path d="M197.759 74.8821L121.717 95.8033C119.298 96.4714 117.268 97.9911 116.073 100.029C114.877 102.066 114.614 104.455 115.341 106.67C116.068 108.885 117.726 110.745 119.95 111.842C122.174 112.938 124.783 113.182 127.204 112.519L193.748 94.2065L195.142 93.823C195.424 87.2465 197.373 80.8202 200.835 75.0518C200.4 74.8729 199.936 74.7624 199.461 74.7249C198.888 74.6741 198.309 74.7275 197.759 74.8821Z" fill="#6C63FF"/>
<path d="M125.888 116.979C124.879 116.977 123.896 116.684 123.078 116.143C122.26 115.601 121.649 114.838 121.33 113.961L116.575 100.825C116.377 100.276 116.298 99.6973 116.344 99.1209C116.39 98.5445 116.559 97.9821 116.843 97.4656C117.126 96.9492 117.518 96.4889 117.995 96.1111C118.473 95.7332 119.027 95.4452 119.626 95.2635L181.517 76.486C182.116 76.3041 182.748 76.2321 183.378 76.274C184.007 76.316 184.622 76.471 185.186 76.7303C185.75 76.9896 186.252 77.3481 186.665 77.7853C187.078 78.2224 187.393 78.7298 187.591 79.2783L192.346 92.4144C192.742 93.4948 192.663 94.6738 192.125 95.7016C191.588 96.7294 190.634 97.5254 189.467 97.9208C189.41 97.9405 189.352 97.959 189.294 97.9764L127.405 116.753C126.916 116.903 126.404 116.979 125.888 116.979Z" fill="#2F2E41"/>
<path d="M241.794 51.5532C229.303 51.5576 217.304 56.0117 208.337 63.9725C199.369 71.9334 194.137 82.7764 193.748 94.2065C193.734 94.6528 193.728 95.1054 193.728 95.5581C193.728 104.261 196.547 112.769 201.828 120.006C207.11 127.242 214.617 132.883 223.4 136.213C232.183 139.544 241.848 140.415 251.172 138.717C260.496 137.019 269.06 132.828 275.783 126.674C282.505 120.52 287.083 112.679 288.937 104.143C290.792 95.6069 289.84 86.759 286.202 78.7181C282.564 70.6773 276.403 63.8047 268.499 58.9694C260.594 54.1341 251.301 51.5532 241.794 51.5532ZM241.794 138.306C229.414 138.294 217.545 133.786 208.791 125.772C200.037 117.758 195.114 106.892 195.101 95.5581C195.101 94.9734 195.115 94.3951 195.142 93.823C195.514 85.4494 198.566 77.3606 203.919 70.5623C209.272 63.7641 216.69 58.5564 225.25 55.5867C233.81 52.6171 243.135 52.0165 252.065 53.8597C260.995 55.703 269.136 59.9086 275.476 65.9538C281.816 71.999 286.075 79.6169 287.724 87.8604C289.373 96.1039 288.338 104.609 284.749 112.319C281.16 120.028 275.175 126.602 267.538 131.222C259.901 135.843 250.948 138.306 241.794 138.306Z" fill="#3F3D56"/>
<path d="M282.308 95.5582C282.308 105.395 278.039 114.829 270.442 121.785C262.844 128.74 252.539 132.648 241.794 132.648C231.05 132.648 220.745 128.74 213.147 121.785C205.549 114.829 201.281 105.395 201.281 95.5582C201.281 94.3826 201.343 93.2259 201.459 92.0818C202.436 82.5882 207.368 73.8036 215.233 67.552C223.098 61.3003 233.291 58.062 243.695 58.5094C254.099 58.9568 263.916 63.0555 271.106 69.9544C278.296 76.8534 282.308 86.0226 282.308 95.5582Z" fill="#E6E6E6"/>
<path d="M253.859 98.0223C252.877 96.8403 251.585 95.9041 250.103 95.3003C248.275 94.595 246.387 94.0273 244.459 93.603V83.507C247.423 83.9162 250.204 85.0769 252.486 86.8576L254.724 82.4886C253.437 81.4385 251.959 80.6024 250.357 80.018C248.581 79.3599 246.718 78.9222 244.816 78.7168V73.5996H239.631V78.767C237.63 78.9729 235.698 79.5665 233.966 80.5084C232.402 81.3562 231.085 82.5381 230.128 83.9533C229.214 85.3344 228.741 86.9218 228.761 88.5361C228.672 90.2855 229.226 92.0119 230.334 93.4395C231.354 94.6755 232.701 95.6534 234.248 96.281C236.105 97.0071 238.025 97.5895 239.988 98.0223V107.697C236.49 107.455 233.156 106.238 230.437 104.208L228.198 108.583C229.719 109.734 231.448 110.632 233.307 111.236C235.344 111.904 237.473 112.31 239.631 112.443V117.516H244.816V112.349C247.695 112.061 250.396 110.927 252.513 109.118C253.446 108.299 254.182 107.312 254.676 106.219C255.171 105.126 255.411 103.951 255.384 102.769C255.47 101.075 254.933 99.4037 253.859 98.0223ZM239.989 92.5343C238.726 92.1837 237.551 91.6067 236.534 90.8369C236.131 90.5087 235.813 90.1028 235.602 89.6485C235.39 89.1942 235.291 88.7027 235.312 88.2092C235.275 87.0896 235.724 86.002 236.562 85.1855C237.491 84.3288 238.689 83.7594 239.989 83.5573V92.5343ZM247.714 105.912C246.837 106.734 245.697 107.278 244.459 107.464V99.1413C245.642 99.432 246.749 99.9388 247.714 100.631C248.079 100.917 248.369 101.274 248.563 101.677C248.757 102.08 248.849 102.517 248.833 102.957C248.88 104.036 248.481 105.092 247.714 105.912Z" fill="#6C63FF"/>
<path d="M128.095 170.218C127.034 170.216 126.003 169.894 125.161 169.301C124.32 168.709 123.716 167.878 123.443 166.939L120.854 157.968C120.53 156.841 120.708 155.642 121.348 154.634C121.989 153.626 123.04 152.892 124.271 152.593L205.943 132.835C207.176 132.54 208.485 132.705 209.586 133.292C210.686 133.879 211.488 134.842 211.815 135.969L214.008 143.569L213.597 143.598C192.651 145.089 172.609 152.042 155.843 163.634L155.724 163.686L129.315 170.073C128.917 170.169 128.507 170.218 128.095 170.218Z" fill="#2F2E41"/>
<path d="M114.569 214.529C104.988 213.233 95.8254 210.061 87.7049 205.23C83.6819 202.838 79.9576 200.049 76.5988 196.914C73.2837 193.818 70.1122 190.3 68.4702 186.177C66.8903 182.363 66.9718 178.139 68.6976 174.378C70.4 170.64 73.6518 167.673 77.7402 166.127C81.8531 164.625 86.8222 164.465 90.8249 166.109C92.7323 166.874 94.3828 168.091 95.6071 169.633C96.1762 170.344 96.5975 171.145 96.8502 171.996C97.0846 172.766 97.1059 173.579 96.9122 174.359C96.6775 175.138 96.2636 175.862 95.6982 176.482C95.1328 177.103 94.4291 177.605 93.6341 177.957C91.8846 178.778 89.989 179.308 88.0364 179.519C86.0724 179.765 83.2512 179.988 81.6723 178.544C81.3473 178.259 81.0917 177.914 80.9221 177.532C80.8034 177.239 80.7628 176.925 80.8037 176.615C80.7807 176.752 80.899 176.318 80.8922 176.336C80.8673 176.4 80.7591 176.556 80.9128 176.316C80.9608 176.237 81.0143 176.161 81.0729 176.088C81.0207 176.149 80.9061 176.253 81.1108 176.076C81.2799 175.906 81.4973 175.783 81.7386 175.721C81.8336 175.696 81.93 175.675 82.0253 175.652C82.2676 175.591 81.7839 175.655 82.0317 175.648C82.1273 175.645 82.2241 175.647 82.3194 175.643C82.5625 175.633 82.0796 175.582 82.3126 175.636C82.403 175.657 82.4926 175.677 82.5818 175.703C82.7754 175.759 82.4446 175.573 82.5758 175.712C82.7297 175.875 82.4143 175.553 82.5892 175.711C82.6762 175.789 82.7582 175.872 82.8348 175.959C83.138 176.233 83.5469 176.387 83.9729 176.387C84.399 176.387 84.8079 176.233 85.1111 175.959C85.4039 175.678 85.5674 175.305 85.5674 174.917C85.5674 174.529 85.4039 174.156 85.1111 173.875C83.5239 172.074 80.3888 172.519 78.7832 174.041C76.7356 175.983 77.5465 179.06 79.5383 180.754C81.7931 182.672 84.9865 182.805 87.887 182.483C90.3382 182.268 92.7269 181.65 94.9385 180.659C97.1359 179.671 98.8545 177.971 99.7616 175.889C100.171 174.778 100.318 173.6 100.193 172.433C100.068 171.266 99.6738 170.136 99.0362 169.119C96.4754 164.711 91.1729 162.452 85.9316 162.06C83.2332 161.867 80.5196 162.165 77.9479 162.938C75.3762 163.711 72.9975 164.943 70.9494 166.563C67.0018 169.817 64.5709 174.335 64.1595 179.183C63.702 184.21 65.8323 189.091 68.9381 193.148C72.1897 197.27 76.0698 200.943 80.46 204.057C89.043 210.33 99.1107 214.677 109.858 216.75C111.136 216.991 112.421 217.198 113.713 217.371C114.124 217.462 114.558 217.406 114.926 217.215C115.293 217.024 115.568 216.711 115.693 216.341C115.803 215.965 115.747 215.563 115.537 215.224C115.327 214.885 114.979 214.635 114.569 214.529Z" fill="#3F3D56"/>
<path d="M267.96 150.485C253.923 150.304 239.93 150.63 225.982 151.464C221.214 151.749 217.089 153.291 217.089 155.884C217.089 158.052 221.181 160.592 225.982 160.305C239.923 159.471 253.916 159.145 267.96 159.326C279.409 159.474 279.403 150.633 267.96 150.485Z" fill="#CCCCCC"/>
<path d="M247.213 158.888C245.696 158.888 210.061 158.837 210.061 154.33C210.061 149.824 245.696 149.772 247.213 149.772C248.73 149.772 284.366 149.824 284.366 154.33C284.366 158.837 248.73 158.888 247.213 158.888ZM211.454 154.33C212.429 155.696 225.528 157.631 247.213 157.631C268.898 157.631 281.997 155.696 282.972 154.33C281.997 152.964 268.898 151.029 247.213 151.029C225.528 151.029 212.429 152.964 211.454 154.33Z" fill="#3F3D56"/>
<path d="M360.276 277.356C368.164 277.155 377.982 276.905 385.546 271.847C387.798 270.279 389.648 268.279 390.968 265.987C392.287 263.695 393.042 261.167 393.182 258.58C393.336 254.585 391.76 251.098 388.743 248.764C384.792 245.708 379.023 244.992 372.807 246.664L379.248 203.572L374.52 202.979L366.948 253.639L370.896 251.98C375.474 250.058 381.757 249.08 385.662 252.101C386.621 252.891 387.368 253.872 387.845 254.969C388.322 256.066 388.516 257.249 388.413 258.426C388.297 260.352 387.729 262.232 386.749 263.939C385.768 265.646 384.398 267.139 382.73 268.318C376.844 272.254 369.019 272.762 360.143 272.989L360.276 277.356Z" fill="#3F3D56"/>
<path d="M347.203 207.288H321.499V211.657H347.203V207.288Z" fill="#3F3D56"/>
<path d="M139.727 190.313C138.582 190.31 137.477 189.934 136.608 189.252C135.74 188.57 135.164 187.628 134.986 186.593L133.417 177.427C133.221 176.274 133.532 175.097 134.283 174.154C135.034 173.211 136.163 172.58 137.422 172.398L220.873 160.427C222.132 160.248 223.418 160.533 224.448 161.22C225.477 161.907 226.167 162.941 226.366 164.093L227.935 173.26C228.131 174.413 227.819 175.59 227.068 176.533C226.318 177.475 225.189 178.107 223.93 178.289L140.479 190.259C140.23 190.295 139.978 190.313 139.727 190.313Z" fill="#2F2E41"/>
<path d="M105.19 82.8892C124.531 82.8892 140.21 68.5351 140.21 50.8285C140.21 33.1219 124.531 18.7678 105.19 18.7678C85.8489 18.7678 70.1699 33.1219 70.1699 50.8285C70.1699 68.5351 85.8489 82.8892 105.19 82.8892Z" fill="#6C63FF"/>
<path d="M125.018 59.1241C126.137 58.7657 127.159 58.1921 128.016 57.4418C128.583 56.9068 129.016 56.2649 129.283 55.5609C129.55 54.8569 129.647 54.1079 129.565 53.3663C129.517 52.8377 129.336 52.3264 129.037 51.8723C128.738 51.4182 128.328 51.0336 127.84 50.7485C126.572 50.035 124.898 50.062 123.207 50.7795L123.012 38.2646L121.638 38.2825L121.868 52.9951L122.913 52.3675C124.125 51.6408 125.867 51.1139 127.12 51.8196C127.43 52.0064 127.689 52.2561 127.876 52.5493C128.063 52.8426 128.174 53.1714 128.2 53.5103C128.258 54.0628 128.185 54.6201 127.986 55.1445C127.788 55.6688 127.468 56.1478 127.049 56.5489C125.56 57.9012 123.357 58.3543 120.842 58.7687L121.086 60.006C122.422 59.8201 123.738 59.525 125.018 59.1241Z" fill="#2F2E41"/>
<path d="M137.153 37.3862L129.839 38.4001L130.045 39.6431L137.358 38.6292L137.153 37.3862Z" fill="#2F2E41"/>
<path d="M114.069 40.5859L106.756 41.5999L106.961 42.8428L114.275 41.8289L114.069 40.5859Z" fill="#2F2E41"/>
<path d="M128.333 189.753C127.073 189.75 125.845 189.397 124.81 188.739C123.775 188.082 122.984 187.151 122.541 186.072L98.3959 126.874C95.4447 119.613 95.7599 111.578 99.2722 104.53C102.785 97.4819 109.207 91.9974 117.131 89.2794L136.764 82.5679C137.523 82.3067 138.331 82.1854 139.142 82.2112C139.952 82.2369 140.749 82.4092 141.487 82.718C142.223 83.019 142.886 83.4512 143.437 83.9893C143.988 84.5275 144.417 85.1608 144.697 85.8523L189.424 163.165C189.715 163.862 189.852 164.605 189.827 165.351C189.803 166.097 189.618 166.831 189.282 167.511C188.947 168.19 188.468 168.803 187.873 169.313C187.278 169.823 186.578 170.22 185.815 170.481L130.493 189.393C129.802 189.63 129.07 189.752 128.333 189.753Z" fill="#2F2E41"/>
<path d="M130.807 84.6039L175.186 138.935L145.157 85.1742C144.909 84.5469 144.528 83.9705 144.037 83.4779C143.545 82.9853 142.953 82.5862 142.293 82.3033C141.633 82.0204 140.919 81.8593 140.191 81.8291C139.463 81.799 138.736 81.9005 138.05 82.1278L130.807 84.6039Z" fill="#E6E6E6"/>
<path d="M201.075 125.865L121.837 121.192C120.588 121.118 119.367 120.82 118.244 120.315C117.121 119.809 116.118 119.106 115.291 118.245C114.465 117.385 113.832 116.383 113.428 115.299C113.025 114.214 112.858 113.068 112.939 111.924C113.019 110.781 113.345 109.663 113.897 108.635C114.45 107.607 115.218 106.688 116.158 105.932C117.098 105.175 118.191 104.596 119.376 104.226C120.561 103.856 121.813 103.704 123.062 103.778L202.3 108.45C202.885 108.485 203.457 108.624 203.983 108.861C204.509 109.098 204.979 109.427 205.366 109.83C205.753 110.233 206.049 110.702 206.238 111.21C206.427 111.718 206.505 112.255 206.468 112.79L205.816 122.05C205.74 123.131 205.198 124.141 204.309 124.856C203.42 125.572 202.257 125.934 201.075 125.865Z" fill="#6C63FF"/>
<path d="M179.902 128.86C179.797 128.86 179.692 128.857 179.587 128.851L114.521 125.014C113.891 124.977 113.275 124.827 112.709 124.572C112.142 124.317 111.636 123.962 111.22 123.528C110.803 123.094 110.484 122.589 110.28 122.042C110.076 121.495 109.993 120.917 110.033 120.34L111.146 104.525C111.186 103.948 111.351 103.384 111.629 102.866C111.908 102.347 112.295 101.884 112.769 101.503C113.243 101.121 113.795 100.829 114.393 100.642C114.99 100.456 115.622 100.379 116.252 100.417L181.318 104.253C182.589 104.329 183.776 104.864 184.617 105.741C185.458 106.617 185.886 107.763 185.805 108.927L184.693 124.743C184.631 125.59 184.304 126.404 183.751 127.085C183.197 127.766 182.44 128.287 181.571 128.584C181.037 128.767 180.472 128.861 179.902 128.86Z" fill="#2F2E41"/>
<path d="M104.789 29.5087C109.396 25.8812 115.722 29.1262 121.005 28.5582C126.06 28.0147 130.051 23.8638 131.071 19.454C132.26 14.3092 129.344 9.15484 125.044 5.94715C120.336 2.43394 114.091 1.42539 108.173 2.07536C101.39 2.8203 95.1869 5.71477 89.6209 9.21579C84.2484 12.4905 79.3078 16.3232 74.8977 20.6377C70.9486 24.6306 67.6027 29.39 66.5343 34.7631C65.5633 39.646 66.3047 45.0571 69.4577 49.1936C71.1297 51.3138 73.3703 53.0037 75.9633 54.1003C78.6671 55.3158 81.5511 56.1847 84.1705 57.5589C88.131 59.6368 91.9803 63.9452 90.7397 68.4287C90.4737 69.4081 89.9488 70.3127 89.2112 71.0627C88.3249 71.9634 86.7263 70.7732 87.6149 69.8701C89.1756 68.284 89.1141 66.1687 88.2824 64.2751C87.2934 62.1412 85.5421 60.3781 83.3154 59.2747C80.5735 57.8395 77.5464 56.9537 74.7362 55.6464C72.0464 54.4523 69.7115 52.6809 67.9303 50.4829C64.5669 46.2037 63.5608 40.6347 64.3236 35.4829C65.1491 29.9079 68.2779 24.8418 72.2001 20.5964C76.4686 15.9763 81.7118 12.0654 87.0682 8.55206C92.8156 4.7822 99.1654 1.59504 106.192 0.442299C112.283 -0.55695 118.885 0.0582504 124.211 3.097C129.183 5.93349 132.995 10.8128 133.374 16.2649C133.51 18.7457 132.922 21.2148 131.67 23.4182C130.417 25.6216 128.546 27.4797 126.249 28.8013C123.892 30.0927 121.151 30.6739 118.414 30.463C115.488 30.2915 112.559 29.4712 109.614 29.6989C108.281 29.773 107.011 30.2427 105.996 31.037C104.99 31.8295 103.79 30.2947 104.789 29.5087Z" fill="#2F2E41"/>
</g>
<defs>
<clipPath id="clip0_401_1429">
<rect width="508.597" height="375.408" fill="white"/>
</clipPath>
</defs>
</svg>
