<?xml version="1.0" standalone="no"?>
<!DOCTYPE svg PUBLIC "-//W3C//DTD SVG 20010904//EN"
 "http://www.w3.org/TR/2001/REC-SVG-20010904/DTD/svg10.dtd">
<svg version="1.0" xmlns="http://www.w3.org/2000/svg"
 width="980.000000pt" height="980.000000pt" viewBox="0 0 980.000000 980.000000"
 preserveAspectRatio="xMidYMid meet">

<g transform="translate(0.000000,980.000000) scale(0.100000,-0.100000)"
fill="#000000" stroke="none">
<path d="M2515 8557 c-22 -12 -50 -38 -62 -56 -23 -33 -23 -38 -23 -340 0
-168 -4 -311 -8 -317 -4 -6 -50 -16 -103 -22 -405 -49 -728 -340 -826 -742
-17 -71 -18 -192 -18 -2560 l0 -2485 23 -85 c28 -101 97 -251 149 -323 133
-184 332 -320 553 -379 l85 -23 2615 0 2615 0 85 23 c238 65 456 223 582 422
43 69 101 204 125 290 17 61 18 206 21 2515 2 1771 0 2472 -8 2529 -45 312
-239 581 -525 724 -105 52 -197 79 -320 95 l-100 12 -5 322 c-6 365 -4 356
-90 401 -44 22 -48 22 -465 22 -594 0 -548 35 -555 -423 l-5 -322 -1355 0
-1355 0 -5 320 c-5 318 -5 320 -29 354 -13 18 -42 42 -65 52 -38 17 -73 19
-466 19 -422 0 -425 0 -465 -23z m685 -842 l0 -515 -215 0 -215 0 0 515 0 515
215 0 215 0 0 -515z m3830 0 l0 -515 -215 0 -215 0 0 515 0 515 215 0 215 0 0
-515z m-4600 -502 c5 -288 5 -286 74 -337 27 -20 39 -21 480 -21 l453 0 36 28
c66 50 67 57 67 342 l0 255 1358 -2 1357 -3 5 -262 c5 -288 5 -286 74 -337 27
-20 39 -21 480 -21 l453 0 36 28 c20 15 42 38 49 50 9 15 14 99 18 282 l5 260
32 3 c80 8 256 -62 346 -137 105 -87 183 -212 211 -338 13 -60 16 -144 16
-517 l0 -446 -3080 0 -3080 0 0 446 c0 375 3 456 16 517 48 211 208 383 419
450 64 20 92 25 135 23 l35 -1 5 -262z m5548 -3340 l-3 -1818 -23 -62 c-79
-211 -251 -365 -455 -407 -68 -14 -340 -16 -2605 -16 -2486 0 -2530 0 -2606
20 -106 27 -188 73 -271 152 -77 73 -124 143 -164 246 l-26 67 -3 1818 -2
1817 3080 0 3080 0 -2 -1817z"/>
<path d="M4821 5378 c-24 -11 -52 -35 -62 -52 -11 -17 -56 -143 -100 -281
-139 -432 -210 -649 -225 -692 l-16 -43 -531 0 -532 0 -40 -23 c-76 -43 -108
-149 -67 -227 22 -41 48 -62 514 -398 197 -141 358 -261 358 -267 0 -10 -6
-30 -199 -621 -67 -204 -121 -384 -121 -400 1 -76 74 -160 145 -165 79 -6 92
0 237 104 143 103 498 362 635 464 39 29 77 53 83 53 6 0 185 -128 398 -283
442 -323 456 -333 499 -342 40 -8 102 9 138 37 33 25 64 91 65 133 0 17 -27
111 -59 210 -208 636 -261 802 -261 810 0 6 26 28 58 51 31 22 181 130 332
239 516 373 490 350 498 435 6 60 -25 129 -71 162 l-32 23 -544 5 -544 5 -24
75 c-13 41 -67 208 -119 370 -198 613 -186 585 -256 619 -56 27 -101 27 -157
-1z m139 -905 c129 -404 136 -423 171 -459 18 -19 50 -39 71 -45 21 -5 149 -9
290 -9 139 0 277 0 307 0 l53 0 -228 -165 c-296 -214 -294 -212 -310 -251 -27
-65 -18 -113 77 -402 50 -152 93 -280 96 -284 13 -23 -35 8 -252 167 -269 196
-304 215 -371 197 -38 -10 -278 -176 -522 -360 -18 -14 -30 -19 -28 -11 3 8
46 140 96 294 82 250 91 286 88 338 -3 36 -12 67 -24 84 -11 15 -133 108 -271
207 -138 100 -249 183 -247 185 2 2 138 3 303 2 184 -1 314 2 338 8 21 6 53
26 71 44 34 35 66 120 182 490 24 75 46 137 50 137 3 0 30 -75 60 -167z"/>
</g>
</svg>
