<svg width="237" height="233" viewBox="0 0 237 233" fill="none" xmlns="http://www.w3.org/2000/svg">
<rect width="237" height="233" rx="26" fill="#4B9BEB"/>
<g clip-path="url(#clip0_459_570)">
<path d="M18 124.158C18 120.382 18 116.607 18.0709 112.712C18.5324 106.305 19.3408 100.072 20.8098 93.9428C26.8634 68.6836 40.0202 47.9159 60.5609 32.0056C79.3436 17.457 100.754 9.98526 124.495 9.17914C124.768 9.16986 125.038 9.0619 125.31 9C126.53 9 127.751 9 129.09 9.07298C129.36 9.15658 129.511 9.17409 129.662 9.17685C137.253 9.31495 144.758 10.211 152.136 11.9799C177.122 17.9702 197.731 30.95 213.582 51.1784C228.455 70.1575 236.079 91.8466 236.824 115.951C236.832 116.194 236.939 116.434 237 116.675C237 117.956 237 119.238 236.927 120.637C236.644 127.941 235.925 135.071 234.276 142.075C226.593 174.695 208.077 199.146 178.675 215.212C165.31 222.515 150.899 226.522 135.705 227.676C134.792 227.746 133.885 227.89 132.975 228C129.321 228 125.667 228 121.889 227.932C115.812 227.526 109.91 226.79 104.092 225.47C77.7372 219.492 56.271 205.819 39.967 184.275C27.1133 167.29 19.998 148.049 18.3202 126.805C18.2503 125.92 18.1084 125.04 18 124.158ZM148.502 49.4642C142.689 49.3377 137.888 51.5105 134.205 55.9792C131.046 59.8133 129.523 64.2571 130.482 69.2065C130.949 71.6135 131.896 73.9726 132.923 76.2172C135.788 82.4774 139.634 88.1624 143.619 93.7501C144.039 94.339 144.201 94.8868 144.107 95.5981C143.72 98.521 143.377 101.45 143.015 104.376C142.307 110.106 141.59 115.835 140.889 121.565C140.369 125.813 139.873 130.064 139.356 134.312C138.976 137.433 138.58 140.553 138.168 143.855C123.633 126.323 109.19 108.902 94.6394 91.3508C94.5639 91.7711 94.504 92.0279 94.4732 92.2881C94.2699 94.0053 94.0837 95.7245 93.8717 97.4405C93.2875 102.167 92.6838 106.892 92.1059 111.619C91.528 116.348 90.9814 121.08 90.4037 125.809C89.8258 130.539 89.2174 135.265 88.6389 139.995C88.0014 145.207 87.3549 150.419 86.7751 155.638C86.6256 156.984 86.141 158.092 85.3568 159.186C81.5195 164.543 77.9111 170.047 75.0682 176.013C73.8261 178.619 72.5325 181.275 72.4232 184.186C72.1567 191.283 75.1179 196.819 81.2261 200.449C87.8898 204.409 96.1923 203.512 101.948 198.284C106.005 194.598 108.105 189.958 107.762 184.413C107.572 181.34 106.317 178.536 104.997 175.799C101.995 169.573 98.1763 163.844 94.2034 158.209C93.8925 157.769 93.7177 157.093 93.7723 156.556C94.08 153.532 94.4747 150.518 94.8446 147.5C95.5544 141.71 96.2723 135.92 96.9775 130.129C97.4912 125.911 97.983 121.691 98.4975 117.473C98.8591 114.509 99.2425 111.547 99.6352 108.434C114.176 125.991 128.619 143.431 143.157 160.985C143.689 156.597 144.188 152.41 144.707 148.225C145.285 143.558 145.891 138.895 146.466 134.228C147.163 128.566 147.834 122.9 148.527 117.237C149.304 110.88 150.133 104.529 150.852 98.1649C151.078 96.1584 151.538 94.3451 152.919 92.788C153.718 91.8862 154.325 90.8108 155.003 89.8036C158.361 84.818 161.619 79.763 163.885 74.1711C164.696 72.1689 165.476 70.0143 165.59 67.8927C166.13 57.8739 158.133 49.7275 148.502 49.4642ZM43.9601 127.237C44.5459 122.595 45.1545 117.956 45.694 113.309C45.7802 112.566 45.9909 112.37 46.7251 112.372C56.3359 112.397 65.9468 112.388 75.5576 112.388C75.8831 112.388 76.2086 112.388 76.5752 112.388C76.94 109.141 77.2955 105.977 77.6642 102.696C67.4083 102.696 57.2141 102.696 46.9377 102.696C48.0499 93.5386 49.1474 84.5019 50.2516 75.4099C60.9052 75.4099 71.4776 75.4099 82.0907 75.4099C82.5097 72.1737 82.9209 68.9974 83.3316 65.8252C69.2479 65.8252 55.2456 65.8252 41.2468 65.8252C37.4613 96.6066 33.6841 127.32 29.9021 158.072C33.3387 158.072 36.706 158.072 40.1195 158.072C40.1669 157.784 40.2197 157.519 40.2531 157.251C40.9077 152.005 41.5635 146.76 42.2116 141.513C42.7927 136.809 43.3648 132.104 43.9601 127.237ZM164.882 149.202C164.514 152.144 164.146 155.086 163.773 158.071C167.238 158.071 170.604 158.071 174.018 158.071C175.912 142.84 177.802 127.632 179.701 112.359C190.004 112.359 200.21 112.359 210.459 112.359C210.818 109.127 211.17 105.967 211.535 102.678C201.233 102.678 191.039 102.678 180.814 102.678C181.926 93.5232 183.024 84.4895 184.128 75.4057C194.794 75.4057 205.368 75.4057 215.969 75.4057C216.385 72.1728 216.794 68.998 217.206 65.7905C203.127 65.7905 189.145 65.7905 175.128 65.7905C174.397 71.7273 173.669 77.6353 172.943 83.5436C172.246 89.2127 171.553 94.8822 170.856 100.551C170.154 106.25 169.449 111.949 168.747 117.648C168.045 123.347 167.345 129.046 166.647 134.745C166.062 139.51 165.481 144.274 164.882 149.202Z" fill="#4B9BEB"/>
<path d="M148.766 47.6514C158.316 47.9099 166.312 56.0564 165.772 66.0752C165.658 68.1968 164.878 70.3513 164.067 72.3536C161.801 77.9454 158.543 83.0005 155.185 87.9861C154.507 88.9933 153.901 90.0686 153.101 90.9704C151.72 92.5275 151.261 94.3408 151.034 96.3474C150.315 102.711 149.486 109.062 148.709 115.42C148.016 121.083 147.345 126.748 146.648 132.41C146.074 137.077 145.467 141.741 144.889 146.407C144.371 150.592 143.871 154.779 143.339 159.167C128.802 141.614 114.358 124.173 99.8174 106.616C99.4247 109.73 99.0413 112.692 98.6797 115.656C98.1652 119.873 97.6734 124.094 97.1598 128.311C96.4545 134.103 95.7366 139.892 95.0268 145.683C94.6569 148.7 94.2622 151.715 93.9545 154.739C93.8999 155.275 94.0748 155.951 94.3856 156.392C98.3585 162.027 102.177 167.755 105.179 173.982C106.499 176.718 107.754 179.522 107.944 182.596C108.287 188.14 106.187 192.781 102.13 196.466C96.3745 201.694 88.072 202.591 81.4083 198.631C75.3001 195.001 72.3389 189.466 72.6054 182.369C72.7147 179.458 74.0084 176.802 75.2505 174.195C78.0933 168.229 81.7017 162.725 85.539 157.369C86.3233 156.274 86.8078 155.166 86.9573 153.821C87.5371 148.602 88.1836 143.39 88.8211 138.177C89.3996 133.447 90.008 128.721 90.5859 123.991C91.1636 119.263 91.7102 114.53 92.2881 109.802C92.866 105.074 93.4697 100.35 94.0539 95.623C94.2659 93.9069 94.4521 92.1877 94.6554 90.4706C94.6862 90.2104 94.7461 89.9536 94.8216 89.5332C109.372 107.084 123.815 124.505 138.35 142.038C138.762 138.735 139.159 135.616 139.538 132.494C140.055 128.246 140.551 123.995 141.071 119.748C141.773 114.017 142.489 108.288 143.197 102.559C143.559 99.6323 143.902 96.7035 144.289 93.7806C144.383 93.0692 144.221 92.5214 143.801 91.9325C139.816 86.3449 135.97 80.6599 133.105 74.3997C132.078 72.1551 131.131 69.796 130.664 67.389C129.705 62.4396 131.228 57.9957 134.387 54.1616C138.07 49.693 142.872 47.5201 148.766 47.6514ZM141.973 69.8039C144.187 72.708 147.718 73.7077 151.058 72.376C154 71.2031 156.076 67.8424 155.711 64.8434C155.246 61.0208 152.782 58.2909 149.194 57.8252C146.014 57.4124 143.443 58.6036 141.728 61.3106C139.964 64.0947 140.139 66.9335 141.973 69.8039ZM91.5992 190.774C91.7461 190.738 91.8935 190.704 92.0397 190.666C96.3944 189.527 98.7992 185.375 97.5605 181.136C96.3572 177.017 91.9698 174.791 87.7777 176.173C84.1218 177.378 81.9725 181.332 82.9182 185.115C83.8845 188.98 87.5758 191.436 91.5992 190.774Z" fill="#FEFEFE"/>
<path d="M44.1333 125.501C43.5476 130.287 42.9755 134.992 42.3944 139.695C41.7463 144.942 41.0905 150.188 40.4359 155.433C40.4025 155.701 40.3497 155.966 40.3024 156.255C36.8889 156.255 33.5215 156.255 30.085 156.255C33.8669 125.503 37.6441 94.789 41.4296 64.0077C55.4284 64.0077 69.4307 64.0077 83.5145 64.0077C83.1038 67.1798 82.6925 70.3562 82.2735 73.5924C71.6604 73.5924 61.088 73.5924 50.4344 73.5924C49.3302 82.6843 48.2327 91.7211 47.1206 100.878C57.3969 100.878 67.5911 100.878 77.847 100.878C77.4783 104.16 77.1228 107.324 76.758 110.571C76.3915 110.571 76.066 110.571 75.7404 110.571C66.1296 110.571 56.5187 110.579 46.9079 110.554C46.1738 110.553 45.963 110.748 45.8768 111.491C45.3374 116.138 44.7287 120.778 44.1333 125.501Z" fill="#FDFDFD"/>
<path d="M165.073 147.303C165.664 142.457 166.245 137.692 166.829 132.928C167.528 127.228 168.228 121.529 168.93 115.83C169.631 110.131 170.337 104.433 171.038 98.7336C171.735 93.0647 172.429 87.3952 173.125 81.7262C173.851 75.8179 174.58 69.9098 175.311 63.973C189.327 63.973 203.309 63.973 217.389 63.973C216.976 67.1805 216.567 70.3553 216.151 73.5882C205.551 73.5882 194.976 73.5882 184.311 73.5882C183.207 82.672 182.109 91.7057 180.996 100.86C191.221 100.86 201.416 100.86 211.717 100.86C211.352 104.149 211.001 107.309 210.642 110.541C200.393 110.541 190.187 110.541 179.884 110.541C177.985 125.814 176.094 141.023 174.201 156.253C170.786 156.253 167.421 156.253 163.955 156.253C164.329 153.269 164.697 150.327 165.073 147.303Z" fill="#FDFDFD"/>
<path d="M141.938 69.7482C140.139 66.9336 139.964 64.0947 141.728 61.3106C143.443 58.6036 146.015 57.4124 149.195 57.8252C152.783 58.291 155.247 61.0208 155.712 64.8435C156.077 67.8424 154.001 71.2032 151.059 72.3761C147.718 73.7078 144.187 72.7081 141.938 69.7482Z" fill="#4B9BEB"/>
<path d="M91.5218 190.781C87.5756 191.436 83.8843 188.98 82.9181 185.115C81.9724 181.333 84.1216 177.378 87.7776 176.173C91.9697 174.792 96.357 177.017 97.5604 181.136C98.799 185.376 96.3943 189.527 92.0396 190.666C91.8933 190.704 91.7459 190.738 91.5218 190.781Z" fill="#4B9BEB"/>
</g>
<defs>
<clipPath id="clip0_459_570">
<rect width="219" height="219" fill="white" transform="translate(18 7)"/>
</clipPath>
</defs>
</svg>
