<svg width="91" height="91" viewBox="0 0 91 91" fill="none" xmlns="http://www.w3.org/2000/svg">
<g clip-path="url(#clip0_38_25)">
<path d="M0.0758057 47.9266C0.0758057 46.3578 0.0758057 44.789 0.105264 43.1709C0.297014 40.5086 0.63296 37.9186 1.24335 35.3717C3.75878 24.8758 9.22577 16.2464 17.7609 9.63522C25.5656 3.58991 34.4621 0.485207 44.3271 0.150242C44.4407 0.146385 44.5529 0.101526 44.6658 0.0758057C45.173 0.0758053 45.6801 0.0758053 46.2366 0.10613C46.3487 0.14087 46.4115 0.148146 46.4744 0.14929C49.6285 0.206674 52.747 0.579025 55.8128 1.31405C66.195 3.80315 74.7584 9.19658 81.3452 17.602C87.5252 25.4883 90.6932 34.5006 91.0028 44.5166C91.0059 44.6175 91.0506 44.7172 91.0758 44.8175C91.0758 45.3499 91.0758 45.8823 91.0454 46.4639C90.9277 49.4986 90.6292 52.4616 89.9438 55.3719C86.7515 68.9263 79.0576 79.0862 66.8402 85.7621C61.2867 88.7966 55.2988 90.4615 48.9851 90.9414C48.6058 90.9702 48.2289 91.0303 47.8508 91.0758C46.3326 91.0758 44.8143 91.0758 43.2445 91.0474C40.719 90.8787 38.2669 90.5729 35.849 90.0245C24.8981 87.5406 15.9783 81.8589 9.20366 72.907C3.8626 65.8493 0.906044 57.8541 0.208857 49.0269C0.179795 48.6589 0.120836 48.2933 0.0758057 47.9266ZM54.3029 16.8897C51.8874 16.8371 49.8921 17.74 48.362 19.5968C47.0492 21.19 46.4164 23.0365 46.815 25.0931C47.0088 26.0933 47.4023 27.0736 47.8292 28.0062C49.0196 30.6075 50.6178 32.9698 52.2737 35.2916C52.4482 35.5363 52.5155 35.7639 52.4763 36.0595C52.3155 37.274 52.1731 38.491 52.0227 39.707C51.7284 42.0878 51.4307 44.4682 51.1393 46.8494C50.9233 48.6145 50.7172 50.3807 50.5024 52.146C50.3446 53.4431 50.1798 54.7393 50.0087 56.1115C43.9689 48.8263 37.9675 41.5874 31.9214 34.2946C31.89 34.4693 31.8652 34.576 31.8524 34.6841C31.7679 35.3976 31.6905 36.112 31.6024 36.8251C31.3597 38.7892 31.1088 40.7523 30.8687 42.7167C30.6285 44.6816 30.4014 46.648 30.1613 48.6128C29.9212 50.5782 29.6684 52.542 29.4281 54.5074C29.1632 56.6734 28.8945 58.839 28.6536 61.0077C28.5915 61.5667 28.3901 62.0271 28.0643 62.482C26.4698 64.7077 24.9704 66.9948 23.7891 69.4737C23.273 70.5568 22.7354 71.6605 22.69 72.87C22.5793 75.819 23.8097 78.1193 26.3479 79.6276C29.1168 81.273 32.5667 80.9003 34.9582 78.728C36.6442 77.1965 37.5168 75.2683 37.3743 72.9644C37.2953 71.6874 36.7735 70.5222 36.2253 69.3851C34.9779 66.7979 33.3911 64.4175 31.7402 62.0761C31.6111 61.8929 31.5384 61.6121 31.5611 61.3891C31.6889 60.1327 31.853 58.8799 32.0067 57.6262C32.3016 55.22 32.5999 52.8143 32.893 50.4079C33.1064 48.6554 33.3108 46.9017 33.5245 45.1493C33.6748 43.9175 33.8341 42.6868 33.9973 41.393C40.0392 48.6884 46.041 55.9353 52.0817 63.2293C52.3028 61.4059 52.5102 59.6661 52.7257 57.9272C52.9659 55.9881 53.2179 54.0504 53.4566 52.1112C53.7463 49.7583 54.0252 47.4042 54.3129 45.0511C54.6359 42.4095 54.9805 39.7704 55.279 37.1261C55.3732 36.2923 55.5641 35.5388 56.1379 34.8918C56.4702 34.5171 56.7221 34.0703 57.004 33.6517C58.3994 31.5801 59.7531 29.4796 60.6947 27.156C61.0318 26.3241 61.3556 25.4288 61.4031 24.5472C61.6276 20.3841 58.3047 16.9991 54.3029 16.8897ZM10.8629 49.2063C11.1063 47.2775 11.3592 45.3498 11.5833 43.4187C11.6192 43.11 11.7067 43.0287 12.0118 43.0295C16.0053 43.0397 19.9989 43.0363 23.9924 43.0363C24.1277 43.0363 24.263 43.0363 24.4153 43.0363C24.5669 41.6871 24.7146 40.3723 24.8678 39.0087C20.6062 39.0087 16.3702 39.0087 12.1002 39.0087C12.5623 35.2037 13.0183 31.4487 13.4772 27.6708C17.904 27.6708 22.2971 27.6708 26.7071 27.6708C26.8812 26.3261 27.0521 25.0062 27.2227 23.6881C21.3706 23.6881 15.5523 23.6881 9.73542 23.6881C8.16244 36.4785 6.59292 49.2409 5.02144 62.0192C6.44941 62.0192 7.84863 62.0192 9.26703 62.0192C9.28671 61.8993 9.30865 61.789 9.32253 61.6777C9.59451 59.498 9.86703 57.3184 10.1363 55.1383C10.3778 53.1837 10.6155 51.2286 10.8629 49.2063ZM61.1091 58.3334C60.9562 59.5558 60.8032 60.7782 60.648 62.0185C62.0879 62.0185 63.4866 62.0185 64.9052 62.0185C65.692 55.6899 66.4777 49.3702 67.2667 43.0239C71.5478 43.0239 75.7887 43.0239 80.0475 43.0239C80.1967 41.6809 80.3426 40.3678 80.4944 39.0013C76.2139 39.0013 71.9777 39.0013 67.7289 39.0013C68.1913 35.1973 68.6475 31.4436 69.1063 27.669C73.5381 27.669 77.9321 27.669 82.3369 27.669C82.5097 26.3257 82.6795 25.0065 82.851 23.6737C77.0007 23.6737 71.1908 23.6737 65.3665 23.6737C65.0628 26.1406 64.7602 28.5955 64.4584 31.0506C64.1689 33.4062 63.8809 35.762 63.5911 38.1176C63.2998 40.4857 63.0066 42.8535 62.715 45.2216C62.4235 47.5897 62.1325 49.9578 61.8422 52.3261C61.5994 54.3058 61.3579 56.2857 61.1091 58.3334Z" fill="#4B9BEB"/>
<path d="M91.0758 44.7819C91.0506 44.7172 91.0059 44.6175 91.0028 44.5166C90.6932 34.5006 87.5252 25.4883 81.3452 17.602C74.7584 9.19658 66.195 3.80315 55.8128 1.31405C52.747 0.579025 49.6285 0.206674 46.4744 0.149291C46.4115 0.148147 46.3487 0.140871 46.2721 0.10613C61.1919 0.0758057 76.1256 0.0758057 91.0758 0.0758057C91.0758 14.966 91.0758 29.8562 91.0758 44.7819Z" fill="#4B9BEB"/>
<path d="M47.8864 91.0758C48.2289 91.0303 48.6058 90.9702 48.9851 90.9414C55.2988 90.4616 61.2867 88.7966 66.8402 85.7621C79.0576 79.0862 86.7515 68.9263 89.9438 55.3719C90.6292 52.4616 90.9277 49.4986 91.0454 46.4994C91.0758 61.3435 91.0758 76.2013 91.0758 91.0758C76.6912 91.0758 62.3065 91.0758 47.8864 91.0758Z" fill="#4B9BEB"/>
<path d="M44.6303 0.075806C44.5529 0.101526 44.4407 0.146385 44.3271 0.150243C34.4621 0.485207 25.5656 3.58991 17.7609 9.63522C9.22577 16.2463 3.75878 24.8758 1.24335 35.3717C0.63296 37.9186 0.297014 40.5086 0.105264 43.1353C0.0758057 28.7968 0.0758057 14.4444 0.0758057 0.0758057C14.9154 0.0758057 29.7551 0.0758057 44.6303 0.075806Z" fill="#4B9BEB"/>
<path d="M0.0758057 47.9622C0.120836 48.2934 0.179795 48.659 0.208857 49.0269C0.906044 57.8541 3.8626 65.8494 9.20366 72.907C15.9783 81.859 24.8981 87.5407 35.849 90.0245C38.2669 90.5729 40.719 90.8787 43.2089 91.0475C28.8474 91.0758 14.4699 91.0758 0.0758057 91.0758C0.0758057 76.7165 0.0758057 62.3571 0.0758057 47.9622Z" fill="#4B9BEB"/>
<path d="M54.3366 16.8917C58.3047 16.9991 61.6276 20.3842 61.4032 24.5472C61.3556 25.4288 61.0318 26.3241 60.6947 27.1561C59.7532 29.4796 58.3994 31.5801 57.004 33.6518C56.7221 34.0703 56.4703 34.5171 56.1379 34.8918C55.5641 35.5389 55.3732 36.2923 55.2791 37.1261C54.9805 39.7704 54.6359 42.4095 54.3129 45.0511C54.0252 47.4042 53.7463 49.7583 53.4566 52.1112C53.2179 54.0505 52.9659 55.9881 52.7257 57.9272C52.5103 59.6661 52.3029 61.4059 52.0817 63.2293C46.041 55.9354 40.0392 48.6884 33.9973 41.393C33.8341 42.6869 33.6748 43.9175 33.5246 45.1493C33.3108 46.9018 33.1064 48.6554 32.893 50.4079C32.5999 52.8143 32.3016 55.2201 32.0067 57.6262C31.853 58.88 31.689 60.1327 31.5611 61.3891C31.5384 61.6121 31.6111 61.8929 31.7403 62.0761C33.3911 64.4176 34.9779 66.798 36.2253 69.3851C36.7736 70.5223 37.2953 71.6874 37.3743 72.9644C37.5168 75.2684 36.6442 77.1966 34.9582 78.728C32.5667 80.9003 29.1168 81.273 26.3479 79.6276C23.8098 78.1193 22.5793 75.8191 22.69 72.8701C22.7354 71.6606 23.273 70.5569 23.7891 69.4738C24.9704 66.9948 26.4698 64.7077 28.0643 62.482C28.3901 62.0271 28.5915 61.5668 28.6536 61.0077C28.8945 58.8391 29.1632 56.6734 29.4281 54.5074C29.6684 52.5421 29.9213 50.5782 30.1614 48.6129C30.4014 46.648 30.6285 44.6816 30.8687 42.7168C31.1088 40.7523 31.3597 38.7892 31.6024 36.8251C31.6905 36.112 31.7679 35.3977 31.8524 34.6841C31.8652 34.576 31.8901 34.4693 31.9214 34.2946C37.9676 41.5875 43.9689 48.8263 50.0088 56.1115C50.1798 54.7394 50.3446 53.4431 50.5024 52.146C50.7172 50.3808 50.9233 48.6145 51.1393 46.8494C51.4308 44.4683 51.7284 42.0878 52.0227 39.707C52.1731 38.4911 52.3155 37.2741 52.4764 36.0595C52.5155 35.7639 52.4482 35.5363 52.2737 35.2916C50.6179 32.9698 49.0196 30.6076 47.8292 28.0063C47.4024 27.0736 47.0088 26.0933 46.815 25.0931C46.4164 23.0365 47.0492 21.19 48.362 19.5969C49.8921 17.74 51.8874 16.8371 54.3366 16.8917ZM51.5138 26.0966C52.4338 27.3033 53.9011 27.7188 55.2891 27.1654C56.5115 26.678 57.3742 25.2815 57.2226 24.0354C57.0293 22.447 56.0054 21.3127 54.5146 21.1191C53.1932 20.9476 52.1247 21.4426 51.412 22.5674C50.6791 23.7243 50.7519 24.9039 51.5138 26.0966ZM30.5824 76.3627C30.6435 76.3478 30.7047 76.3338 30.7655 76.3179C32.575 75.8445 33.5742 74.1195 33.0595 72.3579C32.5595 70.6465 30.7364 69.7216 28.9945 70.2956C27.4754 70.7962 26.5823 72.4395 26.9753 74.0113C27.3768 75.6171 28.9106 76.6378 30.5824 76.3627Z" fill="#FEFEFE"/>
<path d="M10.8589 49.2401C10.6156 51.2287 10.3778 53.1838 10.1364 55.1384C9.86707 57.3184 9.59455 59.4981 9.32258 61.6778C9.30869 61.7891 9.28675 61.8993 9.26707 62.0192C7.84867 62.0192 6.44945 62.0192 5.02148 62.0192C6.59296 49.2409 8.16248 36.4786 9.73546 23.6882C15.5523 23.6882 21.3706 23.6882 27.2228 23.6882C27.0521 25.0063 26.8812 26.3261 26.7071 27.6709C22.2971 27.6709 17.904 27.6709 13.4772 27.6709C13.0184 31.4488 12.5623 35.2038 12.1002 39.0087C16.3703 39.0087 20.6062 39.0087 24.8678 39.0087C24.7146 40.3723 24.5669 41.6871 24.4153 43.0363C24.263 43.0363 24.1277 43.0363 23.9925 43.0363C19.9989 43.0363 16.0054 43.0398 12.0118 43.0295C11.7068 43.0287 11.6192 43.1101 11.5834 43.4188C11.3592 45.3498 11.1063 47.2775 10.8589 49.2401Z" fill="#FDFDFD"/>
<path d="M61.1126 58.2995C61.358 56.2858 61.5995 54.3059 61.8422 52.3261C62.1326 49.9579 62.4235 47.5897 62.7151 45.2216C63.0066 42.8536 63.2998 40.4857 63.5912 38.1176C63.881 35.762 64.169 33.4062 64.4585 31.0506C64.7602 28.5955 65.0628 26.1406 65.3665 23.6737C71.1908 23.6737 77.0007 23.6737 82.8511 23.6737C82.6796 25.0065 82.5098 26.3257 82.3369 27.6691C77.9321 27.6691 73.5382 27.6691 69.1063 27.6691C68.6476 31.4436 68.1913 35.1973 67.729 39.0013C71.9778 39.0013 76.2139 39.0013 80.4945 39.0013C80.3426 40.3679 80.1968 41.6809 80.0476 43.0239C75.7887 43.0239 71.5479 43.0239 67.2668 43.0239C66.4778 49.3703 65.6921 55.6899 64.9053 62.0185C63.4866 62.0185 62.088 62.0185 60.648 62.0185C60.8032 60.7782 60.9562 59.5558 61.1126 58.2995Z" fill="#FDFDFD"/>
<path d="M51.499 26.0734C50.7519 24.9039 50.6791 23.7243 51.412 22.5674C52.1247 21.4426 53.1932 20.9476 54.5146 21.1191C56.0054 21.3126 57.0293 22.447 57.2226 24.0354C57.3742 25.2815 56.5115 26.678 55.2891 27.1654C53.9011 27.7187 52.4338 27.3033 51.499 26.0734Z" fill="#4949ff"/>
<path d="M30.5503 76.3658C28.9106 76.6378 27.3768 75.6171 26.9753 74.0113C26.5823 72.4395 27.4754 70.7961 28.9945 70.2956C30.7364 69.7216 32.5595 70.6465 33.0595 72.3579C33.5742 74.1195 32.575 75.8445 30.7655 76.3179C30.7047 76.3338 30.6434 76.3478 30.5503 76.3658Z" fill="#4B9BEB"/>
</g>
<defs fill="#4B9BEB">
<clipPath id="clip0_38_25" fill="#4B9BEB">
<rect width="91" height="91" fill="#4B9BEB"/>
</clipPath>
</defs>
</svg>