<svg width="57" height="51" viewBox="0 0 57 51" fill="none" xmlns="http://www.w3.org/2000/svg">
<path d="M42.9756 1.94648C36.6971 9.09698 47.2194 18.7473 53.9629 12.0037C56.3464 9.67832 55.9395 8.86445 52.6259 9.09698C50.2423 9.27138 49.661 9.09698 48.0914 7.52736C46.5218 5.8996 46.3474 5.3764 46.5218 2.99289C46.7543 -0.611425 45.5335 -0.96023 42.9756 1.94648ZM48.1495 10.3178C49.4285 11.0154 50.4749 11.713 50.4749 11.8874C50.4749 12.0037 49.6029 12.12 48.4983 12.12C45.5335 12.12 43.4988 9.91086 43.4988 6.77162L43.5569 4.27185L44.7196 6.65535C45.4753 8.16684 46.6962 9.50392 48.1495 10.3178Z" fill="black"/>
<path d="M25.4775 5.95774C25.4775 8.51565 25.1868 9.85273 24.6054 10.3759C24.1404 10.7829 23.7334 11.8874 23.7334 12.7594C23.7334 14.0965 23.3846 14.6197 22.2219 15.0848C16.9899 17.0614 13.0367 23.1655 13.0949 29.2114C13.0949 33.5715 14.1994 36.2457 17.3387 39.6756C19.9547 42.5241 24.6054 44.6751 28.0354 44.6751C33.7325 44.6751 39.7203 40.8383 42.1038 35.7224C43.8479 31.9437 43.9641 26.3047 42.3945 22.8167C41.0574 19.8518 37.5694 16.3056 35.0115 15.2592C33.4418 14.5616 33.0349 14.0965 33.0349 12.7594C33.0349 11.8293 32.628 10.7829 32.1629 10.3759C31.5815 9.85273 31.2909 8.51565 31.2909 5.95774V2.23716H28.3842H25.4775V5.95774ZM28.9655 7.17856C28.9655 8.63192 28.733 9.7946 28.3842 9.7946C28.0935 9.7946 27.8028 8.63192 27.8028 7.17856C27.8028 5.72521 28.0935 4.56252 28.3842 4.56252C28.733 4.56252 28.9655 5.72521 28.9655 7.17856ZM30.7095 12.992C30.7095 13.6315 30.0701 13.864 28.3842 13.864C26.6983 13.864 26.0588 13.6315 26.0588 12.992C26.0588 12.3525 26.6983 12.12 28.3842 12.12C30.0701 12.12 30.7095 12.3525 30.7095 12.992ZM30.0119 17.6427C30.6514 19.0379 30.6514 19.0961 28.3842 19.0961C25.8263 19.0961 25.7681 19.0379 26.7564 17.352C27.7447 15.7824 29.198 15.8987 30.0119 17.6427ZM24.3148 17.1776C24.2566 18.3985 23.1521 19.1542 21.6406 18.9798L19.9547 18.8054L21.6987 17.8171C23.6172 16.7126 24.3148 16.5382 24.3148 17.1776ZM34.9533 17.759L36.8136 18.8054L35.1277 18.9798C33.6162 19.1542 32.5117 18.3985 32.4536 17.1776C32.4536 16.5382 32.9186 16.6544 34.9533 17.759ZM22.5707 23.4561C22.5707 24.8514 22.3963 24.9095 19.3734 24.9095C16.176 24.9095 15.8272 24.677 16.5248 22.9329C16.7573 22.2353 17.6875 22.0028 19.7222 22.0028C22.3963 22.0028 22.5707 22.119 22.5707 23.4561ZM31.8722 23.4561C31.8722 24.8514 31.6978 24.9095 28.3842 24.9095C25.0705 24.9095 24.8961 24.8514 24.8961 23.4561C24.8961 22.0609 25.0705 22.0028 28.3842 22.0028C31.6978 22.0028 31.8722 22.0609 31.8722 23.4561ZM40.011 23.1073C40.883 24.8514 40.8249 24.9095 37.4531 24.9095C34.6045 24.9095 34.3138 24.7932 34.0813 23.4561C33.7906 22.0609 33.9069 22.0028 36.5811 22.0028C38.7902 22.0028 39.5459 22.2353 40.011 23.1073ZM21.9894 28.9789V30.7229H18.5013H15.0133V28.9789V27.2349H18.5013H21.9894V28.9789ZM32.4536 28.9789V30.7229H28.3842H24.3148V28.9789V27.2349H28.3842H32.4536V28.9789ZM41.6388 29.0951C41.8132 30.7229 41.8132 30.7229 38.1507 30.7229C34.4882 30.7229 34.4301 30.7229 34.5464 29.0951C34.6045 28.2231 34.7208 27.4674 34.7208 27.3511C34.7789 27.2349 36.2904 27.2349 38.1507 27.3511C41.2899 27.5255 41.4644 27.5837 41.6388 29.0951ZM22.687 34.7923C22.9777 36.5363 22.9195 36.5363 20.1872 36.5363C17.9781 36.5363 17.2224 36.3038 16.7573 35.4318C15.7109 33.3971 16.0597 33.0483 19.3152 33.0483C22.3382 33.0483 22.4545 33.1064 22.687 34.7923ZM31.8722 34.7923V36.5363H28.3842H24.8961V34.7923V33.0483H28.3842H31.8722V34.7923ZM40.5923 33.6877C40.5923 35.6062 39.3134 36.5363 36.5811 36.5363C33.8488 36.5363 33.7906 36.5363 34.0813 34.7923C34.3138 33.1064 34.4301 33.0483 37.4531 33.0483C39.3134 33.0483 40.5923 33.2808 40.5923 33.6877ZM23.966 39.7918C24.6636 41.594 24.2566 41.7684 21.9894 40.6057C20.7104 39.9662 19.664 39.2686 19.664 39.1524C19.664 38.978 20.536 38.8617 21.6406 38.8617C22.9195 38.8617 23.7334 39.2105 23.966 39.7918ZM30.7095 39.3849C30.7095 39.6756 30.1863 40.4894 29.5468 41.2452L28.3842 42.6404L27.2215 41.2452C25.5356 39.2686 25.7681 38.8617 28.3842 38.8617C29.6631 38.8617 30.7095 39.0942 30.7095 39.3849ZM37.1043 39.1524C37.1043 39.2686 36.0579 39.9662 34.7789 40.6057C32.5117 41.7684 32.1047 41.594 32.8024 39.7918C33.0349 39.2105 33.8488 38.8617 35.1277 38.8617C36.2323 38.8617 37.1043 38.978 37.1043 39.1524Z" fill="black"/>
<path d="M11.002 8.63189C10.3626 9.73644 9.02548 11.1317 8.0372 11.713C5.8281 13.0501 5.8281 13.5733 8.0372 14.736C8.96734 15.2011 10.1882 16.4219 10.6532 17.352C11.7578 19.503 13.0949 19.5611 13.9669 17.6427C14.3157 16.8288 15.4784 15.608 16.5829 14.9685C18.9083 13.5152 18.9664 13.0501 16.9317 11.713C16.0016 11.1317 15.1296 10.3759 14.897 10.0271C14.6645 9.67831 13.9669 8.74816 13.3274 7.99242L12.2229 6.5972L11.002 8.63189ZM13.5018 14.329L12.5135 15.5499L11.1764 14.329L9.89749 13.0501L11.1764 12.0618C12.3391 11.0735 12.4554 11.0735 13.4437 12.0618C14.4901 13.1082 14.4901 13.1664 13.5018 14.329Z" fill="black"/>
<path d="M49.8938 21.5378C49.8938 21.8866 48.6729 23.3399 47.2196 24.677L44.5454 27.1768L46.4057 28.3395C47.4521 28.9208 48.7311 30.2579 49.3705 31.2462C50.7076 33.5134 51.3471 33.5134 52.5098 31.3624C52.9749 30.3742 54.1375 29.1533 55.1258 28.572C57.3349 27.2931 57.3349 26.3629 55.1258 25.2002C54.1957 24.7352 52.9749 23.5143 52.5098 22.5842C51.6378 20.8983 49.8938 20.2007 49.8938 21.5378ZM51.9866 28.1069L50.8239 29.3859L49.8356 28.2232C48.9636 27.0605 48.9636 26.8861 49.8356 25.7234C50.7658 24.5026 50.7658 24.5026 51.9866 25.6653L53.1493 26.7698L51.9866 28.1069Z" fill="black"/>
<path d="M4.14206 27.7C3.61885 28.6301 2.45617 29.7928 1.52602 30.316C-0.508674 31.4787 -0.508674 32.2926 1.52602 33.4553C2.45617 33.9785 3.61885 35.1412 4.14206 36.0713C5.30474 38.106 6.40929 38.1641 7.45571 36.2457C7.86265 35.4318 9.08347 34.2691 10.188 33.6297C12.5715 32.2345 12.5715 31.595 10.4206 30.4323C9.43227 29.9672 8.21145 28.8045 7.63011 27.8163C6.35116 25.6072 5.36288 25.6072 4.14206 27.7ZM6.99064 32.9321C5.94422 33.9785 5.88609 33.9785 4.549 32.9321L3.27005 31.8856L4.549 30.8392C5.88609 29.7928 5.94422 29.7928 6.99064 30.8392C7.97892 31.8275 7.97892 31.9438 6.99064 32.9321Z" fill="black"/>
<path d="M42.9758 40.3732C42.2782 41.2452 41.755 42.1172 41.755 42.3497C41.755 42.5823 40.9992 43.1055 40.0109 43.5124C37.7437 44.4426 37.8018 45.4308 40.1853 46.9423C41.2899 47.5818 42.4526 48.8026 42.8014 49.6165C43.6734 51.5349 44.7779 51.4768 45.9988 49.3258C46.5801 48.3376 47.8009 47.1749 48.7892 46.7098C50.9983 45.5471 50.9402 44.9076 48.4404 43.4543C47.3358 42.8148 46.2894 41.7684 46.115 41.1871C45.4174 38.978 44.3129 38.6873 42.9758 40.3732ZM45.65 46.1866L44.4291 47.4655L43.1502 46.2447L41.8712 45.0239L43.0921 44.0356C44.2547 43.1636 44.4291 43.1636 45.5918 44.0356L46.8126 44.9658L45.65 46.1866Z" fill="black"/>
</svg>
