<svg width="167" height="347" viewBox="0 0 167 347" fill="none" xmlns="http://www.w3.org/2000/svg">
<path d="M124.073 338.165H133.187L137.524 303.011H124.073V338.165Z" fill="#FFB8B8"/>
<path d="M121.748 347H151.136V346.628C151.133 343.595 149.926 340.688 147.782 338.544C145.638 336.399 142.73 335.193 139.697 335.189H121.748L121.748 347Z" fill="#2F2E41"/>
<path d="M6.54306 320.894L14.3556 325.589L36.1785 297.689L24.6485 290.761L6.54306 320.894Z" fill="#FFB8B8"/>
<path d="M25.1902 342.406L25.3817 342.087C26.9405 339.486 27.404 336.372 26.6702 333.43C25.9365 330.487 24.0656 327.956 21.4679 326.391L6.08233 317.147L-0.000167847 327.271L25.1902 342.406Z" fill="#2F2E41"/>
<path d="M121.703 330.911L121.86 330.91C126.294 330.896 130.724 330.641 135.13 330.146C136.809 329.98 138.631 329.8 140.826 329.62L140.901 329.606C142.399 329.161 142.44 315.116 141.805 267.042C141.48 242.419 141.112 214.511 141.55 196.737L141.555 196.563L141.423 196.447C125.165 182.307 104.286 177.006 82.6316 181.522L82.471 181.555L82.3875 181.696C73.4301 196.853 59.9054 218.684 46.8261 239.797C16.8017 288.262 8.21448 302.516 9.15573 303.591L9.26918 303.679C11.3194 304.704 12.8586 305.493 14.1674 306.165C18.5496 308.412 20.3635 309.342 30.1094 313.355L30.3501 313.454L30.5256 313.262C60.9902 279.879 86.3421 242.589 102.023 208.117C103.856 219.885 106.08 235.253 108.43 251.49C115.188 298.181 119.755 328.927 121.593 330.799L121.703 330.911Z" fill="#2F2E41"/>
<path d="M74.3863 47.6643C71.3182 34.9962 68.7188 20.708 74.5051 9.0405C78.5198 0.945042 93.3719 -1.78115 101.886 1.13532C110.4 4.0518 116.555 11.9644 119.262 20.5917C121.97 29.2189 121.655 38.5154 120.475 47.484C104.817 47.1832 89.1588 46.8824 74.3863 47.6643Z" fill="#2F2E41"/>
<path d="M100.81 47.6606C90.7254 47.6606 82.5506 39.4858 82.5506 29.4016C82.5506 19.3174 90.7254 11.1426 100.81 11.1426C110.894 11.1426 119.069 19.3174 119.069 29.4016C119.069 39.4858 110.894 47.6606 100.81 47.6606Z" fill="#FFB8B8"/>
<path d="M113.495 200.329C95.3294 200.248 77.2835 203.269 60.135 209.263C59.5381 180.481 69.4471 151.645 87.3634 130.074L87.4974 129.913L87.4288 129.715C82.6433 115.887 77.6969 101.595 73.277 87.3728L73.3441 87.1339C76.4439 76.1137 83.0974 64.9778 93.6843 53.0889C94.8328 51.8992 96.3908 51.1906 98.0424 51.107C99.6939 51.0233 101.316 51.5708 102.578 52.6385C121.397 69.8895 131.629 95.7369 129.281 120.095L129.275 120.166L129.295 120.235C137.585 148.321 140.594 162.746 143.249 175.474C145.186 184.758 146.863 192.797 150.23 204.284C138.161 201.658 125.846 200.332 113.495 200.329Z" fill="#3F3D56"/>
<path opacity="0.1" d="M86.7503 111.546L113.719 170.258L129.125 154.664L86.7503 111.546Z" fill="black"/>
<path d="M147.283 144.157L145.403 147.811C145.386 147.845 145.383 147.884 145.394 147.92C145.406 147.956 145.431 147.986 145.465 148.004L145.555 148.051L135.76 167.083C135.489 167.61 135.439 168.223 135.619 168.787C135.8 169.351 136.197 169.82 136.724 170.091L148.617 176.211C148.877 176.346 149.162 176.427 149.454 176.451C149.746 176.475 150.041 176.442 150.32 176.352C150.599 176.263 150.858 176.119 151.082 175.93C151.305 175.74 151.49 175.508 151.624 175.247L161.076 156.882L161.141 156.916C161.165 156.928 161.193 156.931 161.218 156.923C161.244 156.915 161.265 156.897 161.277 156.873L162.348 154.794C162.354 154.782 162.357 154.769 162.358 154.756C162.36 154.742 162.358 154.729 162.354 154.716C162.35 154.704 162.343 154.692 162.335 154.682C162.326 154.672 162.316 154.663 162.304 154.657L162.238 154.623L162.641 153.84L162.707 153.874C162.733 153.887 162.762 153.889 162.788 153.881C162.815 153.872 162.837 153.853 162.85 153.828L163.906 151.777C163.918 151.752 163.921 151.723 163.912 151.697C163.904 151.67 163.885 151.648 163.86 151.635L163.794 151.601L164.344 150.532L164.411 150.566C164.433 150.578 164.459 150.58 164.483 150.572C164.507 150.565 164.526 150.548 164.538 150.526L165.114 149.406C165.125 149.384 165.127 149.358 165.12 149.335C165.112 149.311 165.096 149.291 165.074 149.28L165.006 149.245L166.173 146.979C166.444 146.452 166.494 145.84 166.314 145.276C166.133 144.712 165.736 144.243 165.209 143.972L153.317 137.851C152.79 137.58 152.177 137.529 151.613 137.71C151.049 137.891 150.58 138.288 150.309 138.814L147.567 144.142L147.476 144.096C147.443 144.078 147.403 144.075 147.367 144.087C147.331 144.098 147.301 144.124 147.283 144.157Z" fill="#3F3D56"/>
<path d="M151.058 139.696L136.626 167.737C136.455 168.071 136.423 168.46 136.537 168.818C136.652 169.175 136.904 169.473 137.238 169.645L148.622 175.504C148.955 175.676 149.344 175.709 149.701 175.595C150.058 175.481 150.356 175.23 150.528 174.897L150.53 174.893L164.962 146.852C165.047 146.687 165.098 146.506 165.114 146.321C165.129 146.135 165.108 145.949 165.051 145.771C164.994 145.594 164.903 145.43 164.783 145.288C164.663 145.146 164.516 145.029 164.35 144.944L162.646 144.067L162.534 144.285C162.464 144.422 162.367 144.543 162.251 144.642C162.134 144.741 161.998 144.816 161.852 144.863C161.706 144.909 161.553 144.927 161.4 144.914C161.247 144.902 161.099 144.859 160.962 144.789L155.173 141.809C154.898 141.668 154.69 141.423 154.596 141.128C154.501 140.833 154.528 140.513 154.669 140.238L154.782 140.019L152.966 139.085C152.632 138.913 152.243 138.881 151.886 138.995C151.528 139.11 151.23 139.362 151.058 139.696L151.058 139.696Z" fill="#4B9BEB"/>
<path d="M146.875 173.953C145.785 173.877 144.724 173.563 143.769 173.033C142.813 172.503 141.985 171.77 141.343 170.886C140.701 170.001 140.261 168.986 140.054 167.913C139.847 166.84 139.877 165.735 140.143 164.675L117.922 150.116L130.595 144.641L149.754 159.306C151.505 159.871 152.988 161.059 153.922 162.644C154.855 164.23 155.175 166.103 154.82 167.908C154.465 169.714 153.461 171.326 151.996 172.44C150.532 173.554 148.71 174.093 146.875 173.953Z" fill="#FFB8B8"/>
<path d="M125.493 163.465L125.773 163.267C131.062 159.374 136.933 155.349 142.611 151.456L142.952 151.222L142.683 150.908C130.565 136.73 118.433 121.92 106.699 107.593C106.708 107.57 106.715 107.553 106.721 107.541L106.611 107.485L106.564 107.428L106.539 107.449L106.468 107.413L106.788 107.438L110.404 79.0746C113.671 74.6181 114.297 65.7701 110.015 59.5938C105.581 53.1956 96.1997 51.0543 89.9384 55.0095C88.2981 56.1107 86.9266 57.5667 85.9252 59.2697C84.9238 60.9727 84.3183 62.8791 84.1533 64.8478C83.9208 66.6017 84.0829 68.3854 84.6278 70.0686C85.1727 71.7519 86.0866 73.2922 87.3029 74.5771C85.7656 89.5873 85.7068 103.004 85.6496 115.982L85.649 116.111L85.7293 116.218C98.2388 132.111 111.98 147.919 125.268 163.206L125.493 163.465Z" fill="#3F3D56"/>
</svg>
