<svg width="237" height="233" viewBox="0 0 237 233" fill="none" xmlns="http://www.w3.org/2000/svg">
<rect width="237" height="233" rx="26" fill="#4B9BEB"/>
<g clip-path="url(#clip0_459_570)">
<path d="M9.18262 129.34C9.18262 125.565 9.18262 121.789 9.25351 117.895C9.71497 111.488 10.5235 105.255 11.9924 99.1253C18.046 73.8661 31.2028 53.0984 51.7435 37.1881C70.5262 22.6395 91.9365 15.1678 115.678 14.3616C115.951 14.3524 116.221 14.2444 116.493 14.1825C117.713 14.1825 118.934 14.1825 120.273 14.2555C120.543 14.3391 120.694 14.3566 120.845 14.3593C128.436 14.4974 135.941 15.3935 143.319 17.1624C168.305 23.1527 188.913 36.1325 204.765 56.3609C219.638 75.3399 227.262 97.0291 228.007 121.133C228.014 121.376 228.122 121.616 228.183 121.857C228.183 123.139 228.183 124.42 228.109 125.82C227.826 133.123 227.108 140.254 225.458 147.258C217.776 179.878 199.26 204.328 169.857 220.395C156.492 227.697 142.082 231.704 126.887 232.859C125.975 232.928 125.067 233.073 124.158 233.182C120.504 233.182 116.85 233.183 113.072 233.114C106.994 232.708 101.093 231.972 95.2742 230.652C68.9198 224.675 47.4536 211.001 31.1496 189.457C18.2959 172.473 11.1807 153.231 9.50282 131.988C9.43288 131.102 9.29099 130.222 9.18262 129.34ZM139.685 54.6467C133.872 54.5202 129.07 56.693 125.388 61.1617C122.228 64.9958 120.706 69.4396 121.665 74.389C122.131 76.796 123.078 79.1551 124.105 81.3997C126.97 87.6599 130.817 93.3449 134.802 98.9326C135.222 99.5215 135.384 100.069 135.289 100.781C134.902 103.704 134.56 106.632 134.198 109.559C133.489 115.288 132.773 121.017 132.072 126.748C131.552 130.995 131.056 135.246 130.539 139.494C130.159 142.616 129.763 145.735 129.351 149.038C114.815 131.505 100.373 114.084 85.8221 96.5332C85.7465 96.9536 85.6866 97.2104 85.6558 97.4706C85.4525 99.1878 85.2664 100.907 85.0543 102.623C84.4701 107.35 83.8664 112.074 83.2885 116.802C82.7106 121.53 82.164 126.263 81.5863 130.991C81.0084 135.721 80.4 140.447 79.8216 145.177C79.1841 150.39 78.5375 155.602 77.9577 160.821C77.8082 162.166 77.3237 163.274 76.5394 164.369C72.7021 169.725 69.0937 175.229 66.2509 181.195C65.0088 183.802 63.7151 186.458 63.6058 189.369C63.3393 196.466 66.3006 202.001 72.4088 205.631C79.0724 209.591 87.3749 208.694 93.1303 203.466C97.1878 199.781 99.2878 195.14 98.9449 189.596C98.7548 186.522 97.4991 183.718 96.1797 180.982C93.1778 174.756 89.359 169.027 85.386 163.392C85.0752 162.951 84.9003 162.275 84.9549 161.739C85.2626 158.715 85.6573 155.7 86.0272 152.683C86.737 146.892 87.4549 141.103 88.1602 135.311C88.6738 131.094 89.1656 126.873 89.6801 122.656C90.0418 119.692 90.4251 116.73 90.8178 113.616C105.358 131.173 119.802 148.614 134.34 166.167C134.872 161.779 135.371 157.592 135.889 153.407C136.468 148.741 137.074 144.078 137.649 139.41C138.346 133.748 139.017 128.083 139.709 122.42C140.487 116.062 141.316 109.711 142.034 103.347C142.261 101.341 142.72 99.5276 144.101 97.9705C144.901 97.0687 145.507 95.9933 146.186 94.9861C149.544 90.0005 152.802 84.9455 155.068 79.3536C155.879 77.3514 156.658 75.1968 156.773 73.0752C157.313 63.0564 149.316 54.91 139.685 54.6467ZM35.1427 132.42C35.7285 127.778 36.3372 123.139 36.8766 118.491C36.9628 117.748 37.1736 117.553 37.9077 117.554C47.5185 117.579 57.1294 117.571 66.7402 117.571C67.0658 117.571 67.3913 117.571 67.7578 117.571C68.1226 114.324 68.4781 111.16 68.8468 107.878C58.5909 107.878 48.3967 107.878 38.1204 107.878C39.2325 98.7211 40.33 89.6844 41.4342 80.5924C52.0878 80.5924 62.6602 80.5924 73.2733 80.5924C73.6923 77.3562 74.1036 74.1799 74.5143 71.0077C60.4305 71.0077 46.4282 71.0077 32.4294 71.0077C28.6439 101.789 24.8667 132.503 21.0848 163.255C24.5213 163.255 27.8887 163.255 31.3022 163.255C31.3495 162.966 31.4023 162.701 31.4357 162.433C32.0903 157.188 32.7461 151.942 33.3942 146.696C33.9753 141.992 34.5474 137.287 35.1427 132.42ZM156.065 154.385C155.697 157.327 155.329 160.268 154.955 163.253C158.421 163.253 161.787 163.253 165.201 163.253C167.094 148.023 168.985 132.814 170.884 117.541C181.187 117.541 191.393 117.541 201.642 117.541C202.001 114.309 202.352 111.149 202.717 107.86C192.416 107.86 182.221 107.86 171.996 107.86C173.109 98.7057 174.207 89.672 175.311 80.5882C185.977 80.5882 196.551 80.5882 207.152 80.5882C207.568 77.3553 207.976 74.1805 208.389 70.973C194.309 70.973 180.327 70.973 166.311 70.973C165.58 76.9098 164.852 82.8178 164.125 88.7261C163.429 94.3952 162.736 100.065 162.038 105.734C161.337 111.433 160.631 117.131 159.93 122.83C159.228 128.529 158.528 134.228 157.829 139.928C157.245 144.692 156.664 149.457 156.065 154.385Z" fill="#4B9BEB"/>
<path d="M139.766 54.6514C149.316 54.9099 157.312 63.0564 156.772 73.0752C156.658 75.1968 155.878 77.3513 155.067 79.3536C152.801 84.9454 149.543 90.0005 146.185 94.9861C145.507 95.9933 144.901 97.0686 144.101 97.9704C142.72 99.5275 142.261 101.341 142.034 103.347C141.315 109.711 140.486 116.062 139.709 122.42C139.016 128.083 138.345 133.748 137.648 139.41C137.074 144.077 136.467 148.741 135.889 153.407C135.371 157.592 134.871 161.779 134.339 166.167C119.802 148.614 105.358 131.173 90.8174 113.616C90.4247 116.73 90.0413 119.692 89.6797 122.656C89.1652 126.873 88.6734 131.094 88.1598 135.311C87.4545 141.103 86.7366 146.892 86.0268 152.683C85.6569 155.7 85.2622 158.715 84.9545 161.739C84.8999 162.275 85.0748 162.951 85.3856 163.392C89.3585 169.027 93.1774 174.755 96.1793 180.982C97.4987 183.718 98.7544 186.522 98.9445 189.596C99.2874 195.14 97.1874 199.781 93.1299 203.466C87.3745 208.694 79.072 209.591 72.4083 205.631C66.3001 202.001 63.3389 196.466 63.6054 189.369C63.7147 186.458 65.0084 183.802 66.2505 181.195C69.0933 175.229 72.7017 169.725 76.539 164.369C77.3233 163.274 77.8078 162.166 77.9573 160.821C78.5371 155.602 79.1836 150.39 79.8211 145.177C80.3996 140.447 81.008 135.721 81.5859 130.991C82.1636 126.263 82.7102 121.53 83.2881 116.802C83.866 112.074 84.4697 107.35 85.0539 102.623C85.2659 100.907 85.4521 99.1877 85.6554 97.4706C85.6862 97.2104 85.7461 96.9536 85.8216 96.5332C100.372 114.084 114.815 131.505 129.35 149.038C129.762 145.735 130.159 142.616 130.538 139.494C131.055 135.246 131.551 130.995 132.071 126.748C132.773 121.017 133.489 115.288 134.197 109.559C134.559 106.632 134.902 103.704 135.289 100.781C135.383 100.069 135.221 99.5214 134.801 98.9325C130.816 93.3449 126.97 87.6599 124.105 81.3997C123.078 79.1551 122.131 76.796 121.664 74.389C120.705 69.4396 122.228 64.9957 125.387 61.1616C129.07 56.693 133.872 54.5201 139.766 54.6514ZM132.973 76.8039C135.187 79.708 138.718 80.7077 142.058 79.376C145 78.2031 147.076 74.8424 146.711 71.8434C146.246 68.0208 143.782 65.2909 140.194 64.8252C137.014 64.4124 134.443 65.6036 132.728 68.3106C130.964 71.0947 131.139 73.9335 132.973 76.8039ZM82.5992 197.774C82.7461 197.738 82.8935 197.704 83.0397 197.666C87.3944 196.527 89.7992 192.375 88.5605 188.136C87.3572 184.017 82.9698 181.791 78.7777 183.173C75.1218 184.378 72.9725 188.332 73.9182 192.115C74.8845 195.98 78.5758 198.436 82.5992 197.774Z" fill="#FEFEFE"/>
<path d="M35.1333 132.501C34.5476 137.287 33.9755 141.992 33.3944 146.695C32.7463 151.942 32.0905 157.188 31.4359 162.433C31.4025 162.701 31.3497 162.966 31.3024 163.255C27.8889 163.255 24.5215 163.255 21.085 163.255C24.8669 132.503 28.6441 101.789 32.4296 71.0077C46.4284 71.0077 60.4307 71.0077 74.5145 71.0077C74.1038 74.1798 73.6925 77.3562 73.2735 80.5924C62.6604 80.5924 52.088 80.5924 41.4344 80.5924C40.3302 89.6843 39.2327 98.7211 38.1206 107.878C48.3969 107.878 58.5911 107.878 68.847 107.878C68.4783 111.16 68.1228 114.324 67.758 117.571C67.3915 117.571 67.066 117.571 66.7404 117.571C57.1296 117.571 47.5187 117.579 37.9079 117.554C37.1738 117.553 36.963 117.748 36.8768 118.491C36.3374 123.138 35.7287 127.778 35.1333 132.501Z" fill="#FDFDFD"/>
<path d="M156.073 154.303C156.664 149.457 157.245 144.692 157.829 139.928C158.528 134.228 159.228 128.529 159.93 122.83C160.631 117.131 161.337 111.433 162.038 105.734C162.735 100.065 163.429 94.3952 164.125 88.7262C164.851 82.8179 165.58 76.9098 166.311 70.973C180.327 70.973 194.309 70.973 208.389 70.973C207.976 74.1805 207.567 77.3553 207.151 80.5882C196.551 80.5882 185.976 80.5882 175.311 80.5882C174.207 89.672 173.109 98.7057 171.996 107.86C182.221 107.86 192.416 107.86 202.717 107.86C202.352 111.149 202.001 114.309 201.642 117.541C191.393 117.541 181.187 117.541 170.884 117.541C168.985 132.814 167.094 148.023 165.201 163.253C161.786 163.253 158.421 163.253 154.955 163.253C155.329 160.269 155.697 157.327 156.073 154.303Z" fill="#FDFDFD"/>
<path d="M132.938 76.7482C131.139 73.9336 130.964 71.0947 132.728 68.3106C134.443 65.6036 137.015 64.4124 140.195 64.8252C143.783 65.291 146.247 68.0208 146.712 71.8435C147.077 74.8424 145.001 78.2032 142.059 79.3761C138.718 80.7078 135.187 79.7081 132.938 76.7482Z" fill="#4B9BEB"/>
<path d="M82.5218 197.781C78.5756 198.436 74.8843 195.98 73.9181 192.115C72.9724 188.333 75.1216 184.378 78.7776 183.173C82.9697 181.792 87.357 184.017 88.5604 188.136C89.799 192.376 87.3943 196.527 83.0396 197.666C82.8933 197.704 82.7459 197.738 82.5218 197.781Z" fill="#4B9BEB"/>
</g>
<defs>
<clipPath id="clip0_459_570">
<rect width="219" height="219" fill="white" transform="translate(9 14)"/>
</clipPath>
</defs>
</svg>
