<svg width="91" height="91" viewBox="0 0 91 91" fill="none" xmlns="http://www.w3.org/2000/svg">
<g clip-path="url(#clip0_426_497)">
<path d="M0.0759277 47.9266C0.0759278 46.3578 0.0759278 44.789 0.105386 43.1709C0.297136 40.5086 0.633082 37.9186 1.24347 35.3717C3.7589 24.8758 9.22589 16.2464 17.7611 9.63522C25.5657 3.58991 34.4622 0.485207 44.3273 0.150242C44.4409 0.146385 44.5531 0.101526 44.6659 0.0758057C45.1731 0.0758053 45.6802 0.0758053 46.2367 0.10613C46.3488 0.14087 46.4116 0.148146 46.4745 0.14929C49.6286 0.206674 52.7472 0.579025 55.813 1.31405C66.1951 3.80315 74.7585 9.19658 81.3453 17.602C87.5253 25.4883 90.6933 34.5006 91.0029 44.5166C91.0061 44.6176 91.0507 44.7172 91.0759 44.8175C91.0759 45.3499 91.0759 45.8823 91.0455 46.4639C90.9279 49.4986 90.6293 52.4616 89.9439 55.3719C86.7516 68.9263 79.0577 79.0862 66.8403 85.7621C61.2868 88.7966 55.2989 90.4616 48.9852 90.9414C48.6059 90.9702 48.229 91.0303 47.8509 91.0758C46.3327 91.0758 44.8144 91.0758 43.2446 91.0474C40.7191 90.8787 38.267 90.5729 35.8491 90.0245C24.8982 87.5406 15.9785 81.8589 9.20378 72.9069C3.86272 65.8493 0.906166 57.8541 0.208979 49.0269C0.179917 48.6589 0.120958 48.2933 0.0759277 47.9266ZM54.303 16.8897C51.8875 16.8371 49.8922 17.74 48.3621 19.5968C47.0493 21.19 46.4165 23.0365 46.8151 25.0931C47.0089 26.0933 47.4025 27.0736 47.8293 28.0062C49.0197 30.6075 50.618 32.9698 52.2738 35.2916C52.4483 35.5363 52.5156 35.7639 52.4765 36.0595C52.3156 37.274 52.1732 38.491 52.0228 39.707C51.7285 42.0878 51.4309 44.4682 51.1394 46.8494C50.9234 48.6145 50.7173 50.3807 50.5025 52.146C50.3447 53.4431 50.1799 54.7393 50.0089 56.1115C43.969 48.8263 37.9677 41.5874 31.9215 34.2946C31.8902 34.4693 31.8653 34.576 31.8525 34.6841C31.768 35.3976 31.6906 36.112 31.6025 36.8251C31.3598 38.7892 31.1089 40.7523 30.8688 42.7167C30.6286 44.6816 30.4015 46.648 30.1615 48.6128C29.9213 50.5782 29.6685 52.542 29.4282 54.5074C29.1633 56.6734 28.8946 58.839 28.6537 61.0077C28.5916 61.5667 28.3902 62.0271 28.0644 62.482C26.4699 64.7077 24.9705 66.9948 23.7892 69.4737C23.2731 70.5568 22.7355 71.6605 22.6901 72.87C22.5794 75.819 23.8099 78.1193 26.348 79.6276C29.1169 81.273 32.5668 80.9003 34.9583 78.728C36.6443 77.1965 37.5169 75.2683 37.3744 72.9644C37.2954 71.6874 36.7737 70.5222 36.2254 69.3851C34.978 66.7979 33.3912 64.4175 31.7404 62.0761C31.6112 61.8929 31.5385 61.6121 31.5612 61.3891C31.6891 60.1327 31.8531 58.8799 32.0068 57.6262C32.3017 55.22 32.6 52.8143 32.8931 50.4079C33.1065 48.6554 33.3109 46.9017 33.5247 45.1493C33.6749 43.9175 33.8342 42.6868 33.9974 41.393C40.0393 48.6884 46.0411 55.9353 52.0818 63.2293C52.303 61.4059 52.5104 59.6661 52.7258 57.9272C52.966 55.9881 53.218 54.0505 53.4567 52.1112C53.7464 49.7583 54.0253 47.4042 54.313 45.0511C54.636 42.4095 54.9806 39.7704 55.2792 37.1261C55.3733 36.2923 55.5642 35.5388 56.138 34.8918C56.4704 34.5171 56.7222 34.0703 57.0041 33.6517C58.3995 31.5801 59.7533 29.4796 60.6948 27.156C61.0319 26.3241 61.3557 25.4288 61.4033 24.5472C61.6277 20.3841 58.3048 16.9991 54.303 16.8897ZM10.863 49.2063C11.1064 47.2775 11.3593 45.3498 11.5835 43.4187C11.6193 43.11 11.7069 43.0287 12.0119 43.0295C16.0054 43.0397 19.999 43.0363 23.9926 43.0363C24.1278 43.0363 24.2631 43.0363 24.4154 43.0363C24.567 41.6871 24.7147 40.3723 24.8679 39.0087C20.6063 39.0087 16.3704 39.0087 12.1003 39.0087C12.5624 35.2037 13.0184 31.4487 13.4773 27.6708C17.9041 27.6708 22.2972 27.6708 26.7072 27.6708C26.8813 26.3261 27.0522 25.0062 27.2229 23.6881C21.3707 23.6881 15.5524 23.6881 9.73554 23.6881C8.16257 36.4785 6.59305 49.2409 5.02157 62.0192C6.44953 62.0192 7.84875 62.0192 9.26715 62.0192C9.28684 61.8993 9.30877 61.789 9.32266 61.6777C9.59463 59.498 9.86716 57.3184 10.1365 55.1383C10.3779 53.1837 10.6156 51.2286 10.863 49.2063ZM61.1093 58.3334C60.9563 59.5558 60.8033 60.7782 60.6481 62.0185C62.0881 62.0185 63.4867 62.0185 64.9053 62.0185C65.6921 55.6899 66.4778 49.3702 67.2669 43.0239C71.5479 43.0239 75.7888 43.0239 80.0476 43.0239C80.1968 41.6809 80.3427 40.3678 80.4945 39.0013C76.214 39.0013 71.9778 39.0013 67.7291 39.0013C68.1914 35.1973 68.6477 31.4436 69.1064 27.669C73.5383 27.669 77.9322 27.669 82.337 27.669C82.5099 26.3257 82.6796 25.0065 82.8512 23.6737C77.0008 23.6737 71.1909 23.6737 65.3666 23.6737C65.0629 26.1406 64.7603 28.5955 64.4586 31.0506C64.169 33.4062 63.881 35.762 63.5912 38.1176C63.2999 40.4857 63.0067 42.8535 62.7151 45.2216C62.4236 47.5897 62.1327 49.9578 61.8423 52.3261C61.5996 54.3058 61.3581 56.2857 61.1093 58.3334Z" fill="#4B9BEB"/>
<path d="M54.3366 16.8917C58.3047 16.9992 61.6275 20.3842 61.4031 24.5473C61.3556 25.4289 61.0318 26.3241 60.6946 27.1561C59.7531 29.4797 58.3994 31.5802 57.0039 33.6518C56.722 34.0703 56.4702 34.5172 56.1379 34.8919C55.5641 35.5389 55.3731 36.2924 55.279 37.1262C54.9804 39.7705 54.6358 42.4096 54.3129 45.0512C54.0252 47.4042 53.7462 49.7584 53.4566 52.1113C53.2178 54.0505 52.9658 55.9882 52.7256 57.9273C52.5102 59.6661 52.3028 61.406 52.0817 63.2294C46.0409 55.9354 40.0391 48.6885 33.9972 41.3931C33.8341 42.6869 33.6748 43.9176 33.5245 45.1494C33.3107 46.9018 33.1063 48.6555 32.8929 50.408C32.5999 52.8144 32.3016 55.2201 32.0066 57.6263C31.8529 58.88 31.6889 60.1328 31.5611 61.3891C31.5384 61.6122 31.611 61.893 31.7402 62.0762C33.3911 64.4176 34.9779 66.798 36.2252 69.3852C36.7735 70.5223 37.2953 71.6875 37.3742 72.9645C37.5167 75.2684 36.6441 77.1966 34.9581 78.7281C32.5666 80.9003 29.1168 81.2731 26.3478 79.6277C23.8097 78.1194 22.5792 75.8191 22.69 72.8701C22.7354 71.6606 23.2729 70.5569 23.7891 69.4738C24.9703 66.9949 26.4697 64.7078 28.0642 62.4821C28.3901 62.0272 28.5914 61.5668 28.6535 61.0078C28.8945 58.8391 29.1631 56.6735 29.428 54.5075C29.6684 52.5421 29.9212 50.5783 30.1613 48.6129C30.4014 46.6481 30.6285 44.6817 30.8686 42.7168C31.1087 40.7524 31.3596 38.7893 31.6024 36.8251C31.6905 36.1121 31.7678 35.3977 31.8523 34.6842C31.8651 34.5761 31.89 34.4694 31.9214 34.2947C37.9675 41.5875 43.9689 48.8264 50.0087 56.1116C50.1798 54.7394 50.3445 53.4432 50.5023 52.1461C50.7171 50.3808 50.9232 48.6146 51.1393 46.8495C51.4307 44.4683 51.7283 42.0879 52.0227 39.7071C52.173 38.4911 52.3154 37.2741 52.4763 36.0596C52.5154 35.764 52.4482 35.5364 52.2736 35.2917C50.6178 32.9699 49.0195 30.6076 47.8291 28.0063C47.4023 27.0736 47.0088 26.0934 46.8149 25.0932C46.4164 23.0366 47.0491 21.1901 48.362 19.5969C49.892 17.7401 51.8874 16.8372 54.3366 16.8917ZM51.5138 26.0967C52.4337 27.3034 53.901 27.7188 55.289 27.1655C56.5115 26.6781 57.3741 25.2816 57.2225 24.0355C57.0293 22.4471 56.0054 21.3127 54.5145 21.1192C53.1932 20.9477 52.1247 21.4426 51.412 22.5675C50.679 23.7243 50.7518 24.9039 51.5138 26.0967ZM30.5824 76.3627C30.6434 76.3479 30.7047 76.3339 30.7654 76.318C32.5749 75.8446 33.5741 74.1196 33.0595 72.3579C32.5594 70.6465 30.7364 69.7216 28.9945 70.2956C27.4753 70.7962 26.5822 72.4396 26.9752 74.0113C27.3767 75.6172 28.9105 76.6379 30.5824 76.3627Z" fill="#FEFEFE"/>
<path d="M10.8589 49.24C10.6156 51.2286 10.3778 53.1837 10.1364 55.1383C9.86707 57.3183 9.59455 59.498 9.32258 61.6777C9.30869 61.789 9.28675 61.8993 9.26707 62.0192C7.84867 62.0192 6.44945 62.0192 5.02148 62.0192C6.59296 49.2409 8.16248 36.4785 9.73546 23.6881C15.5523 23.6881 21.3706 23.6881 27.2228 23.6881C27.0521 25.0062 26.8812 26.3261 26.7071 27.6708C22.2971 27.6708 17.904 27.6708 13.4772 27.6708C13.0184 31.4487 12.5623 35.2037 12.1002 39.0087C16.3703 39.0087 20.6062 39.0087 24.8678 39.0087C24.7146 40.3723 24.5669 41.6871 24.4153 43.0363C24.263 43.0363 24.1277 43.0363 23.9925 43.0363C19.9989 43.0363 16.0054 43.0397 12.0118 43.0294C11.7068 43.0287 11.6192 43.11 11.5834 43.4187C11.3592 45.3498 11.1063 47.2775 10.8589 49.24Z" fill="#FDFDFD"/>
<path d="M61.1125 58.2995C61.3579 56.2858 61.5994 54.3059 61.8422 52.3261C62.1325 49.9579 62.4235 47.5897 62.715 45.2216C63.0065 42.8536 63.2998 40.4857 63.5911 38.1176C63.8809 35.762 64.1689 33.4062 64.4584 31.0506C64.7602 28.5955 65.0628 26.1406 65.3665 23.6737C71.1908 23.6737 77.0006 23.6737 82.851 23.6737C82.6795 25.0065 82.5097 26.3257 82.3369 27.6691C77.932 27.6691 73.5381 27.6691 69.1063 27.6691C68.6475 31.4436 68.1913 35.1973 67.7289 39.0013C71.9777 39.0013 76.2139 39.0013 80.4944 39.0013C80.3426 40.3679 80.1967 41.6809 80.0475 43.0239C75.7886 43.0239 71.5478 43.0239 67.2667 43.0239C66.4777 49.3703 65.692 55.6899 64.9052 62.0185C63.4866 62.0185 62.0879 62.0185 60.6479 62.0185C60.8032 60.7782 60.9562 59.5558 61.1125 58.2995Z" fill="#FDFDFD"/>
<path d="M51.4991 26.0734C50.7519 24.9039 50.6791 23.7243 51.4121 22.5674C52.1248 21.4426 53.1933 20.9476 54.5146 21.1191C56.0055 21.3126 57.0294 22.447 57.2226 24.0354C57.3742 25.2815 56.5116 26.678 55.2891 27.1654C53.9012 27.7187 52.4338 27.3033 51.4991 26.0734Z" fill="#4B9BEB"/>
<path d="M30.5504 76.3658C28.9107 76.6378 27.3769 75.6171 26.9754 74.0113C26.5824 72.4396 27.4755 70.7962 28.9946 70.2956C30.7366 69.7216 32.5596 70.6465 33.0596 72.3579C33.5743 74.1195 32.5751 75.8446 30.7656 76.3179C30.7048 76.3338 30.6436 76.3478 30.5504 76.3658Z" fill="#4B9BEB"/>
</g>
<defs>
<clipPath id="clip0_426_497">
<rect width="91" height="91" fill="white"/>
</clipPath>
</defs>
</svg>
