<svg width="422" height="337" viewBox="0 0 422 337" fill="none" xmlns="http://www.w3.org/2000/svg">
<path d="M-3.05176e-05 0H422V249.57H-3.05176e-05V0Z" fill="#E6E6E6"/>
<path d="M12.3662 31.3745H409.634V234.596H12.3662V31.3745Z" fill="white"/>
<path d="M271.286 52.0532H374.081V213.204H271.286V52.0532Z" fill="#E6E6E6"/>
<path d="M168.491 52.0532H254.282V96.9758H168.491V52.0532Z" fill="#4B9BEB"/>
<path d="M168.491 109.098H254.282V156.872H168.491V109.098Z" fill="#E6E6E6"/>
<path d="M168.491 168.995H254.282V213.204H168.491V168.995Z" fill="#E6E6E6"/>
<path d="M47.9195 52.0532H150.714V122.646H47.9195V52.0532Z" fill="#E6E6E6"/>
<path d="M47.9195 143.325H150.714V213.204H47.9195V143.325Z" fill="#E6E6E6"/>
<path d="M87.3369 127.739V112.459C87.3369 107.029 85.0569 101.821 80.9984 97.9813C76.9399 94.1415 71.4354 91.9844 65.6959 91.9844C59.9563 91.9844 54.4518 94.1415 50.3933 97.9813C46.3349 101.821 44.0549 107.029 44.0549 112.459V127.739C44.0557 128.468 44.3623 129.167 44.9073 129.683C45.4523 130.199 46.1911 130.489 46.9619 130.489H84.4299C85.2006 130.489 85.9395 130.199 86.4845 129.683C87.0295 129.167 87.336 128.468 87.3369 127.739Z" fill="#2F2E41"/>
<path d="M33.2345 324.575L40.8318 326.58L52.5569 299.59L41.3442 296.631L33.2345 324.575Z" fill="#FFB8B8"/>
<path d="M47.0673 325.71L32.132 321.897L29.5295 330.573L53.8685 336.787C54.2102 335.648 54.3054 334.457 54.1486 333.284C53.9918 332.111 53.586 330.978 52.9544 329.949C52.3229 328.921 51.4779 328.017 50.4678 327.29C49.4577 326.562 48.3022 326.026 47.0673 325.71Z" fill="#2F2E41"/>
<path d="M113.617 330.145H121.995L125.982 300.91H113.616L113.617 330.145Z" fill="#FFB8B8"/>
<path d="M127.721 328.006H112.07V336.563H137.575C137.575 335.439 137.32 334.327 136.825 333.289C136.33 332.25 135.604 331.307 134.689 330.513C133.774 329.718 132.688 329.088 131.492 328.658C130.296 328.228 129.015 328.006 127.721 328.006Z" fill="#2F2E41"/>
<path d="M123.863 170.247C123.281 170.963 122.534 171.555 121.675 171.979C120.816 172.403 119.866 172.651 118.89 172.704C117.915 172.757 116.939 172.614 116.031 172.286C115.122 171.958 114.304 171.452 113.633 170.804L91.9743 179.69L93.9444 168.576L114.21 161.841C115.478 160.886 117.087 160.388 118.731 160.441C120.374 160.495 121.939 161.097 123.129 162.133C124.319 163.17 125.051 164.568 125.186 166.063C125.321 167.559 124.85 169.047 123.863 170.247Z" fill="#FFB8B8"/>
<path d="M79.2457 236.735C85.9726 236.735 92.9365 235.809 98.7899 233.053C101.897 231.619 104.651 229.608 106.879 227.145C109.107 224.681 110.761 221.82 111.738 218.738C114.788 209.809 110.942 201.037 107.224 192.554C104.919 187.298 102.743 182.333 102.178 177.439L101.981 175.701C101.101 167.897 100.342 161.157 96.1356 158.629C93.9556 157.318 91.0245 157.244 87.1741 158.4L51.011 169.262L52.3407 232.734L52.5604 232.802C52.7497 232.861 65.498 236.735 79.2457 236.735Z" fill="#2F2E41"/>
<path d="M88.0451 138.922C88.0451 138.922 70.2567 134.07 56.4213 135.889C56.4213 135.889 64.3272 175.917 61.6919 189.259C59.0566 202.602 107.481 194.414 97.5981 181.678L94.304 166.516C94.304 166.516 100.892 160.452 94.9628 153.174L88.0451 138.922Z" fill="#4B9BEB"/>
<path d="M96.4944 235.309L118.253 231.546L110.656 177.617C110.146 176.111 98.3779 141.943 93.0334 140.094C89.1529 138.834 85.1844 137.817 81.1551 137.05L80.381 136.907L84.7438 142.944L102.114 181.34L96.4944 235.309Z" fill="#2F2E41"/>
<path d="M107.804 323.015L136.029 318.68L120.19 259.07L96.6202 177.551L96.3877 178.999C96.3692 179.107 94.1674 189.756 61.4957 185.031L61.2084 184.989L61.129 185.247L21.6409 313.837L53.8018 318.777L83.1348 224.958L107.804 323.015Z" fill="#2F2E41"/>
<path d="M68.7876 245.291L68.7702 244.835C68.7506 244.328 66.8253 193.89 67.4684 173.605C68.1137 153.252 61.0102 135.626 60.9384 135.45L60.8806 135.308L60.7236 135.266C51.5332 132.831 43.5602 140.1 43.4807 140.174L43.3687 140.278L45.9861 160.31L34.7803 233.154L68.7876 245.291Z" fill="#2F2E41"/>
<path d="M70.3334 129.777C61.3694 129.777 54.1027 123.232 54.1027 115.159C54.1027 107.086 61.3694 100.542 70.3334 100.542C79.2974 100.542 86.5642 107.086 86.5642 115.159C86.5642 123.232 79.2974 129.777 70.3334 129.777Z" fill="#FFB8B8"/>
<path d="M92.7473 113.785C92.7421 109.517 90.9174 105.426 87.6735 102.408C84.4296 99.3907 80.0314 97.6933 75.4438 97.6885H72.1789C67.5913 97.6933 63.1931 99.3907 59.9492 102.408C56.7053 105.426 54.8807 109.517 54.8755 113.785V114.089H61.7751L64.1284 107.959L64.599 114.089H68.1648L69.3521 110.996L69.5896 114.089H92.7473V113.785Z" fill="#2F2E41"/>
<path d="M72.0734 132.201C72.4045 131.788 72.6022 131.298 72.6438 130.786C72.6854 130.274 72.5692 129.762 72.3085 129.308C68.7719 123.115 63.8201 111.671 70.3928 104.613L70.8652 104.106H51.784V130.482L69.1178 133.298C69.2933 133.327 69.4712 133.341 69.6494 133.341C70.1226 133.341 70.589 133.238 71.0104 133.04C71.4318 132.841 71.7961 132.554 72.0734 132.201Z" fill="#2F2E41"/>
<path d="M147.212 24.9454C160.337 14.7414 176.397 8.27227 193.439 6.32507C210.482 4.37788 227.771 7.03663 243.203 13.9778C258.635 20.9189 271.544 31.8432 280.361 45.4213C289.177 58.9994 293.52 74.6459 292.862 90.4568C292.203 106.268 286.571 121.561 276.65 134.477C266.73 147.392 252.949 157.372 236.985 163.203C221.021 169.033 203.561 170.463 186.731 167.318C169.902 164.172 154.427 156.588 142.19 145.487L33.5288 229.966C31.8755 231.254 29.7346 231.884 27.5771 231.717C25.4196 231.551 23.4223 230.602 22.0245 229.078C20.6268 227.555 19.943 225.582 20.1237 223.594C20.3044 221.607 21.3347 219.766 22.988 218.478L23 218.469L131.661 133.99C119.038 117.298 113.636 96.8635 116.512 76.6922C119.389 56.5209 130.337 38.0665 147.212 24.9454ZM154.217 125.855C162.682 135.099 173.932 141.822 186.545 145.174C199.157 148.527 212.565 148.358 225.073 144.689C237.581 141.021 248.627 134.017 256.815 124.564C265.003 115.111 269.965 103.633 271.073 91.5816C272.181 79.5303 269.386 67.4468 263.041 56.8593C256.695 46.2717 247.085 37.6556 235.425 32.1004C223.765 26.5453 210.579 24.3007 197.535 25.6504C184.49 27.0002 172.173 31.8836 162.141 39.6833C155.479 44.8621 149.99 51.199 145.987 58.3323C141.984 65.4655 139.545 73.2554 138.809 81.2572C138.074 89.259 139.056 97.316 141.699 104.968C144.343 112.62 148.597 119.718 154.217 125.855Z" fill="#3F3D56"/>
<path opacity="0.3" d="M247.619 133.254C260.366 123.304 268.601 109.283 270.69 93.9761C272.779 78.6691 268.568 63.1952 258.894 50.627C260.165 51.8105 261.393 53.0499 262.579 54.3454C268.206 60.5143 272.465 67.648 275.111 75.3392C277.758 83.0304 278.741 91.1286 278.005 99.1713C277.268 107.214 274.826 115.044 270.818 122.213C266.81 129.383 261.315 135.753 254.646 140.958C247.977 146.163 240.265 150.102 231.951 152.551C223.636 154.999 214.881 155.908 206.187 155.227C197.492 154.546 189.028 152.287 181.277 148.579C173.526 144.872 166.64 139.789 161.013 133.62C159.83 132.323 158.716 130.995 157.67 129.635C169.436 140.57 185.218 147.013 201.881 147.683C218.544 148.354 234.871 143.203 247.619 133.254Z" fill="black"/>
<path d="M65.1646 195.92C64.2151 196.127 63.2262 196.146 62.2675 195.975C61.3089 195.804 60.4039 195.447 59.6163 194.929C58.8287 194.412 58.1776 193.746 57.7089 192.979C57.2401 192.212 56.9652 191.362 56.9034 190.49L34.0072 184.807L43.3145 177.551L63.6302 184.06C65.276 184.064 66.8628 184.608 68.09 185.589C69.3172 186.569 70.0995 187.919 70.2887 189.38C70.4778 190.842 70.0607 192.315 69.1163 193.521C68.1719 194.726 66.7659 195.579 65.1646 195.92Z" fill="#FFB8B8"/>
<path d="M55.8067 193.238L57.1941 181.198L38.1504 171.6L50.5664 157.87L48.5406 142.447L43.4954 140.472L43.3385 140.656C40.9595 143.451 20.0952 168.044 20.0952 171.084C20.0952 174.206 24.0867 183.376 29.5476 185.87C34.8152 188.277 54.5955 192.953 55.4349 193.151L55.8067 193.238Z" fill="#2F2E41"/>
</svg>
