<svg width="660" height="360" viewBox="0 0 660 360" fill="none" xmlns="http://www.w3.org/2000/svg">
<g clip-path="url(#clip0_333_568)">
<path d="M72.0653 253.223C69.2207 253.503 66.1151 253.924 62.8115 254.543C48.8138 257.158 48.5168 265.871 48.6428 267.868L48.5438 267.81C47.1395 269.881 46.2574 271.977 45.7172 273.949L45.0781 247.241C45.4922 246.449 45.8703 245.55 46.1853 244.634C47.2295 247.596 48.9489 250.385 50.4342 250.203C52.3605 249.964 53.1977 244.766 52.8376 241.078C55.2861 243.966 59.4089 247.06 60.9662 246.102C62.2084 245.343 61.4703 242.208 60.12 239.353C62.9465 240.913 66.0791 241.936 67.0513 240.946C68.3746 239.593 65.197 234.98 62.2714 232.406C66.1872 232.745 71.1741 232.167 71.5072 230.533C71.7772 229.188 68.8067 227.489 65.629 226.391C68.8157 225.624 71.8042 224.279 71.7052 222.951C71.5882 221.375 67.1593 220.311 63.3336 220.154C66.2142 218.091 68.8607 215.228 68.0505 213.941C67.3034 212.753 63.8467 213.215 60.6511 214.263C62.5415 211.788 63.8737 208.991 62.8565 208.034C61.5963 206.845 57.1224 208.9 54.0618 211.169C54.656 207.629 54.3589 203.166 52.6216 202.761C51.1723 202.423 49.1199 205.022 47.7156 207.852C47.0945 204.882 45.8343 202.06 44.385 202.06C42.3146 202.06 40.6403 207.778 40.6403 211.507C40.6403 211.722 40.6403 211.92 40.6583 212.109C40.4512 211.887 40.2082 211.656 39.9382 211.416C37.0216 208.817 31.3775 205.938 29.9282 207.299C28.92 208.256 30.2433 211.045 32.1337 213.529C28.9381 212.481 25.4724 212.019 24.7343 213.207C23.7351 214.799 28.0109 218.784 31.4855 220.715C31.2785 220.69 31.0535 220.674 30.8194 220.657C26.7596 220.401 20.4224 221.548 20.2784 223.438C20.1794 224.766 23.159 226.111 26.3546 226.878C23.177 227.976 20.2154 229.675 20.4764 231.02C20.8005 232.654 25.7875 233.231 29.7122 232.893C26.7866 235.467 23.609 240.079 24.9323 241.433C25.9045 242.423 29.0371 241.4 31.8636 239.84C30.5044 242.695 29.7752 245.83 31.0174 246.589C32.6558 247.596 37.1656 244.089 39.5331 241.078C39.29 244.766 40.2532 249.832 42.1616 250.03C42.9627 250.112 43.8089 249.329 44.574 248.132L42.4136 276.836C41.9095 280.178 45.1411 282.364 45.4292 283.734L45.8973 303.173C45.3662 301.787 44.6641 300.368 43.7009 298.965L43.6018 299.023C43.7279 297.026 43.4308 288.313 29.4331 285.698C26.1295 285.079 23.0239 284.658 20.1794 284.378C16.8217 284.048 15.5075 288.264 18.5411 289.625C22.9339 291.597 27.0657 294.081 29.2261 297.018C34.7352 304.534 42.3416 300.194 43.4308 299.518C44.637 301.366 45.4292 303.222 45.9333 304.988L46.1853 315.31C46.1223 315.557 46.0863 315.689 46.0773 315.697L46.1943 315.73L46.7975 340.714L52.3605 340.672L50.3711 315.136C50.7042 313.759 51.7304 309.064 50.3711 304.196L48.3818 284.13L45.7893 276.242C46.1673 273.8 47.0405 271.061 48.8228 268.346C49.903 269.023 57.5185 273.371 63.0276 265.846C65.179 262.909 69.3197 260.426 73.7126 258.454C76.7462 257.092 75.4409 252.876 72.0743 253.206L72.0653 253.223ZM46.6534 312.331L46.5454 307.958C46.7524 309.608 46.7434 311.102 46.6534 312.331Z" fill="#F2F2F2"/>
<path d="M0.519653 341.918C0.519653 342.463 0.996744 342.9 1.59086 342.9H658.077C658.671 342.9 659.148 342.463 659.148 341.918C659.148 341.374 658.671 340.937 658.077 340.937H1.59086C0.996744 340.937 0.519653 341.374 0.519653 341.918Z" fill="#3F3D56"/>
<path d="M398.918 342.784C425.764 342.784 447.527 322.837 447.527 298.23C447.527 273.624 425.764 253.676 398.918 253.676C372.071 253.676 350.308 273.624 350.308 298.23C350.308 322.837 372.071 342.784 398.918 342.784Z" fill="#3F3D56"/>
<path d="M398.918 327.933C416.815 327.933 431.324 314.635 431.324 298.23C431.324 281.826 416.815 268.528 398.918 268.528C381.02 268.528 366.511 281.826 366.511 298.23C366.511 314.635 381.02 327.933 398.918 327.933Z" fill="white"/>
<path d="M398.918 315.144C409.109 315.144 417.371 307.572 417.371 298.23C417.371 288.889 409.109 281.316 398.918 281.316C388.726 281.316 380.464 288.889 380.464 298.23C380.464 307.572 388.726 315.144 398.918 315.144Z" fill="#3F3D56"/>
<path d="M118.064 342.784C144.91 342.784 166.673 322.837 166.673 298.23C166.673 273.624 144.91 253.676 118.064 253.676C91.2179 253.676 69.4548 273.624 69.4548 298.23C69.4548 322.837 91.2179 342.784 118.064 342.784Z" fill="#3F3D56"/>
<path d="M118.064 327.933C135.961 327.933 150.47 314.635 150.47 298.23C150.47 281.826 135.961 268.528 118.064 268.528C100.167 268.528 85.6578 281.826 85.6578 298.23C85.6578 314.635 100.167 327.933 118.064 327.933Z" fill="white"/>
<path d="M465.413 277.043C459.085 262.414 436.959 217.72 397.549 202.926C397.243 202.811 396.928 202.736 396.604 202.695L270.211 186.103C268.132 185.831 266.187 187.134 265.854 189.04L263.64 201.581C263.487 202.439 263.685 203.322 264.198 204.057C270.616 213.182 311.754 275.137 245.879 275.137C180.005 275.137 161.848 231.928 158.968 224.296C158.698 223.578 158.689 222.802 158.932 222.076L178.898 164.115C179.249 163.083 179.06 162.027 178.484 161.186L187.26 146.244L203.337 154.585L211.664 154.676L240.082 168.29L245.87 159.626L187.26 132.828C187.26 132.828 187.359 126.623 168.456 121.673L138.75 109.297L135.149 113.422L144.151 120.023L145.051 124.973L151.352 126.623L163.955 148.9L160.354 155.286L164.729 157.242L163.478 156.978C161.668 156.598 159.823 157.456 159.085 159.016L139.227 200.732C138.921 201.367 138.417 201.911 137.778 202.291L130.702 206.474C130.045 206.862 129.523 207.431 129.226 208.099L121.143 226.061C120.891 226.622 120.819 227.208 120.882 227.777C110.809 229.527 81.202 237.084 64.9359 266.894L83.8395 280.92C83.8395 280.92 113.473 263.346 162.443 281.646C170.958 293.792 183.371 303.866 201.303 304.815C248.571 307.323 326.886 309.798 335.888 299.897C342.477 292.645 347.059 288.123 349.048 286.217C349.75 285.549 350.704 285.161 351.713 285.128L461.939 281.902C464.612 281.828 466.385 279.336 465.404 277.059L465.413 277.043Z" fill="#4B9BEB"/>
<path d="M161.272 147.242C169.227 147.242 175.675 141.332 175.675 134.041C175.675 126.75 169.227 120.84 161.272 120.84C153.318 120.84 146.87 126.75 146.87 134.041C146.87 141.332 153.318 147.242 161.272 147.242Z" fill="#3F3D56"/>
<path d="M391.923 202.984C391.752 202.984 391.581 202.984 391.41 202.976L270.985 198.702C265.656 198.512 261.092 195.402 259.355 190.781L257.708 186.384C256.366 182.803 256.952 178.958 259.31 175.847C261.677 172.737 265.404 170.905 269.536 170.814L393.958 168.191C397.81 168.108 401.519 169.618 404.031 172.341C406.542 175.064 407.568 178.628 406.839 182.134L404.49 193.421C403.328 199.024 398.08 202.976 391.914 202.976L391.923 202.984Z" fill="#3F3D56"/>
<path d="M118.064 315.144C128.256 315.144 136.518 307.572 136.518 298.23C136.518 288.889 128.256 281.316 118.064 281.316C107.872 281.316 99.6105 288.889 99.6105 298.23C99.6105 307.572 107.872 315.144 118.064 315.144Z" fill="#3F3D56"/>
<path d="M440.307 250.079C437.427 250.079 434.681 248.668 433.214 246.234L424.095 231.102C422.646 228.701 422.736 225.888 424.32 223.569C425.905 221.243 428.641 219.939 431.612 220.088L448.166 220.863C451.245 221.012 454.017 222.786 455.223 225.393L460.057 235.871C460.939 237.794 460.921 239.889 459.994 241.795C459.067 243.693 457.375 245.12 455.232 245.797L442.972 249.675C442.099 249.955 441.199 250.087 440.317 250.087L440.307 250.079Z" fill="#3F3D56"/>
<path d="M230.973 350.647C230.838 350.647 230.694 350.647 230.559 350.622L226.886 350.251C225.689 350.127 224.644 349.509 224.032 348.552C223.42 347.594 223.339 346.464 223.807 345.441L242.927 303.824C243.449 302.686 244.61 301.877 245.951 301.72C247.257 301.572 248.526 302.042 249.363 302.974C250.191 303.907 250.443 305.144 250.02 306.283L234.582 348.271C234.06 349.69 232.584 350.639 230.982 350.639L230.973 350.647Z" fill="#3F3D56"/>
<path d="M330.235 60.2302C330.235 60.2302 323.24 47.4086 324.635 35.874L301.357 46.93L302.257 67.9199L330.235 60.2302Z" fill="#A0616A"/>
<path d="M315.787 52.8539C327.385 52.8539 336.788 44.2358 336.788 33.6049C336.788 22.974 327.385 14.356 315.787 14.356C304.188 14.356 294.786 22.974 294.786 33.6049C294.786 44.2358 304.188 52.8539 315.787 52.8539Z" fill="#A0616A"/>
<path d="M337.238 335.846H324.419L318.325 290.541H337.238V335.846Z" fill="#A0616A"/>
<path d="M293.337 335.573C292.94 336.192 292.724 338.181 292.724 338.89C292.724 341.093 294.669 342.875 297.072 342.875H336.752C338.39 342.875 339.722 341.654 339.722 340.153V338.634C339.722 338.634 341.685 334.08 337.643 328.478C337.643 328.478 332.62 332.867 325.113 325.994L322.898 322.323L306.875 333.065L297.99 334.064C296.046 334.286 294.327 334.031 293.327 335.573H293.337Z" fill="#2F2E41"/>
<path d="M299.458 60.2301L330.235 56.3853L354.017 66.6409L355.412 146.129C355.412 146.129 296.919 152.539 287.701 144.206C278.484 135.873 285.478 69.2069 285.478 69.2069L299.467 60.2301H299.458Z" fill="#E6E6E6"/>
<path d="M310.53 38.5057H304.886C304.886 38.5057 299.989 32.9777 300.646 36.344C301.303 39.7103 298.666 43.3323 298.666 43.3323L294.714 42.1277C294.714 42.1277 286.81 11.6578 310.53 9.98287C334.249 8.30797 339.524 25.222 339.524 25.222C339.524 25.222 338.21 33.679 335.573 31.2615C332.935 28.8441 318.442 27.6394 318.442 27.6394L310.539 38.5139L310.53 38.5057Z" fill="#2F2E41"/>
<path d="M295.596 325.664L283.273 328.849L263.973 286.779L282.174 282.067L295.596 325.664Z" fill="#A0616A"/>
<path d="M253.27 336.341C253.072 337.034 253.459 338.998 253.666 339.691C254.314 341.811 256.718 343.04 259.031 342.446L297.216 332.562C298.792 332.158 299.71 330.648 299.269 329.204L298.819 327.744C298.819 327.744 299.359 322.876 293.805 318.486C293.805 318.486 290.276 323.965 281.013 319.212L277.791 316.226L265.557 330.549L257.312 333.725C255.511 334.418 253.774 334.608 253.27 336.341Z" fill="#2F2E41"/>
<path d="M351.209 138.438L355.403 150.072V190.047L342.81 310.706H318.217L315.445 224.576L317.632 182.035L270.724 247.084L291.338 293.544L268.645 307.414C268.645 307.414 234.708 236.531 239.785 229.659C244.862 222.794 290.339 141.714 290.339 141.714C290.339 141.714 351.191 139.726 351.191 138.447L351.209 138.438Z" fill="#2F2E41"/>
<path d="M363.802 92.2842L370.562 102.433C370.562 102.433 380.122 136.871 370.562 137.011C361.002 137.152 341.703 119.462 341.703 119.462L344.223 110.23L351.217 112.796L349.822 92.2842H363.811H363.802Z" fill="#A0616A"/>
<path d="M342.819 66.4841C342.819 66.4841 365.197 62.8703 367.295 76.2943C369.392 89.7182 370.562 102.441 370.562 102.441L346.312 104.281L342.819 66.4841Z" fill="#E6E6E6"/>
<path d="M347.68 118.338C349.705 115.733 346.74 110.614 341.059 106.905C335.378 103.196 329.131 102.302 327.106 104.907C325.082 107.513 328.046 112.632 333.727 116.341C339.408 120.049 345.655 120.944 347.68 118.338Z" fill="#A0616A"/>
<path d="M532.053 253.223C529.208 253.503 526.103 253.924 522.799 254.543C508.802 257.158 508.505 265.871 508.631 267.868L508.532 267.81C507.127 269.881 506.245 271.977 505.705 273.949L505.066 247.241C505.48 246.449 505.858 245.55 506.173 244.634C507.217 247.596 508.937 250.385 510.422 250.203C512.348 249.964 513.185 244.766 512.825 241.078C515.274 243.966 519.397 247.06 520.954 246.102C522.196 245.343 521.458 242.208 520.108 239.353C522.934 240.913 526.067 241.936 527.039 240.946C528.362 239.593 525.185 234.98 522.259 232.406C526.175 232.745 531.162 232.167 531.495 230.533C531.765 229.188 528.794 227.489 525.617 226.391C528.803 225.624 531.792 224.279 531.693 222.951C531.576 221.375 527.147 220.311 523.321 220.154C526.202 218.091 528.848 215.228 528.038 213.941C527.291 212.753 523.834 213.215 520.639 214.263C522.529 211.788 523.861 208.991 522.844 208.034C521.584 206.845 517.11 208.9 514.05 211.169C514.644 207.629 514.347 203.166 512.609 202.761C511.16 202.423 509.108 205.022 507.703 207.852C507.082 204.882 505.822 202.06 504.373 202.06C502.302 202.06 500.628 207.778 500.628 211.507C500.628 211.722 500.628 211.92 500.646 212.109C500.439 211.887 500.196 211.656 499.926 211.416C497.009 208.817 491.365 205.938 489.916 207.299C488.908 208.256 490.231 211.045 492.121 213.529C488.926 212.481 485.46 212.019 484.722 213.207C483.723 214.799 487.999 218.784 491.473 220.715C491.266 220.69 491.041 220.674 490.807 220.657C486.747 220.401 480.41 221.548 480.266 223.438C480.167 224.766 483.147 226.111 486.342 226.878C483.165 227.976 480.203 229.675 480.464 231.02C480.788 232.654 485.775 233.231 489.7 232.893C486.774 235.467 483.597 240.079 484.92 241.433C485.892 242.423 489.025 241.4 491.851 239.84C490.492 242.695 489.763 245.83 491.005 246.589C492.644 247.596 497.153 244.089 499.521 241.078C499.278 244.766 500.241 249.832 502.149 250.03C502.951 250.112 503.797 249.329 504.562 248.132L502.401 276.836C501.897 280.178 505.129 282.364 505.417 283.734L505.885 303.173C505.354 301.787 504.652 300.368 503.689 298.965L503.59 299.023C503.716 297.026 503.419 288.313 489.421 285.698C486.117 285.079 483.012 284.658 480.167 284.378C476.81 284.048 475.495 288.264 478.529 289.625C482.922 291.597 487.053 294.081 489.214 297.018C494.723 304.534 502.329 300.194 503.419 299.518C504.625 301.366 505.417 303.222 505.921 304.988L506.173 315.31C506.11 315.557 506.074 315.689 506.065 315.697L506.182 315.73L506.785 340.714L512.348 340.672L510.359 315.136C510.692 313.759 511.718 309.064 510.359 304.196L508.37 284.13L505.777 276.242C506.155 273.8 507.028 271.061 508.811 268.346C509.891 269.023 517.506 273.371 523.015 265.846C525.167 262.909 529.308 260.426 533.7 258.454C536.734 257.092 535.429 252.876 532.062 253.206L532.053 253.223ZM506.641 312.331L506.533 307.958C506.74 309.608 506.731 311.102 506.641 312.331Z" fill="#F2F2F2"/>
<path d="M467.268 337.611L476.945 335.697L473.479 300.599L459.211 303.42L467.268 337.611Z" fill="#A0616A"/>
<path d="M500.358 330.854C500.772 331.259 501.285 332.727 501.411 333.272C501.807 334.93 500.655 336.572 498.837 336.927L468.888 342.859C467.655 343.107 466.431 342.381 466.16 341.25L465.89 340.103C465.89 340.103 463.595 336.96 465.647 332.125C465.647 332.125 470.22 334.691 474.658 328.371L475.675 325.269L489.682 330.978L496.559 330.409C498.063 330.285 499.323 329.831 500.349 330.854H500.358Z" fill="#2F2E41"/>
<path d="M484.569 334.93L492.635 329.682L474.388 298.66L462.479 306.399L484.569 334.93Z" fill="#A0616A"/>
<path d="M512.087 316.778C512.636 317.001 513.744 318.164 514.086 318.618C515.157 320.004 514.806 321.927 513.294 322.909L488.305 339.162C487.27 339.831 485.847 339.608 485.109 338.667L484.371 337.71C484.371 337.71 480.914 335.648 480.725 330.458C480.725 330.458 486.027 331.168 487.405 323.758L487.009 320.541L502.338 320.739L508.424 317.735C509.756 317.075 510.719 316.209 512.096 316.778H512.087Z" fill="#2F2E41"/>
<path d="M368.33 161.376C368.33 161.376 353.288 180.122 383.372 201.202L444.808 183.207L422.862 141.261L403.427 131.492L368.321 161.368L368.33 161.376Z" fill="#2F2E41"/>
<path d="M444.817 183.215L468.636 225.732L483.687 314.229L464.882 315.376L446.069 231.482L412.843 186.087L436.041 176.318" fill="#2F2E41"/>
<path d="M383.381 187.852V201.21L426.013 244.122C426.013 244.122 426.013 276.3 442.315 291.242L461.119 317.677L477.422 309.633L453.603 232.637L410.971 182.068L383.39 187.852H383.381Z" fill="#2F2E41"/>
<path d="M413.671 55.4365L405.642 83.4972L375.027 77.9775C375.027 77.9775 396.388 57.7879 393.382 48.5884L413.68 55.4365H413.671Z" fill="#A0616A"/>
<path d="M390.276 59.6689L409.081 67.7134C409.081 67.7134 418.757 73.1341 418.937 76.748C419.117 80.3618 417.857 97.5976 417.857 97.5976C417.857 97.5976 425.383 104.495 420.369 118.282L422.88 141.269L366.457 168.851L371.471 120.584L368.96 75.7661L390.276 59.6772V59.6689Z" fill="#3F3D56"/>
<path d="M373.398 190.46C375.603 195.088 379.996 197.803 383.21 196.516C386.423 195.228 387.242 190.435 385.046 185.806C384.191 183.941 382.868 182.3 381.175 181.004L371.57 161.491L361.677 165.815L372.192 184.593C372.074 186.606 372.489 188.62 373.398 190.46Z" fill="#A0616A"/>
<path d="M383.381 78.6372C383.381 78.6372 369.59 70.5927 364.576 79.784C359.562 88.9754 348.274 136.095 348.274 136.095L364.576 180.913L379.618 175.171L366.448 126.937L383.372 78.6372H383.381Z" fill="#3F3D56"/>
<path d="M454.071 183.224C457.978 186.788 463.154 187.828 465.629 185.542C468.105 183.257 466.935 178.529 463.028 174.965C461.489 173.521 459.589 172.44 457.501 171.805L440.731 156.904L433.268 164.263L450.588 178.166C451.29 180.08 452.487 181.813 454.071 183.215V183.224Z" fill="#A0616A"/>
<path d="M418.406 75.8897C418.406 75.8897 394.363 74.9904 393.391 85.2295C392.427 95.4687 408.865 141.161 408.865 141.161L442.036 177.324L453.711 166.904L422.088 126.508L418.415 75.8897H418.406Z" fill="#3F3D56"/>
<path d="M348.004 158.859L327.921 102.977C311.682 89.8665 294.066 121.442 246.78 103.538L261.65 166.747C297.405 149.032 328.173 142.094 348.004 158.859Z" fill="white"/>
<path d="M261.65 168.397C261.524 168.397 261.389 168.372 261.272 168.323C261.011 168.216 260.831 168.001 260.768 167.745L245.897 104.536C245.825 104.239 245.942 103.926 246.204 103.728C246.465 103.53 246.816 103.48 247.122 103.596C273.983 113.761 291.32 107.713 303.986 103.291C313.608 99.9325 321.206 97.2758 328.515 103.175C328.632 103.274 328.722 103.398 328.776 103.538L348.859 159.42C348.985 159.775 348.832 160.171 348.49 160.369C348.148 160.575 347.689 160.534 347.392 160.278C329.965 145.543 302.851 148.084 262.083 168.29C261.948 168.356 261.804 168.389 261.65 168.389V168.397ZM248.013 105.708L262.272 166.326C301.393 147.127 328.191 144.165 346.132 157.143L327.129 104.281C320.693 99.2312 313.932 101.591 304.616 104.842C291.923 109.272 274.631 115.312 248.013 105.716V105.708Z" fill="#3F3D56"/>
<path d="M277.926 76.3521L265.215 78.7613C265.215 78.7613 231.243 95.898 237.67 102.391C244.088 108.885 271.372 109.718 271.372 109.718L277.007 101.723L270.184 98.7941L287.485 85.7166L277.926 76.3521Z" fill="#A0616A"/>
<path d="M312.816 72.7629C312.816 72.7629 300.403 55.3126 288.278 63.0848C276.152 70.857 265.224 78.7612 265.224 78.7612L280.329 96.2445L312.825 72.7629H312.816Z" fill="#E6E6E6"/>
<path d="M292.936 109.537C293.628 106.401 288.648 102.832 281.811 101.564C274.975 100.296 268.871 101.809 268.179 104.945C267.487 108.08 272.468 111.65 279.304 112.918C286.141 114.186 292.244 112.672 292.936 109.537Z" fill="#A0616A"/>
<path d="M527.687 348.23C531.883 348.23 535.285 345.112 535.285 341.266C535.285 337.42 531.883 334.303 527.687 334.303C523.491 334.303 520.09 337.42 520.09 341.266C520.09 345.112 523.491 348.23 527.687 348.23Z" fill="#3F3D56"/>
<path d="M537.814 359.03C542.01 359.03 545.412 355.913 545.412 352.067C545.412 348.221 542.01 345.103 537.814 345.103C533.618 345.103 530.217 348.221 530.217 352.067C530.217 355.913 533.618 359.03 537.814 359.03Z" fill="#3F3D56"/>
<path d="M613.771 359.03C617.967 359.03 621.368 355.913 621.368 352.067C621.368 348.221 617.967 345.103 613.771 345.103C609.575 345.103 606.173 348.221 606.173 352.067C606.173 355.913 609.575 359.03 613.771 359.03Z" fill="#3F3D56"/>
<path d="M548.94 247.86V172.242C548.94 163.777 556.664 161.681 565.899 161.681C570.427 161.681 572.624 161.202 575.801 164.156C578.979 167.11 582.508 168.339 582.436 172.489L581.103 246.688L548.931 247.852L548.94 247.86ZM566.8 166.64C558.554 166.64 550.741 164.693 550.741 172.25V246.152L579.339 245.112L580.644 172.473C580.707 168.768 574.136 169.28 571.31 166.64C568.474 163.999 570.85 166.64 566.809 166.64H566.8Z" fill="#3F3D56"/>
<path d="M526.328 246.944L525.176 329.559C525.158 330.623 525.437 331.671 525.977 332.611L534.493 347.355C535.744 349.525 538.246 350.837 540.92 350.73L615.688 347.71C619.514 347.553 622.475 344.583 622.304 341.077L617.614 246.746C617.443 243.355 614.401 240.682 610.692 240.682H533.25C529.461 240.682 526.373 243.479 526.319 246.952L526.328 246.944Z" fill="#E6E6E6"/>
<path d="M555.8 284.229L553.999 284.147L554.665 271.919C555.025 265.335 560.94 260.055 568.132 259.898L599.971 259.221C606.398 259.122 611.727 263.586 612.078 269.477L612.753 280.657L610.953 280.748L610.278 269.568C609.972 264.576 605.426 260.748 600.007 260.871L568.168 261.548C561.912 261.68 556.772 266.276 556.457 272.002L555.791 284.229H555.8Z" fill="#3F3D56"/>
<path d="M554.53 343.453L552.739 343.288L556.619 308.586C557.339 302.166 563.181 297.109 570.211 296.82L601.267 295.541C605.183 295.376 608.901 296.647 611.745 299.114C614.59 301.581 616.174 304.914 616.219 308.503L616.57 338.717L614.77 338.734L614.419 308.52C614.383 305.384 612.997 302.472 610.512 300.31C608.028 298.148 604.76 297.043 601.357 297.183L570.301 298.462C564.153 298.718 559.049 303.132 558.419 308.742L554.539 343.445L554.53 343.453Z" fill="#3F3D56"/>
<path d="M540.614 341.052L538.813 341.027L539.948 261.721C540.029 256.3 544.718 251.927 550.633 251.762L611.844 250.112L611.898 251.762L550.687 253.413C545.736 253.545 541.811 257.2 541.748 261.738L540.614 341.044V341.052Z" fill="#3F3D56"/>
<path d="M540.776 329.757H539.524V257.53C539.524 255.244 537.499 253.38 534.997 253.38H528.002V251.729H534.997C538.3 251.729 541.019 254.064 541.298 257.018C541.316 257.183 541.325 257.356 541.325 257.53V291.729L540.776 329.757Z" fill="#3F3D56"/>
<path d="M426.742 40.4366C426.742 51.014 417.389 59.5865 405.849 59.5865C394.309 59.5865 384.956 51.014 384.956 40.4366C384.956 29.8591 394.309 21.2866 405.849 21.2866C417.389 21.2866 426.742 29.8591 426.742 40.4366Z" fill="#A0616A"/>
<path d="M404.184 14.6944C404.787 15.0162 405.597 14.5294 405.795 13.9106C405.993 13.2918 405.759 12.64 405.543 12.0294C405.165 11.0063 404.796 9.99148 404.418 8.96839C403.616 6.79845 402.77 4.55425 401.042 2.9041C398.431 0.412377 394.273 -0.22293 390.537 0.239111C385.739 0.833164 381.004 3.20938 378.772 7.15323C376.539 11.0971 377.493 16.5921 381.526 19.0508C375.774 25.0903 373.776 31.8229 374.091 39.8261C374.406 47.8376 383.93 55.2055 390.141 60.849C391.527 60.0817 392.787 56.4679 392.022 55.156C391.257 53.8441 392.355 52.326 391.41 51.1131C390.465 49.9085 389.673 51.831 390.627 50.6264C391.23 49.8673 388.881 48.1264 389.772 47.6726C394.102 45.4779 395.542 40.5275 398.26 36.7404C401.546 32.1695 407.154 29.0754 413.104 28.5639C416.381 28.2834 419.838 28.7949 422.52 30.5358C425.203 32.2767 426.94 35.3872 426.319 38.3493C427.93 36.8476 428.731 34.6529 428.434 32.5655C428.128 30.4781 426.733 28.5474 424.743 27.483C425.95 23.828 424.915 19.6201 422.115 16.7983C419.315 13.9683 407.964 14.4551 403.877 15.1977L404.193 14.7027L404.184 14.6944Z" fill="#2F2E41"/>
<path d="M403.553 28.6714C398.143 29.2077 394.237 33.5063 390.933 37.4749C389.034 39.7604 387.035 42.2851 387.089 45.1646C387.134 48.0689 389.259 50.5688 390.276 53.3163C391.932 57.8212 390.321 63.176 386.378 66.2617C390.276 66.9383 394.489 64.2651 395.155 60.676C395.938 56.5094 392.49 52.483 392.895 48.2669C393.256 44.5541 396.451 41.6993 399.161 38.9188C401.879 36.1383 404.427 32.4585 403.175 28.9107L403.553 28.6714Z" fill="#2F2E41"/>
</g>
<defs>
<clipPath id="clip0_333_568">
<rect width="658.629" height="358.932" fill="white" transform="translate(0.519653 0.0986328)"/>
</clipPath>
</defs>
</svg>
