<svg width="359" height="334" viewBox="0 0 359 334" fill="none" xmlns="http://www.w3.org/2000/svg">
<path d="M358.655 0H136.559V149.571H136.694V179.35L169.252 149.571H358.655V0Z" fill="#4B9BEB"/>
<path d="M196.892 313.804L224.124 313.817L224.127 309.855L196.894 309.842L196.892 313.804Z" fill="#3F3D56"/>
<path d="M0 310.736L5.61864 311.927L219.154 312.032L221.074 307.931C224.423 300.897 225.573 293.149 224.394 285.551C223.475 279.888 221.17 274.26 215.936 271.816L206.46 213.967L88.3214 213.773L42.6141 247.563C42.6141 247.563 21.0534 247.208 9.34007 260.574C5.11465 265.544 2.61973 271.565 2.18034 277.852L1.71813 284.805L0 310.736Z" fill="#4B9BEB"/>
<path d="M46.9004 333.937C61.4629 333.937 73.2681 323.116 73.2681 309.769C73.2681 296.421 61.4629 285.601 46.9004 285.601C32.3379 285.601 20.5326 296.421 20.5326 309.769C20.5326 323.116 32.3379 333.937 46.9004 333.937Z" fill="#3F3D56"/>
<path d="M46.9005 322.489C54.565 322.489 60.7782 316.794 60.7782 309.769C60.7782 302.744 54.565 297.049 46.9005 297.049C39.236 297.049 33.0227 302.744 33.0227 309.769C33.0227 316.794 39.236 322.489 46.9005 322.489Z" fill="#CCCCCC"/>
<path d="M177.01 334C191.573 334 203.378 323.18 203.378 309.832C203.378 296.484 191.573 285.664 177.01 285.664C162.448 285.664 150.642 296.484 150.642 309.832C150.642 323.18 162.448 334 177.01 334Z" fill="#3F3D56"/>
<path d="M177.01 322.552C184.674 322.552 190.888 316.857 190.888 309.832C190.888 302.807 184.674 297.112 177.01 297.112C169.346 297.112 163.132 302.807 163.132 309.832C163.132 316.857 169.346 322.552 177.01 322.552Z" fill="#CCCCCC"/>
<path d="M60.7738 243.614L124.559 243.639H132.346L145.491 243.647V242.768L145.5 232.174L145.509 220.276H136.765L128.977 220.267L115.186 220.259H107.4L91.4768 220.25L60.7738 243.614Z" fill="white"/>
<path d="M155.87 243.655L189.58 243.672L189.59 237.609V227.014L189.599 220.3H184.663L176.877 220.292L155.879 220.284L155.87 243.655Z" fill="white"/>
<path d="M141.152 268.615L145.474 268.617L145.478 261.089L141.156 261.087L141.152 268.615Z" fill="#3F3D56"/>
<path d="M78.0603 254.32L78.0626 250.358L69.8497 250.354L69.8474 254.316L78.0603 254.32Z" fill="#3F3D56"/>
<path d="M75.0314 252.096L74.5559 252.096C72.1598 252.095 69.8625 251.221 68.1691 249.667C66.4758 248.114 65.5253 246.007 65.5265 243.811C65.5278 241.615 66.4808 239.509 68.1759 237.957C69.8711 236.405 72.1695 235.534 74.5655 235.535L75.041 235.535L75.0314 252.096Z" fill="#3F3D56"/>
<path d="M1.71826 284.806C4.98714 285.132 8.27664 284.39 11.0073 282.711C13.7379 281.032 15.7346 278.523 16.6454 275.628C17.5563 272.732 17.323 269.634 15.9867 266.88C14.6503 264.127 12.2966 261.893 9.3402 260.574C5.11478 265.544 2.61996 271.565 2.18057 277.853L1.71826 284.806Z" fill="#3F3D56"/>
<path d="M128.977 220.268L145.491 242.768L145.5 232.174L136.765 220.276L128.977 220.268Z" fill="#F2F2F2"/>
<path d="M176.877 220.292L189.59 237.61V227.014L184.663 220.301L176.877 220.292Z" fill="#F2F2F2"/>
<path d="M107.4 220.259L124.56 243.639H132.346L115.186 220.259H107.4Z" fill="#F2F2F2"/>
<path d="M229.469 117.089L199.749 82.3191L217.033 70.0856L231.103 86.5495L278.639 40.8882L294.535 54.5908L229.469 117.089Z" fill="white"/>
</svg>
