<svg width="902" height="624" viewBox="0 0 902 624" fill="none" xmlns="http://www.w3.org/2000/svg">
<g clip-path="url(#clip0_284_1269)">
<path d="M476.088 586C314.268 586 183.088 454.819 183.088 293C183.088 131.181 314.268 0 476.088 0C637.907 0 769.088 131.181 769.088 293C769.088 454.819 637.907 586 476.088 586Z" fill="#E6E6E6"/>
<path d="M207.271 93.3724C207.987 95.0199 208.736 96.6497 209.517 98.2613C273.295 100.823 374.15 103.875 442.667 100.865C443.081 100.057 443.487 99.2437 443.885 98.4261C448.189 89.5853 441.141 79.4086 431.368 80.4981L431.14 80.5236C431.14 80.5236 418.333 42.103 384.182 52.7754C384.182 52.7754 307.34 -67.545 232.633 59.862C232.633 59.862 232.21 59.7855 231.422 59.7158C213.329 58.1139 200.031 76.7143 207.271 93.3724Z" fill="white"/>
<path d="M158.588 275.5H196.588V604.5H158.588V275.5Z" fill="#2F2E43"/>
<path d="M60.5908 610.384C62.9516 596.901 65.8572 583.363 71.6727 570.971C77.4883 558.579 86.4859 547.294 98.6059 540.931C117.613 530.953 143.108 535.469 157.531 551.369C171.954 567.269 173.972 593.083 162.194 611.03" fill="#E6E6E6"/>
<path d="M158.338 612.015C160.303 587.242 173.801 563.224 194.998 550.251C216.194 537.278 244.777 536.486 265.738 549.836C286.699 563.186 298.116 590.696 291.092 614.534" fill="#E6E6E6"/>
<path d="M0.00037384 611.407C4.3147 594.936 18.7816 581.59 35.5454 578.614C43.7614 577.155 53.1092 578.398 58.8267 584.476C65.8374 591.928 65.0726 603.553 63.8593 613.713" fill="#E6E6E6"/>
<path d="M476.088 380C404.843 380 347.088 322.245 347.088 251C347.088 179.755 404.843 122 476.088 122C547.333 122 605.088 179.755 605.088 251C605.088 322.245 547.333 380 476.088 380Z" fill="#FFD363"/>
<path d="M0.175049 611.739C0.175049 617.262 392.715 624 573.588 624C754.461 624 901.088 619.523 901.088 614C901.088 608.477 754.461 604 573.588 604C392.715 604 0.175049 606.216 0.175049 611.739Z" fill="#E6E6E6"/>
<path d="M831.609 509.483L823.088 543L739.405 557.5V493.597L831.609 489.5V509.483Z" fill="#2F2E43"/>
<path d="M319.088 473H746.088V573H319.088V473Z" fill="#2F2E43"/>
<path d="M725.088 560C725.088 588.167 735.921 611 772.588 611C804.255 611 815.088 588.167 815.088 560C815.088 531.833 798.821 509 772.588 509C746.354 509 725.088 531.833 725.088 560Z" fill="#2F2E43"/>
<path d="M785.088 597C774.042 597 765.088 579.315 765.088 557.5C765.088 535.685 774.042 518 785.088 518C796.134 518 805.088 535.685 805.088 557.5C805.088 579.315 796.134 597 785.088 597Z" fill="white"/>
<path d="M785.088 568C777.356 568 771.088 561.732 771.088 554C771.088 546.268 777.356 540 785.088 540C792.82 540 799.088 546.268 799.088 554C799.088 561.732 792.82 568 785.088 568Z" fill="#2F2E43"/>
<path d="M325.088 614C293.608 614 268.088 585.346 268.088 550C268.088 514.654 293.608 486 325.088 486C356.568 486 382.088 514.654 382.088 550C382.088 585.346 356.568 614 325.088 614Z" fill="#2F2E43"/>
<path d="M595.088 604C570.787 604 551.088 582.51 551.088 556C551.088 529.49 570.787 508 595.088 508C619.388 508 639.088 529.49 639.088 556C639.088 582.51 619.388 604 595.088 604Z" fill="#2F2E43"/>
<path d="M515.088 624C483.608 624 458.088 595.346 458.088 560C458.088 524.654 483.608 496 515.088 496C546.568 496 572.088 524.654 572.088 560C572.088 595.346 546.568 624 515.088 624Z" fill="#2F2E43"/>
<path d="M525.588 603C505.982 603 490.088 581.957 490.088 556C490.088 530.043 505.982 509 525.588 509C545.194 509 561.088 530.043 561.088 556C561.088 581.957 545.194 603 525.588 603Z" fill="white"/>
<path d="M526.088 569C515.594 569 507.088 560.493 507.088 550C507.088 539.507 515.594 531 526.088 531C536.581 531 545.088 539.507 545.088 550C545.088 560.493 536.581 569 526.088 569Z" fill="#2F2E43"/>
<path d="M852.588 527.828V451.726C852.588 445.045 847.172 439.629 840.49 439.629H824.343C824.343 439.629 811.088 360 786.088 349C761.088 338 537.088 288 414.088 337L373.088 412C373.088 412 280.088 412 270.088 433C270.088 433 226.088 422 222.088 470L233.088 526L237.088 546L454.088 539L494.088 534C494.088 534 500.088 488 529.088 488C558.088 488 570.088 495 570.088 495C570.088 495 592.088 531 585.088 567H748.029C748.029 567 755.088 511 788.088 510C803.114 509.545 818.088 504 823.088 543L840.997 540.875C847.608 540.091 852.588 534.486 852.588 527.828Z" fill="#905DCA"/>
<path d="M380.74 410.5H576.386C582.833 410.5 588.261 405.88 589.291 399.515L596.657 353.981C597.185 350.709 596.359 347.468 594.328 344.852C592.299 342.24 589.368 340.638 586.072 340.34C479.742 330.746 436.35 337.694 422.629 341.125C414.205 343.232 407.122 349.259 403.681 357.247L380.74 410.5Z" fill="white"/>
<path d="M663.283 419.645C664.854 419.645 666.389 419.613 667.885 419.544C670.402 419.429 672.752 418.242 674.333 416.289C675.904 414.347 676.571 411.819 676.162 409.354L668.235 361.497C667.606 357.701 664.5 354.715 660.684 354.235L622.602 349.442C618.102 348.873 613.951 351.788 612.957 356.22L602.714 401.914C602.201 404.202 602.61 406.553 603.866 408.532C605.12 410.507 607.068 411.875 609.352 412.383C621.974 415.192 644.888 419.645 663.283 419.645Z" fill="white"/>
<path d="M773.021 428.78C775.4 428.78 777.658 427.696 779.145 425.815C780.744 423.793 781.24 421.116 780.473 418.654C774.339 398.986 763.04 365.543 756.291 362.543C749.569 359.556 714.918 356.895 694.861 355.576C692.465 355.421 690.167 356.35 688.558 358.134C686.947 359.919 686.256 362.304 686.659 364.676L695.632 417.42C696.237 420.983 699.179 423.647 702.784 423.899L772.475 428.761C772.657 428.774 772.84 428.78 773.021 428.78Z" fill="white"/>
<path d="M704.088 550V450.84L689.234 429H594.882L608.088 455L605.043 550H704.088Z" stroke="#2F2E43" stroke-miterlimit="10" stroke-linecap="round"/>
<path d="M734.347 550H704.088" stroke="#2F2E43" stroke-miterlimit="10" stroke-linecap="round"/>
<path d="M798.833 509.483C798.833 509.483 793.088 442.003 783.088 438.502L699.088 432" stroke="#2F2E43" stroke-miterlimit="10" stroke-linecap="round"/>
<path d="M778.088 462H764.716" stroke="#2F2E43" stroke-miterlimit="10" stroke-linecap="round"/>
<path d="M677.088 450.114H694.315V458H677.088V450.114Z" stroke="#2F2E43" stroke-miterlimit="10" stroke-linecap="round"/>
<path d="M594.882 429L418.588 422.5C418.588 422.5 397.186 433.983 392.387 470.741L273.588 475.5C273.588 475.5 262.588 448.5 270.088 433" stroke="#2F2E43" stroke-miterlimit="10" stroke-linecap="round"/>
<path d="M427.088 496C414.385 496 404.088 485.703 404.088 473C404.088 460.297 414.385 450 427.088 450C439.79 450 450.088 460.297 450.088 473C450.088 485.703 439.79 496 427.088 496Z" fill="#2F2E43"/>
<path d="M427.088 490C417.699 490 410.088 482.389 410.088 473C410.088 463.611 417.699 456 427.088 456C436.477 456 444.088 463.611 444.088 473C444.088 482.389 436.477 490 427.088 490Z" fill="white"/>
<path d="M237.588 499.5C227.647 499.5 219.588 489.65 219.588 477.5C219.588 465.35 227.647 455.5 237.588 455.5C247.529 455.5 255.588 465.35 255.588 477.5C255.588 489.65 247.529 499.5 237.588 499.5Z" fill="#2F2E43"/>
<path d="M239.088 496C232.46 496 227.088 487.941 227.088 478C227.088 468.059 232.46 460 239.088 460C245.715 460 251.088 468.059 251.088 478C251.088 487.941 245.715 496 239.088 496Z" fill="white"/>
<path d="M430.588 516.5C427.274 516.5 424.588 512.694 424.588 508C424.588 503.306 427.274 499.5 430.588 499.5C433.902 499.5 436.588 503.306 436.588 508C436.588 512.694 433.902 516.5 430.588 516.5Z" fill="white"/>
<path d="M241.088 524C238.326 524 236.088 520.418 236.088 516C236.088 511.582 238.326 508 241.088 508C243.849 508 246.088 511.582 246.088 516C246.088 520.418 243.849 524 241.088 524Z" fill="white"/>
<path d="M259.088 517H404.088L401.088 496.567C401.088 485.761 392.327 477 381.521 477H279.457C268.207 477 259.088 486.119 259.088 497.369V517Z" fill="#2F2E43"/>
<path d="M191.133 315.85C191.133 315.85 245.588 308.461 227.088 241.48H219.588C219.588 241.48 228.588 275.5 193.588 292.5L191.133 315.85Z" fill="#2F2E43"/>
<path d="M161.588 338.5C161.588 338.5 126.588 290.5 126.588 271.5H136.256C136.256 271.5 145.727 300.5 167.158 305L161.588 338.5Z" fill="#2F2E43"/>
<path d="M252.53 267.761C254.411 282.405 269.609 293.202 284.356 292.466C299.102 291.729 312.251 281.192 318.66 267.892C325.07 254.591 325.457 239.015 322.499 224.55C337.336 204.58 345.934 180.043 346.808 155.18C347.287 141.544 345.166 127.052 336.546 116.476C329.635 107.998 318.805 102.855 307.868 102.858C296.93 102.86 286.103 108.009 279.197 116.49L281.071 116.266C282.767 102.581 284.466 88.759 283.089 75.0385C281.712 61.3181 276.973 47.5099 267.372 37.6114C257.49 27.4217 243.543 22.3355 229.841 18.6271C209.929 13.2381 188.797 10.0896 168.72 14.8259C148.642 19.5622 129.79 33.4777 123.774 53.2091C107.936 52.6345 91.5092 54.3989 77.696 62.1682C63.8827 69.9376 53.2152 84.7053 53.8412 100.541C54.4672 116.377 68.9162 131.411 84.6581 129.577C74.4373 136.12 64.4007 143.361 57.0594 153.025C49.7181 162.689 45.3169 175.173 47.6497 187.082C49.9826 198.992 60.1734 209.632 72.2982 210.152L74.9536 211.512C60.3598 225.15 60.8753 250.179 72.7959 266.206C84.7165 282.233 105.233 290.029 125.175 291.148C145.118 292.266 164.877 287.568 184.299 282.903C207.01 277.448 229.722 271.993 252.433 266.538L252.53 267.761Z" fill="#905DCA"/>
<path d="M549.203 97.0187C549.538 97.7906 549.889 98.5541 550.255 99.3092C580.135 100.509 627.385 101.939 659.485 100.529C659.679 100.15 659.869 99.7694 660.056 99.3864C662.072 95.2445 658.77 90.4767 654.192 90.9871L654.085 90.9991C654.085 90.9991 648.085 72.9991 632.085 77.9991C632.085 77.9991 596.085 21.6292 561.085 81.3192C561.085 81.3192 560.887 81.2833 560.517 81.2506C552.041 80.5002 545.811 89.2144 549.203 97.0187Z" fill="white"/>
<path d="M576.272 250.372C576.988 252.02 577.737 253.65 578.518 255.261C642.296 257.823 743.15 260.875 811.667 257.865C812.081 257.057 812.487 256.244 812.885 255.426C817.189 246.585 810.141 236.409 800.369 237.498L800.141 237.524C800.141 237.524 787.334 199.103 753.182 209.775C753.182 209.775 676.341 89.455 601.634 216.862C601.634 216.862 601.211 216.785 600.423 216.716C582.33 215.114 569.031 233.714 576.272 250.372Z" fill="white"/>
</g>
<defs>
<clipPath id="clip0_284_1269">
<rect width="901.088" height="624" fill="white" transform="matrix(-1 0 0 1 901.088 0)"/>
</clipPath>
</defs>
</svg>
