<svg width="799" height="553" viewBox="0 0 799 553" fill="none" xmlns="http://www.w3.org/2000/svg">
<g clip-path="url(#clip0_294_407)">
<path d="M376.85 519.324C520.336 519.324 636.655 403.069 636.655 259.662C636.655 116.255 520.336 0 376.85 0C233.364 0 117.045 116.255 117.045 259.662C117.045 403.069 233.364 519.324 376.85 519.324Z" fill="#E6E6E6"/>
<path d="M615.211 82.7483C614.576 84.2083 613.912 85.6527 613.22 87.0809C556.667 89.3507 467.239 92.0556 406.485 89.3886C406.118 88.6721 405.757 87.9515 405.405 87.227C401.588 79.3921 407.838 70.3733 416.503 71.3389L416.705 71.3615C416.705 71.3615 428.061 37.3124 458.344 46.7705C458.344 46.7705 526.479 -59.8596 592.722 53.0508C592.722 53.0508 593.098 52.983 593.797 52.9212C609.84 51.5016 621.632 67.9855 615.211 82.7483Z" fill="white"/>
<path d="M658.379 244.153H624.685V535.719H658.379V244.153Z" fill="#2F2E43"/>
<path d="M745.274 540.934C743.18 528.984 740.604 516.987 735.447 506.005C730.291 495.023 722.312 485.022 711.566 479.383C694.712 470.54 672.105 474.542 659.316 488.633C646.527 502.724 644.738 525.6 655.182 541.506" fill="#E6E6E6"/>
<path d="M658.601 542.379C656.858 520.424 644.89 499.14 626.094 487.643C607.299 476.146 581.955 475.444 563.369 487.275C544.782 499.106 534.659 523.485 540.887 544.611" fill="#E6E6E6"/>
<path d="M799 541.839C795.174 527.243 782.346 515.415 767.482 512.778C760.197 511.485 751.908 512.587 746.838 517.973C740.622 524.578 741.3 534.88 742.376 543.883" fill="#E6E6E6"/>
<path d="M376.85 336.763C440.023 336.763 491.235 285.579 491.235 222.441C491.235 159.302 440.023 108.119 376.85 108.119C313.677 108.119 262.465 159.302 262.465 222.441C262.465 285.579 313.677 336.763 376.85 336.763Z" fill="#FF6363"/>
<path d="M798.845 542.134C798.845 547.029 450.778 553 290.396 553C130.015 553 0 549.032 0 544.138C0 539.243 130.015 535.276 290.396 535.276C450.778 535.276 798.845 537.24 798.845 542.134Z" fill="#E6E6E6"/>
<path d="M61.6074 451.513L69.1631 481.216L143.366 494.067V437.435L61.6074 433.804V451.513Z" fill="#2F2E43"/>
<path d="M516.063 419.181H137.439V507.803H516.063V419.181Z" fill="#2F2E43"/>
<path d="M156.06 496.282C156.06 521.244 146.454 541.479 113.942 541.479C85.8627 541.479 76.2567 521.244 76.2567 496.282C76.2567 471.32 90.6803 451.085 113.942 451.085C137.203 451.085 156.06 471.32 156.06 496.282Z" fill="#2F2E43"/>
<path d="M102.858 529.072C112.652 529.072 120.592 513.4 120.592 494.066C120.592 474.733 112.652 459.061 102.858 459.061C93.0636 459.061 85.1238 474.733 85.1238 494.066C85.1238 513.4 93.0636 529.072 102.858 529.072Z" fill="white"/>
<path d="M102.858 503.372C109.714 503.372 115.272 497.817 115.272 490.965C115.272 484.113 109.714 478.558 102.858 478.558C96.0019 478.558 90.444 484.113 90.444 490.965C90.444 497.817 96.0019 503.372 102.858 503.372Z" fill="#2F2E43"/>
<path d="M510.743 544.138C538.656 544.138 561.285 518.744 561.285 487.42C561.285 456.095 538.656 430.702 510.743 430.702C482.829 430.702 460.2 456.095 460.2 487.42C460.2 518.744 482.829 544.138 510.743 544.138Z" fill="#2F2E43"/>
<path d="M271.332 535.276C292.879 535.276 310.347 516.231 310.347 492.737C310.347 469.244 292.879 450.199 271.332 450.199C249.785 450.199 232.317 469.244 232.317 492.737C232.317 516.231 249.785 535.276 271.332 535.276Z" fill="#2F2E43"/>
<path d="M342.269 553C370.182 553 392.811 527.607 392.811 496.282C392.811 464.958 370.182 439.564 342.269 439.564C314.355 439.564 291.726 464.958 291.726 496.282C291.726 527.607 314.355 553 342.269 553Z" fill="#2F2E43"/>
<path d="M332.958 534.389C350.343 534.389 364.436 515.741 364.436 492.737C364.436 469.733 350.343 451.085 332.958 451.085C315.573 451.085 301.48 469.733 301.48 492.737C301.48 515.741 315.573 534.389 332.958 534.389Z" fill="white"/>
<path d="M332.515 504.258C341.819 504.258 349.362 496.719 349.362 487.42C349.362 478.12 341.819 470.582 332.515 470.582C323.21 470.582 315.667 478.12 315.667 487.42C315.667 496.719 323.21 504.258 332.515 504.258Z" fill="#2F2E43"/>
<path d="M43.0052 467.771V400.328C43.0052 394.407 47.8079 389.607 53.7322 389.607H68.0499C68.0499 389.607 79.8036 319.038 101.971 309.29C124.139 299.542 322.761 255.231 431.826 298.655L468.181 365.122C468.181 365.122 550.644 365.122 559.512 383.732C559.512 383.732 598.527 373.984 602.073 416.522L592.32 466.151L588.773 483.875L396.358 477.671L360.889 473.24C360.889 473.24 355.569 432.474 329.855 432.474C304.14 432.474 293.5 438.678 293.5 438.678C293.5 438.678 273.992 470.582 280.199 502.486H135.718C135.718 502.486 129.459 452.857 100.198 451.971C86.8738 451.568 73.5966 446.654 69.1631 481.216L53.2826 479.333C47.4206 478.638 43.0052 473.671 43.0052 467.771Z" fill="#6C63FF"/>
<path d="M461.396 363.792H287.916C282.198 363.792 277.386 359.698 276.472 354.057L269.941 313.704C269.472 310.805 270.205 307.932 272.006 305.614C273.805 303.299 276.404 301.879 279.327 301.616C373.61 293.113 412.086 299.27 424.253 302.311C431.722 304.178 438.003 309.519 441.054 316.599L461.396 363.792Z" fill="white"/>
<path d="M210.863 371.897C209.47 371.897 208.109 371.869 206.783 371.808C204.551 371.705 202.467 370.654 201.065 368.923C199.672 367.202 199.081 364.962 199.443 362.777L206.472 320.365C207.03 317.001 209.783 314.355 213.168 313.929L246.935 309.682C250.926 309.178 254.606 311.761 255.487 315.688L264.57 356.183C265.025 358.211 264.662 360.294 263.548 362.048C262.436 363.798 260.709 365.011 258.684 365.461C247.492 367.951 227.174 371.897 210.863 371.897Z" fill="white"/>
<path d="M113.557 379.992C111.448 379.992 109.446 379.032 108.127 377.365C106.709 375.573 106.269 373.201 106.95 371.018C112.389 353.588 122.408 323.951 128.392 321.292C134.353 318.645 165.078 316.287 182.863 315.117C184.988 314.981 187.025 315.804 188.451 317.384C189.88 318.967 190.493 321.08 190.135 323.182L182.179 369.925C181.642 373.083 179.034 375.444 175.837 375.667L114.042 379.976C113.88 379.987 113.718 379.992 113.557 379.992Z" fill="white"/>
<path d="M174.681 487.42V399.543L187.852 380.188H271.515L259.805 403.229L262.505 487.42H174.681Z" stroke="#2F2E43" stroke-miterlimit="10" stroke-linecap="round"/>
<path d="M147.85 487.42H174.681" stroke="#2F2E43" stroke-miterlimit="10" stroke-linecap="round"/>
<path d="M90.67 451.513C90.67 451.513 95.7643 391.711 104.631 388.608L179.115 382.846" stroke="#2F2E43" stroke-miterlimit="10" stroke-linecap="round"/>
<path d="M109.065 409.433H120.921" stroke="#2F2E43" stroke-miterlimit="10" stroke-linecap="round"/>
<path d="M198.622 398.899H183.347V405.888H198.622V398.899Z" stroke="#2F2E43" stroke-miterlimit="10" stroke-linecap="round"/>
<path d="M271.515 380.188L427.836 374.427C427.836 374.427 446.813 384.603 451.068 417.179L556.408 421.397C556.408 421.397 566.162 397.469 559.511 383.732" stroke="#2F2E43" stroke-miterlimit="10" stroke-linecap="round"/>
<path d="M420.299 439.564C431.562 439.564 440.693 430.438 440.693 419.181C440.693 407.924 431.562 398.798 420.299 398.798C409.035 398.798 399.905 407.924 399.905 419.181C399.905 430.438 409.035 439.564 420.299 439.564Z" fill="#2F2E43"/>
<path d="M420.299 434.247C428.624 434.247 435.373 427.502 435.373 419.181C435.373 410.861 428.624 404.115 420.299 404.115C411.973 404.115 405.225 410.861 405.225 419.181C405.225 427.502 411.973 434.247 420.299 434.247Z" fill="white"/>
<path d="M588.329 442.666C597.144 442.666 604.29 433.937 604.29 423.169C604.29 412.401 597.144 403.672 588.329 403.672C579.515 403.672 572.369 412.401 572.369 423.169C572.369 433.937 579.515 442.666 588.329 442.666Z" fill="#2F2E43"/>
<path d="M586.999 439.564C592.876 439.564 597.64 432.422 597.64 423.612C597.64 414.802 592.876 407.66 586.999 407.66C581.123 407.66 576.359 414.802 576.359 423.612C576.359 432.422 581.123 439.564 586.999 439.564Z" fill="white"/>
<path d="M417.195 457.732C420.134 457.732 422.515 454.359 422.515 450.199C422.515 446.038 420.134 442.666 417.195 442.666C414.257 442.666 411.875 446.038 411.875 450.199C411.875 454.359 414.257 457.732 417.195 457.732Z" fill="white"/>
<path d="M585.226 464.378C587.675 464.378 589.66 461.204 589.66 457.288C589.66 453.373 587.675 450.199 585.226 450.199C582.777 450.199 580.792 453.373 580.792 457.288C580.792 461.204 582.777 464.378 585.226 464.378Z" fill="white"/>
<path d="M569.265 458.175H440.693L443.353 440.067C443.353 430.49 451.121 422.726 460.703 422.726H551.204C561.179 422.726 569.265 430.808 569.265 440.777V458.175Z" fill="#2F2E43"/>
<path d="M629.521 279.912C629.521 279.912 581.236 273.363 597.64 214.004H604.29C604.29 214.004 596.31 244.153 627.345 259.219L629.521 279.912Z" fill="#2F2E43"/>
<path d="M655.719 299.985C655.719 299.985 686.754 257.446 686.754 240.608H678.181C678.181 240.608 669.783 266.308 650.781 270.296L655.719 299.985Z" fill="#2F2E43"/>
<path d="M575.08 237.295C573.412 250.273 559.936 259.841 546.86 259.188C533.785 258.536 522.125 249.198 516.442 237.41C510.759 225.623 510.416 211.82 513.038 199C499.882 181.303 492.258 159.557 491.484 137.523C491.059 125.439 492.939 112.596 500.583 103.223C506.711 95.7095 516.314 91.1519 526.012 91.1543C535.71 91.1567 545.311 95.7191 551.435 103.236L549.773 103.037C548.269 90.9092 546.762 78.6598 547.983 66.5005C549.205 54.3411 553.407 42.1041 561.919 33.3319C570.683 24.3016 583.049 19.7941 595.199 16.5077C612.855 11.7318 631.593 8.94158 649.395 13.139C667.198 17.3364 683.914 29.6685 689.249 47.1549C703.292 46.6456 717.858 48.2092 730.107 55.0946C742.355 61.98 751.814 75.0674 751.259 89.1015C750.704 103.136 737.892 116.459 723.933 114.833C732.996 120.632 741.896 127.049 748.405 135.613C754.915 144.178 758.817 155.241 756.749 165.796C754.68 176.35 745.644 185.78 734.893 186.24L732.538 187.446C745.479 199.532 745.022 221.713 734.452 235.917C723.882 250.12 705.69 257.029 688.007 258.02C670.323 259.011 652.802 254.848 635.581 250.714C615.443 245.88 595.304 241.045 575.166 236.211L575.08 237.295Z" fill="#6C63FF"/>
<path d="M312.019 85.9797C311.721 86.6638 311.41 87.3405 311.086 88.0096C284.591 89.073 242.694 90.3402 214.231 89.0907C214.059 88.755 213.89 88.4175 213.725 88.078C211.937 84.4074 214.865 80.1821 218.924 80.6344L219.019 80.645C219.019 80.645 224.339 64.6931 238.527 69.1242C238.527 69.1242 270.448 19.1682 301.483 72.0665C301.483 72.0665 301.659 72.0348 301.986 72.0058C309.502 71.3407 315.027 79.0634 312.019 85.9797Z" fill="white"/>
<path d="M288.017 221.884C287.382 223.345 286.718 224.789 286.025 226.217C229.473 228.487 140.045 231.192 79.2902 228.525C78.923 227.808 78.5629 227.088 78.21 226.363C74.3939 218.528 80.6433 209.51 89.3083 210.475L89.5108 210.498C89.5108 210.498 100.867 176.449 131.149 185.907C131.149 185.907 199.285 79.2766 265.528 192.187C265.528 192.187 265.903 192.119 266.602 192.057C282.645 190.638 294.437 207.122 288.017 221.884Z" fill="white"/>
</g>
<defs>
<clipPath id="clip0_294_407">
<rect width="799" height="553" fill="white"/>
</clipPath>
</defs>
</svg>
